<svg xmlns="http://www.w3.org/2000/svg" xmlns:xlink="http://www.w3.org/1999/xlink" viewBox="0 0 414.78 588.35"><defs><style>.cls-1{opacity:0.51;}.cls-2{fill:#3e7ebc;}.cls-3{opacity:0.65;}.cls-4{fill:#f6a23d;}.cls-5{fill:#1d1d1b;}</style></defs><g id="Capa_8" data-name="Capa 8"><g class="cls-1"><path class="cls-2" d="M148,300.65a361.86,361.86,0,0,0,8.1,55.47,341.92,341.92,0,0,0,16,51.2c3.81,9.5,8,18.77,9.4,29l-.36-2.66c1.32,9.89.82,19.92.47,29.86-.31,8.9-.78,17.79-2,26.62l.35-2.66a107.85,107.85,0,0,1-7,27.4l1-2.39a82.23,82.23,0,0,1-7.81,14c-3.21,4.74-6.24,9.85-7.8,15.39-2,7.12-.87,15,4.55,20.32,5.27,5.19,12.73,6.23,19.7,7.34a212,212,0,0,0,24,2.49c5.24.22,10.24-4.76,10-10a10.21,10.21,0,0,0-10-10q-8.42-.36-16.77-1.47l2.65.36c-3-.4-5.89-.86-8.82-1.4a40,40,0,0,1-7.72-1.9l2.39,1a12.1,12.1,0,0,1-2.56-1.48l2,1.56a11,11,0,0,1-1.56-1.57l1.57,2a9.27,9.27,0,0,1-1.15-2l1,2.39a10.36,10.36,0,0,1-.56-2.19l.36,2.66a13.26,13.26,0,0,1,0-3l-.35,2.66a22.18,22.18,0,0,1,1.53-5.34l-1,2.39c2.63-6.21,7-11.35,10.25-17.22a93.66,93.66,0,0,0,8.33-21c3.79-14.18,4.79-29.05,5.33-43.66.6-16.4,1.13-32.9-4.5-48.59-2.66-7.41-5.92-14.6-8.68-22s-5.25-14.88-7.48-22.45a342.89,342.89,0,0,1-11-51.49l.36,2.66q-1.48-11.13-2.25-22.33a10.63,10.63,0,0,0-2.93-7.08,10,10,0,0,0-14.14,0,10,10,0,0,0-2.93,7.08Z" transform="translate(-40.79 -7.41)"/></g><g class="cls-1"><path class="cls-2" d="M411.69,164.77c-8.59-4.45-18.29-8.62-28.08-5.51a22.33,22.33,0,0,0-12.2,8.91c-3.2,4.92-3.18,10.61-2.43,16.18-.08-.55.45,3.5.2,1.49-.18-1.42,0,.26.07.61.13,1,.25,2.06.36,3.09.25,2.32.45,4.64.62,7q.47,6.6.49,13.21t-.4,13.22q-.21,3.3-.53,6.59c-.1,1-.21,2.06-.33,3.1l-.18,1.54c0,.31-.32,2.52-.12,1s0,.25-.09.6c-.09.64-.18,1.28-.28,1.92-.16,1-.33,2-.5,3.08q-.56,3.26-1.22,6.5-1.36,6.69-3.19,13.26c-2.3,8.27-5.21,16.34-8.27,24.35-6,15.78-12.71,31.49-16.07,48.11a97.13,97.13,0,0,0-2.13,26,81.3,81.3,0,0,0,6.88,27.17c3.26,7.47,7.48,14.45,11.23,21.68.93,1.8,1.84,3.61,2.69,5.46.2.43.4.86.59,1.3s.75,1.77.2.44.05.13.18.46c.21.55.43,1.1.63,1.66A66.53,66.53,0,0,1,363.1,430c0,.35.24,2,.09.6s0,.26.05.61c.11,1,.21,2.07.29,3.11.18,2.34.27,4.69.32,7,.09,4.44,0,8.89-.12,13.33q-.36,14.1-.74,28.18l-1.51,56.91c-.24,9-.9,18.11-.62,27.12.31,9.5,3.78,18.73,12.33,23.73,12.16,7.13,26.32,1.9,39.41,2.84l1.07.1c1.62.11-1-.13-1.07-.16.66.2,1.4.23,2.08.39s1.5.41,2.25.63c.42.13,1.49.66,0,0-1.67-.8-.07,0,.22.13,4.7,2.29,11,1.43,13.69-3.59,2.37-4.49,1.43-11.23-3.59-13.68-6.7-3.26-13.91-4.16-21.3-3.8-6,.29-12.06,1.27-18.11,1-.67,0-1.34-.1-2-.15-1.66-.14,2.7.49.25,0-.61-.13-1.23-.28-1.83-.47l-.88-.29c-1.52-.48,1.9,1,.9.38-.52-.31-1.07-.59-1.6-.9-1.76-1,1.64,1.63.19.13-.28-.3-1.81-2.11-.69-.62s-.6-1.42-.87-1.65c.23.2.7,2.22.28.57-.1-.42-.25-.83-.36-1.25s-.18-.86-.28-1.29c-.33-1.55.3.63.08.69,0,0-.2-5.23-.19-5.71.07-4.43.23-8.86.34-13.29l1.45-54.84c.48-17.83,1.5-35.76,1.23-53.6-.15-9.15-1-18.54-3.74-27.3-2.54-8.12-6.51-15.72-10.57-23.16-1.89-3.47-3.81-6.93-5.57-10.47-.43-.86-.84-1.72-1.25-2.58a10.78,10.78,0,0,0-1.18-2.6c.16.16.86,2.13.18.41l-.52-1.32q-.59-1.5-1.08-3-.86-2.58-1.48-5.23c-.22-.93-.42-1.87-.6-2.81-.09-.47-.18-.94-.25-1.41s-.12-.7-.17-1.06c-.11-.77-.08-.47.11.9-.61-1.54-.39-4-.46-5.64-.08-1.89-.08-3.77,0-5.66s.2-3.77.39-5.66c0-.47.11-.94.15-1.41.19-1.82,0,.27-.08.53.27-1.15.35-2.37.56-3.54.67-3.82,1.54-7.6,2.55-11.34,2.15-7.93,4.91-15.68,7.82-23.37,5.91-15.64,12.35-31.07,16.26-47.38a208.23,208.23,0,0,0,5.75-52.82c-.08-4.14-.3-8.29-.65-12.42q-.27-3.11-.63-6.2c-.12-1-.25-2.06-.39-3.08s-.31-2.29-.46-3.43c.37,2.8,0,.23,0-.25s.17-2.67-.06-2.9l-.08.62c-.14.85-.11.82.08-.09l.11-.34c.27-.82.12-.47-.46,1.05.14-.08.32-.54.41-.69.64-1-1.53,1.49-.58.76a6.06,6.06,0,0,0,.77-.75c.71-.81-2,1.16-.48.43.31-.16.66-.36,1-.54,1.36-.8-.62.34-.83.34a11.83,11.83,0,0,0,2.2-.61c1.58-.41-.75.16-.95.12a6.37,6.37,0,0,0,1.14-.06c.38,0,.76,0,1.13,0,2.37,0-2-.55.31,0,.84.22,1.69.4,2.52.66q.7.22,1.41.48c.32.12,1.83.74.55.2s.22.11.53.26l1.35.65c1,.5,2,1,3,1.53,4.64,2.41,11.08,1.35,13.69-3.58,2.42-4.6,1.37-11.11-3.59-13.69Z" transform="translate(-40.79 -7.41)"/></g><g class="cls-3"><path class="cls-4" d="M141.57,246.18a31.11,31.11,0,0,0-2.15,26.58,26.47,26.47,0,0,0,9.48,12.47A17,17,0,0,0,157,288c3.13.31,5.79-.74,8.59-2l-1.79.76a7.72,7.72,0,0,1,1.55-.48l-2,.26a3.06,3.06,0,0,1,.8,0l-2-.27a4.16,4.16,0,0,1,1,.29l-1.79-.76a4.25,4.25,0,0,1,.58.35c-1-.84-1.28-1-.72-.49.23.27.5.52.73.79.58.65,1.14,1.31,1.76,1.93a38.59,38.59,0,0,0,5,4.12,34.68,34.68,0,0,0,10.7,5,33.74,33.74,0,0,0,11.79,1.15c2.66-.25,5.25-.59,7.5-2.19a10,10,0,0,0,4.17-5.43,9.43,9.43,0,0,0-.9-6.86c-1.78-3.51-7-4.8-10.27-2.69A7.68,7.68,0,0,0,189,291.77l.14.27-.75-1.79.06.28-.26-2v.27l.26-2-.06.26.76-1.79c-.22.44-.13.35.29-.27a3.58,3.58,0,0,1,1.4-1.27c-.31.11-.63.36-.93.5l1.79-.76a7.38,7.38,0,0,1-1.37.33l2-.26a28.44,28.44,0,0,1-7.2,0l2,.27a30.12,30.12,0,0,1-7.32-2l1.79.76a29.49,29.49,0,0,1-5-2.74c-.32-.21-.62-.45-.93-.67,2,1.39.49.37,0,0a25.63,25.63,0,0,1-1.92-1.84c-1.52-1.62-2.85-3.28-4.85-4.38a10.59,10.59,0,0,0-5.56-1.3,16.66,16.66,0,0,0-6.1,1.84l1.79-.75a9.07,9.07,0,0,1-2.22.63l2-.27a9.21,9.21,0,0,1-1.82,0l2,.27a10.34,10.34,0,0,1-2.13-.59l1.79.76c-.47-.21-.92-.43-1.36-.68s-1.74-1.49-.08.06c-.68-.63-1.34-1.24-2-1.91-.49-.6-.34-.39.44.6-.15-.2-.3-.41-.44-.62s-.43-.66-.62-1a21.91,21.91,0,0,1-1.4-2.78L154,269a24.8,24.8,0,0,1-1.61-6l.27,2a25.58,25.58,0,0,1,0-6.6l-.27,2a24.78,24.78,0,0,1,1.52-5.61l-.76,1.79a25.74,25.74,0,0,1,1.39-2.78c2-3.4.9-8.37-2.69-10.27a7.64,7.64,0,0,0-10.26,2.7Z" transform="translate(-40.79 -7.41)"/></g><g class="cls-3"><path class="cls-4" d="M169.2,251.66a22.16,22.16,0,0,0,5.66,8.54,25.47,25.47,0,0,0,9.07,5.21,22.67,22.67,0,0,0,18.74-2.08H195.1c7.63,3.69,16.55,4.65,24.61,1.72a8.07,8.07,0,0,0,4.49-3.45,7.63,7.63,0,0,0,.75-5.78c-1.17-3.61-5.28-6.67-9.22-5.24a25.14,25.14,0,0,1-4.9,1.24l2-.26a26.06,26.06,0,0,1-6.72,0l2,.27a25.18,25.18,0,0,1-6.08-1.68l1.8.76a19.77,19.77,0,0,0-2.94-1.29,8,8,0,0,0-5.78.76c-.64.35-1.25.72-1.92,1l1.79-.75a15.54,15.54,0,0,1-3.85,1l2-.26a17.35,17.35,0,0,1-4,0l2,.27a18.52,18.52,0,0,1-4.5-1.22l1.79.76a17.33,17.33,0,0,1-2.34-1.22c-.16-.1-1-.8-1.15-.79.08,0,1.5,1.25.8.6-.19-.18-.39-.34-.58-.51s-.58-.58-.86-.88c-.08-.09-.42-.58-.5-.59.08,0,1.14,1.6.62.78a18.57,18.57,0,0,1-1.35-2.43l.75,1.8-.12-.29a8.21,8.21,0,0,0-3.44-4.49A7.51,7.51,0,0,0,170,245.88c-.88,1.66-1.51,4-.76,5.78Z" transform="translate(-40.79 -7.41)"/></g><g class="cls-3"><path class="cls-4" d="M167.13,235.91c.66-.31,1.33-.61,2-.89l-1.8.76a57,57,0,0,1,14.27-3.86l-2,.27a58,58,0,0,1,14.78,0l-2-.27a58.24,58.24,0,0,1,6,1.15c3,.75,7-.45,8.47-3.45.29-.59.69-1.12,1-1.7-1,1.84-.82,1-.34.5q.39-.42.81-.81c.23-.22,1.25-1,.13-.15s-.08.1.19-.07a14.3,14.3,0,0,1,1.9-1l-1.79.75a14.63,14.63,0,0,1,3.5-1l-2,.27a13.84,13.84,0,0,1,3.28,0l-2-.27a12.87,12.87,0,0,1,2.86.77c1.68.68,4.28.12,5.78-.75A7.51,7.51,0,0,0,222.88,216a8.74,8.74,0,0,0-4.48-3.45c-8.83-3.56-20.31,1.1-24.5,9.54l8.47-3.45A64.69,64.69,0,0,0,159.56,223a7.51,7.51,0,0,0,1.79,13.71,8.53,8.53,0,0,0,5.78-.75Z" transform="translate(-40.79 -7.41)"/></g><g class="cls-3"><path class="cls-4" d="M252.94,270.82a25,25,0,0,0-5.71,20.79,27.93,27.93,0,0,0,2.34,6.78l-.76-1.79a10.68,10.68,0,0,1,.67,2l-.27-2a5.39,5.39,0,0,1,0,1.27l.27-2a5.68,5.68,0,0,1-.35,1.13l.76-1.8a57,57,0,0,0-2.47,5.24,20.19,20.19,0,0,0-1,5.28,20.43,20.43,0,0,0,1.34,9c2.6,6.68,7.73,12.29,14.88,14.07,3.8.95,8.31-1.22,9.22-5.23s-1.16-8.21-5.24-9.23a14.92,14.92,0,0,1-2-.68l1.79.75c-.8-.36-1.5-.85-2.26-1.28s1.36,1.15.78.62l-.47-.39c-.34-.31-.67-.63-1-1-.15-.16-.61-.9-.8-.93.08,0,1.13,1.58.61.77-.11-.18-.23-.34-.34-.52a16.15,16.15,0,0,1-1.3-2.47l.75,1.79a17.24,17.24,0,0,1-1.13-4.18l.27,2a15.54,15.54,0,0,1,0-3.67l-.26,2a13.6,13.6,0,0,1,.88-3.25l-.76,1.79c1-2.28,2.39-4.23,2.73-6.78.46-3.46-.77-6.2-2.11-9.3l.76,1.79a17.69,17.69,0,0,1-1.08-4l.27,2a18.74,18.74,0,0,1,0-4.49l-.27,2a19.07,19.07,0,0,1,1.28-4.69l-.76,1.79a18.88,18.88,0,0,1,1-2c.19-.32.41-.63.61-.94.71-1.09-1.14,1.4-.25.33a8,8,0,0,0,2.2-5.3,7.61,7.61,0,0,0-2.2-5.3c-2.78-2.55-7.91-3.21-10.61,0Z" transform="translate(-40.79 -7.41)"/></g><g class="cls-3"><path class="cls-4" d="M252.9,230.14c.45-.09.91-.17,1.36-.23l-2,.27a19.86,19.86,0,0,1,4.75,0l-2-.27a21.89,21.89,0,0,1,5.55,1.53l-1.79-.76a25,25,0,0,1,3.9,2.14c.29.19.56.41.85.6-1.94-1.31-.89-.7-.44-.32a21.53,21.53,0,0,1,1.66,1.51c.53.52,1,1.08,1.51,1.65s.89,1.49-.32-.44c.18.29.4.56.6.84a23.32,23.32,0,0,1,2.11,3.9l-.76-1.79a21.47,21.47,0,0,1,1.42,5.22l-.27-2a20,20,0,0,1,0,4.44,7.45,7.45,0,0,0,2.19,5.3,7.5,7.5,0,0,0,10.61,0,8.59,8.59,0,0,0,2.2-5.3c.94-8.6-3.27-17.57-9.58-23.27-7-6.36-16.19-9.37-25.58-7.51-3.85.77-6.42,5.57-5.23,9.23a7.68,7.68,0,0,0,9.22,5.24Z" transform="translate(-40.79 -7.41)"/></g><g class="cls-3"><path class="cls-4" d="M159.64,226.1l13.85-10.87a7.44,7.44,0,0,0,2.19-5.31,7.72,7.72,0,0,0-1.61-4.54,7.16,7.16,0,0,0-3.89-2.69,8.66,8.66,0,0,0-5.78.76A40.14,40.14,0,0,0,151,213.09a49.6,49.6,0,0,0-9.42,15.85A90.39,90.39,0,0,0,137.55,244c-1.26,6.33-3.14,13.38-.8,19.68a16.19,16.19,0,0,0,7.36,8.79,13.8,13.8,0,0,0,13,.21l-10.26-10.27c-4.44,7.56-.49,17.48,6.92,21.48a28.79,28.79,0,0,0,12.2,3c3.19.18,6.39.05,9.57.46l-2-.26a19.89,19.89,0,0,1,4.62,1.2l-1.79-.76a18.15,18.15,0,0,1,2.09,1.11c1.06.66-1.06-.93-.41-.33l.74.66a23.21,23.21,0,0,0,4.73,3.7,12.4,12.4,0,0,0,7.51,1.35,10.79,10.79,0,0,0,7.56-4.83,7.58,7.58,0,0,0,.76-5.78A7.67,7.67,0,0,0,195.9,279a7.54,7.54,0,0,0-5.78-.75,8.55,8.55,0,0,0-4.48,3.44,3.76,3.76,0,0,1,1.28-1.43q.93-.64.24-.27l1.79-.75a4.71,4.71,0,0,1-.91.25l2-.27a5.74,5.74,0,0,1-1.31,0l2,.27a7,7,0,0,1-1.28-.38l1.79.76-.63-.34c-1-.51.57.49.56.49-.23,0-1-.87-1.19-1a34,34,0,0,0-3.78-3.09,19.87,19.87,0,0,0-7.47-3c-5.09-1-10.22-.53-15.33-1.17l2,.27a19.35,19.35,0,0,1-4.9-1.28l1.8.75a19.1,19.1,0,0,1-1.73-.92c-1-.58,1.19,1,.56.45-.21-.2-.43-.39-.63-.59l-.47-.52c-.87-.94.8,1.21.44.56s-.64-1.07-.91-1.66l.76,1.79a9.65,9.65,0,0,1-.61-2.24l.27,2a7.88,7.88,0,0,1,0-1.61l-.27,2a7.6,7.6,0,0,1,.4-1.56l-.76,1.79c.14-.31.29-.59.46-.89a7.59,7.59,0,0,0-1.17-9.08,7.84,7.84,0,0,0-9.09-1.18l-.3.15,1.79-.76a5.86,5.86,0,0,1-1.54.42l2-.27a7.69,7.69,0,0,1-1.27,0l2,.26a7.59,7.59,0,0,1-1.86-.53l1.79.76a13.37,13.37,0,0,1-1.17-.65c-.61-.43-.38-.24.71.56-.18-.15-.34-.3-.51-.46s-.31-.33-.46-.5c.8,1.08,1,1.32.55.7-.23-.39-.46-.76-.66-1.18l.76,1.79a13,13,0,0,1-.81-2.88l.27,2a21.53,21.53,0,0,1,.07-5.38l-.27,2c.58-4.2,1.47-8.39,2.42-12.52a73.34,73.34,0,0,1,3.68-11.86l-.75,1.79a42.45,42.45,0,0,1,3.16-6.1c.3-.48.6-.94.92-1.4l.49-.68c.16-.21.78-1,0-.05s.33-.37.56-.64c.39-.45.8-.9,1.22-1.33.74-.77,1.52-1.51,2.33-2.21a6.29,6.29,0,0,1,1.24-1c-.17.08-1.39,1-.55.44l.65-.46a35.42,35.42,0,0,1,6-3.32l-9.09-11.78L149,215.49c-1.41,1.11-2.2,3.61-2.2,5.31a7.51,7.51,0,0,0,7.5,7.5,8.81,8.81,0,0,0,5.31-2.2Z" transform="translate(-40.79 -7.41)"/></g><g class="cls-3"><path class="cls-4" d="M174.68,247.88a11.22,11.22,0,0,0-1.11,9.76,16.36,16.36,0,0,0,6.43,7.95c4.59,3.14,10.08,2.48,15.3,3.15l-2-.27a14.22,14.22,0,0,1,3.16.8l-1.79-.76c.37.16.72.34,1.07.53a7.82,7.82,0,0,0,5.78.75,7.59,7.59,0,0,0,4.48-3.44c1.86-3.52,1-8.24-2.69-10.26a22,22,0,0,0-9.06-2.47c-2.09-.19-4.19-.16-6.27-.44l2,.27a10.6,10.6,0,0,1-2.6-.68l1.79.75a10.51,10.51,0,0,1-2-1.19l1.51,1.17a10.41,10.41,0,0,1-1.64-1.61l1.17,1.52a8.49,8.49,0,0,1-.87-1.44l.76,1.79a6,6,0,0,1-.38-1.3l.27,2a5,5,0,0,1,0-1.09l-.27,2a4.37,4.37,0,0,1,.23-.86l-.76,1.79a5.63,5.63,0,0,1,.46-.83,7.5,7.5,0,0,0-12.95-7.57Z" transform="translate(-40.79 -7.41)"/></g><g class="cls-3"><path class="cls-4" d="M171.5,236.34a28.23,28.23,0,0,1,4.46-2.41l-1.79.76a29.52,29.52,0,0,1,7.14-1.95l-2,.27a30,30,0,0,1,7.8,0l-2-.27a28.84,28.84,0,0,1,7.14,1.95l-1.79-.76c.48.21.95.43,1.42.66a8,8,0,0,0,5.78.75,7.6,7.6,0,0,0,4.48-3.45c1.79-3.37,1.07-8.42-2.69-10.26-11.2-5.48-25-5.17-35.54,1.78-3.27,2.16-5,6.73-2.69,10.26,2.11,3.27,6.76,5,10.27,2.7Z" transform="translate(-40.79 -7.41)"/></g><g class="cls-3"><path class="cls-4" d="M194.42,221.55a23.5,23.5,0,0,1,3.93-2.17l-1.8.76a24,24,0,0,1,5.87-1.59l-2,.27a23.35,23.35,0,0,1,6.08,0l-2-.27a23.33,23.33,0,0,1,4,1,7.51,7.51,0,1,0,4-14.47,29.76,29.76,0,0,0-25.7,3.52,8.07,8.07,0,0,0-3.45,4.48,7.67,7.67,0,0,0,.76,5.78,7.59,7.59,0,0,0,4.48,3.45,7.43,7.43,0,0,0,5.78-.76Z" transform="translate(-40.79 -7.41)"/></g><g class="cls-3"><path class="cls-4" d="M257,230.06l.4-.07-2,.27a14.54,14.54,0,0,1,3.55,0l-2-.27a18.84,18.84,0,0,1,4.54,1.29l-1.79-.75a30.4,30.4,0,0,1,5.32,3.1l1,.76c-1.93-1.4-.27-.2.13.13.76.62,1.49,1.26,2.22,1.91a39.68,39.68,0,0,1,3.91,3.87l.51.61c.48.6.33.41-.44-.58a10.33,10.33,0,0,0,.67,1,17.92,17.92,0,0,1,1.43,2.66l-.76-1.79a11,11,0,0,1,.74,2.7l-.27-2a9.32,9.32,0,0,1,0,1.67l.27-2a7.82,7.82,0,0,1-.42,1.63l.76-1.79c-.15.34-1,1.55-.08.46a3.76,3.76,0,0,1,1.43-1.25,2.22,2.22,0,0,1-.55.29l1.79-.76-.28.09,2-.27a1.19,1.19,0,0,1-.53,0l2,.27-.23-.08,3.31,1.93.82,1.13c-2.14-3.28-6.73-5-10.26-2.69-3.27,2.11-5,6.75-2.69,10.26a8.82,8.82,0,0,0,5.06,3.92,9.36,9.36,0,0,0,6.87-1,12,12,0,0,0,5.23-7c1.4-4.52,0-9.55-2.37-13.47a38.82,38.82,0,0,0-7.61-8.66,52.29,52.29,0,0,0-9.77-7.18,26.6,26.6,0,0,0-6.82-2.65,24.17,24.17,0,0,0-9.09-.12,7.46,7.46,0,0,0-4.48,3.45,7.49,7.49,0,0,0,2.69,10.26,8.72,8.72,0,0,0,5.78.76Z" transform="translate(-40.79 -7.41)"/></g><g class="cls-3"><path class="cls-4" d="M254.47,272.57A14.91,14.91,0,0,0,244,290.05a14.72,14.72,0,0,0,6.3,8.69c3.3,2.29,7.18,2.61,11,2l-9.5-7.24a7.25,7.25,0,0,1,0,.93l.26-2a5.55,5.55,0,0,1-.34,1.14l.76-1.79c-.13.28-.27.54-.42.8-.39.63-1,.93.44-.51-.46.46-.87,1-1.33,1.45a40.5,40.5,0,0,0-3.44,4c-2.78,3.68-3.21,8.41-2.35,12.8,1.57,7.93,8.51,12.81,15.07,16.51,3.42,1.93,8.35.93,10.27-2.69A7.63,7.63,0,0,0,268,313.88c-1-.57-2-1.14-3-1.74-.52-.32-1-.65-1.54-1l-.67-.46c-1.05-.72,1.08.9.39.32a26.2,26.2,0,0,1-2.47-2.36c-.78-.83.47.57.43.59a7.57,7.57,0,0,1-.43-.63,12.46,12.46,0,0,1-.9-1.69l.75,1.79a13.62,13.62,0,0,1-.84-2.93l.27,2a10.36,10.36,0,0,1,0-2.61l-.27,2a9.25,9.25,0,0,1,.47-1.79l-.76,1.79a12.87,12.87,0,0,1,.84-1.55c.61-1-1.08,1.21-.47.62.2-.19.37-.42.56-.62.71-.78,1.48-1.5,2.19-2.28,2.51-2.77,4.32-5.95,4.28-9.79a7.39,7.39,0,0,0-3-5.89c-2-1.57-4.07-1.71-6.54-1.34l-.34.05,2-.27a7.17,7.17,0,0,1-1.67,0l2,.27a8.2,8.2,0,0,1-1.93-.56l1.79.76c-.13-.06-1.19-.52-1.17-.65,0,.06,1.63,1.45.47.32-.66-.65-.37-.93.3.5-.19-.4-.47-.76-.66-1.17l.75,1.8a7.61,7.61,0,0,1-.47-1.61l.27,2a7.77,7.77,0,0,1,0-1.67l-.26,2a8.27,8.27,0,0,1,.5-1.94l-.75,1.79c.18-.42.4-.79.62-1.19.61-1.13-1.33,1.47-.23.33a4.08,4.08,0,0,1,.36-.36c.57-.48.33-.3-.73.56.4-.16.78-.46,1.18-.64l-1.8.76c.32-.12.63-.22,1-.31,3.8-1,6.48-5.4,5.24-9.23a7.64,7.64,0,0,0-9.22-5.24Z" transform="translate(-40.79 -7.41)"/></g><g class="cls-3"><path class="cls-4" d="M219.75,209.73a15.37,15.37,0,0,1,1.93-.41l-2,.27a14.3,14.3,0,0,1,3.58,0l-2-.27a16.58,16.58,0,0,1,4.09,1.14l-1.79-.75A16.3,16.3,0,0,1,226,211c.18.12.36.26.54.37.71.41-1.32-1.12-.72-.57.36.33.75.64,1.1,1s.62.63.91,1c0,.06.43.43.42.5s-1.14-1.61-.59-.73a20.08,20.08,0,0,1,1.41,2.57l-.76-1.79a14,14,0,0,1,.88,3.16,7,7,0,0,0,1.92,3.31,7.46,7.46,0,0,0,4.31,2.06c2.74.37,6.21-.9,7.47-3.58.15-.31.65-.89.68-1.2,0,.18-1.4,1.57-.58.77.16-.15.31-.32.47-.48l.41-.35c-1.6,1.55-1.3.95-.75.62a14,14,0,0,1,1.32-.71l-1.79.76a11.19,11.19,0,0,1,2.66-.74l-2,.26a11.46,11.46,0,0,1,3,0l-2-.27a10.83,10.83,0,0,1,2.37.66l-1.79-.76c.33.15.65.31,1,.49s1.34.95.13,0-.19-.11.05.14c1.15,1.21-1-1.41-.32-.43,2.19,3.25,6.71,5,10.26,2.69,3.24-2.09,5-6.78,2.69-10.26A16.36,16.36,0,0,0,244,202.14c-5.66.43-11.53,3.18-14.06,8.57l13.71,1.79c-.93-6-5.19-11.28-10.22-14.5a22.16,22.16,0,0,0-17.71-2.73c-3.77,1.08-6.5,5.35-5.24,9.23a7.62,7.62,0,0,0,9.23,5.23Z" transform="translate(-40.79 -7.41)"/></g><g class="cls-3"><path class="cls-4" d="M368,167.15a166.17,166.17,0,0,0,16.75,2.78,110.26,110.26,0,0,0,13.83.92c9.28-.09,19-2.65,24.17-11a7.5,7.5,0,0,0-2.69-10.26,7.4,7.4,0,0,0-3.78-1,140.33,140.33,0,0,0-28.09-.9,7.94,7.94,0,0,0-5.3,2.2,7.63,7.63,0,0,0-2.2,5.3c.17,3.84,3.31,7.79,7.5,7.5a140.33,140.33,0,0,1,28.09.9l-6.48-11.29c-.17.28-.4.55-.56.84.91-1.65.87-1.07.35-.49-.14.15-1.3,1.42-1.42,1.33s1.82-1.29.47-.4l-.83.51a19.43,19.43,0,0,1-1.78.86l1.79-.75a25.8,25.8,0,0,1-6.3,1.6l2-.26c-7,.86-14.23,0-21.16-.9l2,.27q-6.22-.85-12.35-2.21c-3.82-.85-8.3,1.15-9.23,5.24-.86,3.8,1.14,8.32,5.24,9.22Z" transform="translate(-40.79 -7.41)"/></g><g class="cls-3"><path class="cls-4" d="M227.76,427.83a24.75,24.75,0,0,0,7.85-9.06,25.11,25.11,0,0,0,2.61-11.83l-12.8,5.31C238.71,427.32,260.08,429.94,279,429c5.14-.25,10.27-.75,15.38-1.34a8.19,8.19,0,0,0,5.31-2.2,7.58,7.58,0,0,0,2.19-5.3c-.17-3.86-3.3-7.75-7.5-7.5l-32.26,1.94-15.88,1c-5.16.31-10.52.33-15.57,1.57a21,21,0,0,0-13.25,9.64c-2.56,4.36-3.41,9.39-3.82,14.36-.39,4.77-.36,9.6-.49,14.38l-.43,16.21-.87,32.18c-.27,10.2-.75,20.47,1.37,30.53a46.92,46.92,0,0,0,5.65,14.42c2.32,3.87,5.16,7.38,7.69,11.1a48.57,48.57,0,0,1,3.54,6c.93,1.92,1.64,3.94,2.68,5.8a18.41,18.41,0,0,0,6.52,6.8,27.41,27.41,0,0,0,7.38,2.82,234,234,0,0,0,63.13,7.09c2.57-.06,5.15-.16,7.72-.31,3.91-.22,7.69-3.29,7.5-7.5-.18-3.87-3.31-7.74-7.5-7.5a231,231,0,0,1-43.83-1.69l2,.27q-7.53-1-15-2.54c-4.6-.93-9.48-1.73-13.85-3.47l1.79.75c-.74-.31-1.4-.7-2.11-1.08q-.71-.5.12.12t.15.09c-.26-.27-.53-.6-.81-.85,1.25,1.11.7,1,.24.27-.21-.33-.41-.67-.59-1-.38-.7-.72-1.42-1-2.14a56.51,56.51,0,0,0-4.5-8.58c-3.69-5.61-8.15-10.7-10.81-16.92l.75,1.79A48,48,0,0,1,227,526.35l.27,2a110.37,110.37,0,0,1-.61-16.36c.13-6,.32-12,.48-18.06l1-36.41c.17-6.18,0-12.47.77-18.6l-.27,2a26.14,26.14,0,0,1,1.7-6.64l-.75,1.79a16.61,16.61,0,0,1,1-2c.38-.6,1.28-1.37-.27.24.24-.25.44-.54.68-.79s.5-.49.76-.74c1-.91-1.45.94-.33.24a20.1,20.1,0,0,1,2.42-1.3l-1.79.75a23.6,23.6,0,0,1,5.41-1.37l-2,.27c4.55-.59,9.2-.69,13.78-1l15.14-.91,30-1.81v-15c-11.54,1.33-23.29,2.27-34.87.73l2,.27A58.38,58.38,0,0,1,247,409.84l1.8.76a41,41,0,0,1-7.5-4.1c-.58-.4-2.44-2-.42-.26-.53-.45-1.07-.88-1.59-1.34a38.1,38.1,0,0,1-3.22-3.26c-2-2.24-5.6-2.65-8.2-1.55a7.45,7.45,0,0,0-4.61,6.85,17.64,17.64,0,0,1-.12,3.08l.27-2a18.87,18.87,0,0,1-1.23,4.44l.75-1.79a18.47,18.47,0,0,1-.85,1.73q-.28.5-.6,1c-.17.25-.89,1.21-.09.18s0,0-.14.14-.43.47-.65.7c-.44.44-2.38,2-.37.47a8.29,8.29,0,0,0-3.45,4.48,7.67,7.67,0,0,0,.76,5.78,7.59,7.59,0,0,0,4.48,3.45c1.83.42,4.21.43,5.78-.76Z" transform="translate(-40.79 -7.41)"/></g><g class="cls-3"><path class="cls-4" d="M351.8,543.33q5.06-43.43,6.4-87.18.39-12.4.47-24.82c0-3.92-3.47-7.68-7.5-7.5a7.64,7.64,0,0,0-7.5,7.5q-.32,43.85-4.32,87.54-1.12,12.25-2.55,24.46c-.21,1.78,1,4.1,2.2,5.31a7.51,7.51,0,0,0,10.6,0,8.7,8.7,0,0,0,2.2-5.31Z" transform="translate(-40.79 -7.41)"/></g><g class="cls-3"><path class="cls-4" d="M278.48,397.79c-3.52-4.48-9-7-14.27-8.76-4.4-1.44-9-2.28-13.25-4.07l1.79.75a28.56,28.56,0,0,1-2.89-1.41c-.51-.28-1-.59-1.5-.91l-.57-.4c-1-.67,1.22,1,.56.44a24.13,24.13,0,0,1-2.16-2.13c-.56-.63,1,1.43.57.72-.15-.24-.31-.46-.46-.7a13.24,13.24,0,0,1-.77-1.5l.76,1.8a10.49,10.49,0,0,1-.71-2.44l.27,2a6.3,6.3,0,0,1,0-1.15l-.27,2a2.94,2.94,0,0,1,.19-.72l-.76,1.79c.36-.68.18-.47-.54.61-1.08.76-1.28,1-.61.6l-1.79.75a28,28,0,0,1,4.45-1.05l5.11-1,10-2,20.18-4.1a7.56,7.56,0,0,0,5.51-7.24,8.93,8.93,0,0,0-1-3.78,7.46,7.46,0,0,0-4.48-3.45,102.09,102.09,0,0,0-16-1.63,39.08,39.08,0,0,0-16.73,3.66,7.53,7.53,0,0,0-3.45,4.48,7.81,7.81,0,0,0,.38,4.89c1.52,3.59,5.12,5.05,8.85,4.34,2.6-.5,5.21-.92,7.83-1.28l-2,.27a140.13,140.13,0,0,1,36.77,0l-2-.27c4.39.59,8.76,1.38,13.08,2.39a76.88,76.88,0,0,1,11.93,3.47l-1.79-.76c.49.22,1,.44,1.45.7.7.39,1.73,1.47.08-.11.21.2.73.86,1,.94-.24-.08-1.14-1.67-.49-.57a7.6,7.6,0,0,1,.37.76l-.75-1.79a6.79,6.79,0,0,1,.36,1.41l-.26-2a8,8,0,0,1,0,1.47l.27-2a8.43,8.43,0,0,1-.47,1.79l.75-1.79a14.38,14.38,0,0,1-.8,1.5c-.41.75,1.24-1.3.36-.46-.23.22-.47.44-.67.67-.54.6,1.32-.88.59-.44-.29.17-.57.37-.86.55a17.17,17.17,0,0,1-1.83.89l1.79-.76a47.89,47.89,0,0,1-8.43,2.18c-3.15.63-6.32,1.15-9.5,1.59l2-.27a159.28,159.28,0,0,1-27.87,1.26c-3.87-.17-7.74,3.57-7.5,7.5a13,13,0,0,0,3.88,8.92,18.7,18.7,0,0,0,7.46,4.12c4.51,1.36,9.46,1.26,14.13,1.36,9.81.22,20-.15,29.41-3.11a49.24,49.24,0,0,0,16.32-8.77,6.81,6.81,0,0,0,2.06-4.31,7.15,7.15,0,0,0-.89-4.78,8.85,8.85,0,0,0-2.69-2.69c-1.79-1.16-3.78-1-5.78-.75l-.92.12,2-.26a100.55,100.55,0,0,1-25.94,0l2,.26a86.86,86.86,0,0,1-21.07-5.25l1.8.75a22,22,0,0,1-3.52-1.8c-.22-.14-.42-.31-.65-.44,1.63.93.94.75.46.32a12.75,12.75,0,0,1-1.47-1.56V387.7c-.15.11-1.47,1-.62.5.27-.16.52-.34.79-.5a14.21,14.21,0,0,1,1.52-.74l-1.8.75a16,16,0,0,1,3.26-.88l-2,.27a15.1,15.1,0,0,1,3.74,0l-2-.27a14.57,14.57,0,0,1,3.24.9l-1.79-.76.34.16,1.79-13.71a75.42,75.42,0,0,1-15.88,3.92l2-.26a76.37,76.37,0,0,1-20,0l2,.27c-4.59-.64-9.14-2.18-13.8-1.39a12,12,0,0,0-6.52,3.51c-1.94,2-3.46,5.2-3.08,8.06l.27-2-.09.23.76-1.79a4.63,4.63,0,0,1,1.52-1.62c.68-.46.81-.58.4-.38l1.8-.76a2.13,2.13,0,0,1-.42.1l2-.27a1.7,1.7,0,0,1-.45,0l2,.27a4.26,4.26,0,0,1-.93-.25l1.8.76c-.71-.35-.76-.75.68.63-.77-.74,1.12,1.72.6.74l.75,1.79a1.77,1.77,0,0,1-.15-.46l.27,2a3.86,3.86,0,0,1,0-1l-.26,2a5.84,5.84,0,0,1,.29-1l-.75,1.79c.13-.27.29-.51.44-.78.32-.59-1.3,1.37-.35.52l.55-.52c.9-.85-1.2.85-.48.35,1-.71,2.06-1.43,3.13-2.08a52.26,52.26,0,0,1,6.63-3.37l-1.79.76A64.19,64.19,0,0,1,270.12,379l-2,.27c13.61-1.78,27.38-.24,40.9,1.51,1.77.23,4.11-1,5.31-2.19a7.52,7.52,0,0,0,0-10.61,8.82,8.82,0,0,0-5.31-2.2c-12.28-1.59-24.74-3-37.13-1.92a75.43,75.43,0,0,0-19.1,3.85,62.68,62.68,0,0,0-9.61,4.31c-3.14,1.77-6.46,3.84-8.68,6.71a11.39,11.39,0,0,0-2.67,7.74,10,10,0,0,0,5,8.14,9.84,9.84,0,0,0,9.58.26,9.23,9.23,0,0,0,3.35-3.19c1.05-1.74,1-3.29,1.21-5.19l-.27,2a3.26,3.26,0,0,1,.18-.63l-.76,1.79a4.68,4.68,0,0,1,.3-.59c-.86,1-1,1.28-.52.73-1.69,1.5-.76.54-.07.22l-1.79.75a7.29,7.29,0,0,1,1.53-.38l-2,.27a11.75,11.75,0,0,1,2.22.05l-2-.27c4.27.61,8.44,1.57,12.76,2a74,74,0,0,0,11.14.2,82,82,0,0,0,23.54-4.73,7.62,7.62,0,0,0,5.37-6.23c.37-2.7-.88-6.27-3.58-7.48A20.82,20.82,0,0,0,286,372.1a23.22,23.22,0,0,0-7,1.91,21.12,21.12,0,0,0-4.73,3.08,7.44,7.44,0,0,0-2.2,5.3,8.65,8.65,0,0,0,2.2,5.31c2.78,3.44,6.89,5.41,10.93,6.95a84.52,84.52,0,0,0,11,3.24,107.68,107.68,0,0,0,25,2.76,113.47,113.47,0,0,0,14.95-1.25l-7.3-12.54c-1.1.89,1.53-1.12.13-.1l-.95.68c-.68.47-1.39.91-2.11,1.34a40.78,40.78,0,0,1-4.43,2.23l1.79-.76a54.63,54.63,0,0,1-13.81,3.62l2-.27a103.21,103.21,0,0,1-13.72.8,101,101,0,0,1-13-.48l2,.27A19.76,19.76,0,0,1,282.1,393l1.8.75a8.92,8.92,0,0,1-1.08-.52c-.35-.19-1.63-1.12-.43-.2s.16,0-.13-.26.82,1.35.7.87a3.61,3.61,0,0,0-.31-.58l.76,1.79a5.6,5.6,0,0,1-.38-1.31l.26,2c0-.19,0-.39-.05-.58l-7.5,7.5a168.08,168.08,0,0,0,31.3-1.73A108.47,108.47,0,0,0,321.21,398a22.72,22.72,0,0,0,7.14-3.23,17.46,17.46,0,0,0,6.33-8.2,13,13,0,0,0-.27-9.54,15,15,0,0,0-5.94-6.85c-3.91-2.53-9-3.63-13.44-4.76a145.91,145.91,0,0,0-64.17-1.74l5.78,13.7,1.19-.53-1.8.76a29,29,0,0,1,7-1.82l-2,.27a57.31,57.31,0,0,1,14.39.44l-2-.27c1.45.2,2.9.41,4.34.64V362.35l-37.19,7.58a13.94,13.94,0,0,0-4.93,1.76A10.18,10.18,0,0,0,231,379a15.43,15.43,0,0,0,2.72,10.43c3.5,5.14,8.58,8.16,14.26,10.38,5,1.94,10.32,2.73,15.26,4.77l-1.79-.75a24.46,24.46,0,0,1,4.23,2.24c.58.4,1.05,1.11-.35-.31.25.26.56.47.82.71a18.4,18.4,0,0,1,1.74,1.9c1.1,1.41,3.6,2.2,5.3,2.2a7.51,7.51,0,0,0,7.5-7.5,8.76,8.76,0,0,0-2.2-5.3Z" transform="translate(-40.79 -7.41)"/></g><g class="cls-3"><path class="cls-4" d="M266.62,394.35l-15-7.93c-2.23-1.18-4.52-2.3-6.65-3.65-.23-.14-.46-.29-.68-.45s-1-.75-.07,0,0,0-.18-.18-.4-.36-.59-.55l-.55-.6c-.77-.82.51.51.46.59s-.81-1.47-.87-1.61l.76,1.8a9.93,9.93,0,0,1-.57-2.12l.27,2a8.93,8.93,0,0,1,0-1.79l-.27,2a7.44,7.44,0,0,1,.45-1.68L242.4,382c.15-.32.35-.6.52-.92q-1.18,1.44-.57.81l.41-.38c.1.19-1.77,1.16-.25.33.34-.18.69-.34,1.05-.5l-1.8.76a118.11,118.11,0,0,1,16.9-5.05,175.74,175.74,0,0,1,17.76-3.34l-2,.27c5.34-.72,10.72-1.2,16.11-1.42a90.3,90.3,0,0,1,14.8.3l-2-.27a32.45,32.45,0,0,1,7.88,2l-1.79-.76a22.84,22.84,0,0,1,3.23,1.65c.34.22,1.94,1.38.8.5s.26.27.51.53a12.38,12.38,0,0,1,.93,1c.17.19.92,1.14.06,0s-.25-.31-.09-.07a17.44,17.44,0,0,1,1.56,2.84l-.75-1.79a16.62,16.62,0,0,1,1.1,3.85l-.27-2a14.14,14.14,0,0,1,0,3.56l.26-2a11.54,11.54,0,0,1-.76,2.76l.76-1.79a15.7,15.7,0,0,1-.95,1.7c-.66,1.08,1.25-1.38.32-.43-.25.25-.49.5-.75.74-.56.52-1.32.57.44-.3-.31.15-.59.4-.88.57a14.28,14.28,0,0,1-1.88.93l1.79-.75a25,25,0,0,1-6,1.49l2-.26c-6.62.86-13.4.88-20.06,1.24L269,389c-3.61.2-6,2.25-7.23,5.51-1.64,4.23,1.11,8.87,4.74,11,2.41,1.39,5.1,1.75,7.79,2.14A104.85,104.85,0,0,0,290,408.83a100.27,100.27,0,0,0,29.77-4.64q3.38-1.08,6.68-2.41a36.16,36.16,0,0,0,7.44-3.51,16.74,16.74,0,0,0,6.09-7.09,10.5,10.5,0,0,0-2-11.49c-2.31-2.38-5.56-3.27-8.64-4.21-2.39-.74-4.8-1.4-7.23-2a152.25,152.25,0,0,0-16.28-3,137.9,137.9,0,0,0-34.15-.28,8.18,8.18,0,0,0-5.31,2.19,7.62,7.62,0,0,0-2.19,5.31,7.54,7.54,0,0,0,2.19,5.3c1.37,1.26,3.38,2.42,5.31,2.2a137.42,137.42,0,0,1,34.15.28l-2-.26q6.51.88,12.91,2.38a88.29,88.29,0,0,1,12.37,3.56l-1.79-.75c.7.32,1.13.87-.22-.4.95.89-1-1.54-.39-.47l-.76-1.79a3.84,3.84,0,0,1,.23.82l-.27-2a4,4,0,0,1,0,.85l.27-2a5.46,5.46,0,0,1-.25.85l.76-1.79c-.13.29-.3.56-.44.85-.3.44-.24.37.2-.21s.5-.65.14-.23c-.25.26-.49.52-.76.76-.69.63-1,.35.38-.26-.63.28-1.2.76-1.83,1.06-.8.38-1.62.73-2.44,1.08l1.79-.76a93.53,93.53,0,0,1-23.5,6.44l2-.27a94.1,94.1,0,0,1-24.81.06l2,.27a27.39,27.39,0,0,1-6.5-1.25l1.79.76a5.47,5.47,0,0,1-.87-.47l1,.79c-.52-.54-.3-.26.65.86l.76,1.79a1.45,1.45,0,0,1-.15-.5l.27,2V397l-.27,2a1.36,1.36,0,0,1,.16-.53L269,404l23.88-1.28,11.94-.65a64.57,64.57,0,0,0,10.66-1.21c7.24-1.6,14.21-6.68,15.71-14.33a23,23,0,0,0-6.59-20.66c-5.69-5.57-13.61-7.6-21.31-8.26a122.66,122.66,0,0,0-21.76.53,192.11,192.11,0,0,0-23.61,3.66q-5.57,1.25-11.06,2.84a69.24,69.24,0,0,0-11.57,4,13.63,13.63,0,0,0-5.68,5.4,14.37,14.37,0,0,0-1.34,9.57c.82,5,4.34,8.75,8.33,11.53,3.33,2.33,7.17,4,10.75,5.93l11.71,6.21c3.46,1.84,8.31,1,10.26-2.69,1.83-3.47,1-8.3-2.69-10.26Z" transform="translate(-40.79 -7.41)"/></g><g class="cls-3"><path class="cls-4" d="M273.11,376.33a7.16,7.16,0,0,1-1.39,0l2,.26a7.42,7.42,0,0,1-1.72-.46l1.8.76a7.52,7.52,0,0,1-1.63-.94l1.51,1.17a7.45,7.45,0,0,1-1.26-1.25l1.17,1.52a6.8,6.8,0,0,1-.85-1.45l.76,1.8,0-.1a7.72,7.72,0,0,0-9.23-5.23l-1.79.75a7.62,7.62,0,0,0-2.69,2.69l-.76,1.79a7.71,7.71,0,0,0,0,4,19.53,19.53,0,0,0,1.23,2.72,4.4,4.4,0,0,0,.3.45c.47.65,1,1.3,1.48,1.91a7.65,7.65,0,0,0,.81.8,20.54,20.54,0,0,0,2.36,1.78,7.37,7.37,0,0,0,1,.51,19.67,19.67,0,0,0,2.82,1.11,21.72,21.72,0,0,0,3,.44,6.76,6.76,0,0,0,1.19,0,7.72,7.72,0,0,0,7.5-7.5l-.27-2a7.5,7.5,0,0,0-1.93-3.31l-1.52-1.17a7.51,7.51,0,0,0-3.78-1Z" transform="translate(-40.79 -7.41)"/></g><g class="cls-3"><path class="cls-4" d="M287.61,389.68a15.52,15.52,0,0,1,2.67-2.64l-1.52,1.18a17,17,0,0,1,3.5-2l-1.79.76a17.36,17.36,0,0,1,4.18-1.13l-2,.27a16.07,16.07,0,0,1,4,0l-2-.27a9.64,9.64,0,0,1,2.43.62l-1.8-.76a8.09,8.09,0,0,1,1.64,1l-1.52-1.17a7.23,7.23,0,0,1,1.14,1.14l-1.17-1.52a6.41,6.41,0,0,1,.65,1.06l-.76-1.79a4.45,4.45,0,0,1,.26.88l-.27-2a3.52,3.52,0,0,1,0,.65l.27-2a2.91,2.91,0,0,1-.16.63l.75-1.79a3.61,3.61,0,0,1-.35.6l1.17-1.52-.17.19a7.93,7.93,0,0,0-2.19,5.3,7.6,7.6,0,0,0,2.19,5.3,7.53,7.53,0,0,0,5.31,2.2,7.45,7.45,0,0,0,5.3-2.2,10.37,10.37,0,0,0,2.6-9.37,12.24,12.24,0,0,0-3.17-5.65c-3-3.22-7.21-4.46-11.46-4.68a22.93,22.93,0,0,0-18.4,8.09,8.19,8.19,0,0,0-2.2,5.31,7.51,7.51,0,0,0,7.5,7.5c1.86-.09,4.1-.68,5.31-2.2Z" transform="translate(-40.79 -7.41)"/></g><g class="cls-3"><path class="cls-4" d="M303.32,375.78a22.79,22.79,0,0,0-19.86-2.62,7.62,7.62,0,0,0-5.37,6.24c-.42,3.14,1.07,5.67,3.58,7.47,9.12,6.51,22.67,6.57,31.94.33a7.59,7.59,0,0,0,3.58-7.47,7.51,7.51,0,0,0-5.37-6.23l-8.95-2.58c-3.77-1.09-8.34,1.32-9.23,5.24a7.64,7.64,0,0,0,5.24,9.22l8.95,2.58L306,374.25a21.43,21.43,0,0,1-3.52,1.92l1.79-.76a22.23,22.23,0,0,1-5.62,1.5l2-.27a23.69,23.69,0,0,1-5.83,0l2,.27a23.09,23.09,0,0,1-5.27-1.42l1.79.76a22,22,0,0,1-4.13-2.3l-1.79,13.71a16.6,16.6,0,0,1,3-.76l-2,.27a16.87,16.87,0,0,1,4.26,0l-2-.27a16.81,16.81,0,0,1,4.11,1.12l-1.79-.75a16.62,16.62,0,0,1,2.7,1.51c3.25,2.23,8.47.71,10.26-2.69a7.68,7.68,0,0,0-2.69-10.26Z" transform="translate(-40.79 -7.41)"/></g><g class="cls-3"><path class="cls-4" d="M306.94,373.88a30.85,30.85,0,0,0-19.16-.69,7.52,7.52,0,0,0-5.37,6.23,7.21,7.21,0,0,0,.51,3.89A8.27,8.27,0,0,0,286,386.9a26.19,26.19,0,0,0,26.45,1.93c2.33-1.08,3.71-4,3.71-6.48a7.54,7.54,0,0,0-3.71-6.47,53.85,53.85,0,0,0-9.32-4.61,21.62,21.62,0,0,0-11.41-.88c-7.2,1.35-13.07,7.67-13.25,15.06a7.5,7.5,0,0,0,15,0,8.86,8.86,0,0,1,.07-.9l-.27,2a7.66,7.66,0,0,1,.48-1.68l-.76,1.79a8.8,8.8,0,0,1,.89-1.51l-1.18,1.52a10.8,10.8,0,0,1,1.69-1.69l-1.52,1.18a12.49,12.49,0,0,1,2.4-1.39l-1.79.76a12.49,12.49,0,0,1,2.69-.75l-2,.27a13,13,0,0,1,3.12,0l-2-.27a20.46,20.46,0,0,1,5,1.39l-1.8-.76a55.59,55.59,0,0,1,6.42,3.42V375.88l-.64.28,1.79-.75a19.12,19.12,0,0,1-4.7,1.27l2-.27a19.92,19.92,0,0,1-4.88,0l2,.27a20.16,20.16,0,0,1-5-1.38l1.8.76a18.71,18.71,0,0,1-3.62-2.11l-1.79,13.71a25.85,25.85,0,0,1,3.58-.74l-2,.27a25.24,25.24,0,0,1,6.08,0l-2-.26a24.32,24.32,0,0,1,5.5,1.42,7.5,7.5,0,0,0,8.47-11,8.61,8.61,0,0,0-4.48-3.45Z" transform="translate(-40.79 -7.41)"/></g><g class="cls-3"><path class="cls-4" d="M304.56,376a24.68,24.68,0,0,0-22-.13c-2.33,1-3.71,4.07-3.71,6.48a7.72,7.72,0,0,0,3.71,6.48c9.58,6.46,23.16,4.8,31.43-3,3.55-3.35,2.52-9.38-1.52-11.78-3.59-2.14-7.46-4.38-11.63-5.06-4.57-.75-9.58-.44-13.54,2.25s-7,7.13-6.69,12.19,2.86,9.82,7.64,11.83a13,13,0,0,0,16.36-6.14c1.8-3.48,1-8.3-2.69-10.26-3.45-1.82-8.34-1-10.26,2.69a8.85,8.85,0,0,1-.69,1.1l1.17-1.52a7.81,7.81,0,0,1-1.15,1.15l1.52-1.17a8.31,8.31,0,0,1-1.38.81l1.79-.76a7.39,7.39,0,0,1-1.22.35l2-.27a6.64,6.64,0,0,1-1.26,0l2,.26a5.87,5.87,0,0,1-1.29-.35l1.8.75a4.56,4.56,0,0,1-.85-.51l1.51,1.18a6.65,6.65,0,0,1-.88-.88l1.18,1.52a7.19,7.19,0,0,1-.78-1.31l.76,1.79a7.79,7.79,0,0,1-.48-1.76l.27,2a7.55,7.55,0,0,1,0-1.84l-.27,2a6.51,6.51,0,0,1,.42-1.51l-.76,1.79a7.42,7.42,0,0,1,.72-1.21l-1.17,1.52a8.41,8.41,0,0,1,1.28-1.32l-1.51,1.18a9.64,9.64,0,0,1,2.13-1.24l-1.79.76a11.34,11.34,0,0,1,2.75-.7l-2,.26a13,13,0,0,1,2.86,0l-2-.27a18.33,18.33,0,0,1,4.43,1.23l-1.79-.75a49.28,49.28,0,0,1,5.92,3.14l-1.52-11.78c-.38.36-.78.7-1.18,1l1.51-1.17a17.92,17.92,0,0,1-4,2.35l1.79-.75a19.71,19.71,0,0,1-4.53,1.22l2-.27a20,20,0,0,1-5,0l2,.26a19.13,19.13,0,0,1-4.53-1.18l1.79.75a17.29,17.29,0,0,1-3-1.64v13l.34-.16-1.79.76a18.71,18.71,0,0,1,4.29-1.19l-2,.27a19,19,0,0,1,4.83,0l-2-.27a18.89,18.89,0,0,1,4.3,1.17l-1.79-.75c.23.09.45.2.68.3a8.07,8.07,0,0,0,5.78.76,7.67,7.67,0,0,0,4.48-3.45c1.75-3.3,1.11-8.5-2.69-10.26Z" transform="translate(-40.79 -7.41)"/></g><g class="cls-3"><path class="cls-4" d="M305.48,374.2c-3.26-2.41-7.05-4.37-11.23-4.23A12.36,12.36,0,0,0,283,378.45a10.57,10.57,0,0,0,5.61,12.66c3.87,1.82,8.3,2.46,12.52,2.83,7.57.67,18.31-.15,20.49-9.15,1.15-4.76-1.08-9.16-4.79-12a19.11,19.11,0,0,0-10.65-3.72,39.46,39.46,0,0,0-22.94,5.7c-2.71,1.65-4.51,5.31-3.45,8.47l1.33,3.95c1.25,3.71,5.22,6.54,9.23,5.24,3.69-1.19,6.58-5.24,5.24-9.23l-1.33-3.95-3.45,8.47a34.08,34.08,0,0,1,4.16-2.15l-1.79.75a33.8,33.8,0,0,1,8.61-2.34l-2,.27a31.26,31.26,0,0,1,7.55-.07l-2-.27a12.26,12.26,0,0,1,2.91.83l-1.79-.76c.41.19.81.39,1.2.62a6.65,6.65,0,0,1,.56.36c-1-.83-1.32-1.06-.88-.68.23.25.51.53.77.76-1.45-1.26-.83-1.21-.42-.31l-.75-1.8a4.42,4.42,0,0,1,.22.79l-.26-2a4.47,4.47,0,0,1,0,.82l.27-2a5,5,0,0,1-.21.85l.76-1.79a5.28,5.28,0,0,1-.28.58l.79-1c-.38.37-.29.32.28-.15,1.12-.84-.29.08-.67.25l1.79-.76a12.74,12.74,0,0,1-2.36.59l2-.27a39.54,39.54,0,0,1-10-.09l2,.26a30,30,0,0,1-6.88-1.6l1.79.76c-.31-.14-1.6-1-.47-.14a3.25,3.25,0,0,1,1.2,1.34,3.15,3.15,0,0,1-.28-.55l.76,1.8a2.37,2.37,0,0,1-.14-.57l.26,2a4.24,4.24,0,0,1,0-.87l-.27,2a5,5,0,0,1,.25-.86l-.75,1.79c.11-.23.28-.44.37-.67.27-.63-1.25,1.56-.45.66s-.69.69-.75.58a5.76,5.76,0,0,1,.86-.44L295,385a6.09,6.09,0,0,1,.93-.25l-2,.27a7.82,7.82,0,0,1,1.53,0l-2-.26a10,10,0,0,1,1.95.53l-1.79-.75a21.75,21.75,0,0,1,4.27,2.62,7.54,7.54,0,0,0,5.78.76,7.52,7.52,0,0,0,5.24-9.23,8.7,8.7,0,0,0-3.45-4.48Z" transform="translate(-40.79 -7.41)"/></g><g class="cls-3"><path class="cls-4" d="M301.14,373.41a35.75,35.75,0,0,0-8.13-3.15,18,18,0,0,0-5.22-.43,15.58,15.58,0,0,0-6,1.67,8,8,0,0,0-1,.62,21.36,21.36,0,0,0-2.35,1.89,13,13,0,0,0-2.5,3.43,13.42,13.42,0,0,0-1.49,5.65,12.58,12.58,0,0,0,.34,3,11.27,11.27,0,0,0,1.09,2.75,12.24,12.24,0,0,0,4.08,4.29,12.9,12.9,0,0,0,3.83,1.7,24.33,24.33,0,0,0,7.17.72,14.93,14.93,0,0,0,9-2.73,11,11,0,0,0,3.89-5.5,11.69,11.69,0,0,0,.13-5.93,11.87,11.87,0,0,0-2.42-4.85,11.57,11.57,0,0,0-4.26-3.56,18.75,18.75,0,0,0-6.64-1.73,24.7,24.7,0,0,0-3.75,0,7.9,7.9,0,0,0-5.31,2.2,7.5,7.5,0,0,0,5.31,12.8,24.12,24.12,0,0,1,4.25.07l-2-.26a9.9,9.9,0,0,1,2.14.55l-1.8-.76a7.12,7.12,0,0,1,1.38.76l-1.51-1.18a6.12,6.12,0,0,1,1,1l-1.17-1.52a6.26,6.26,0,0,1,.81,1.37l-.76-1.8a6.2,6.2,0,0,1,.31,1.12l-.27-2a4.66,4.66,0,0,1,0,1.12l.27-2a6.38,6.38,0,0,1-.19.72l.76-1.8a4.07,4.07,0,0,1-.48.84l1.17-1.52a4.09,4.09,0,0,1-.7.68l1.52-1.17a5.51,5.51,0,0,1-.85.49l1.8-.76a8,8,0,0,1-2,.52l2-.27a21.38,21.38,0,0,1-5.42,0l2,.27a10.14,10.14,0,0,1-2.36-.62l1.79.76a7.19,7.19,0,0,1-1.18-.67l1.52,1.17a5.24,5.24,0,0,1-.83-.8l1.17,1.51a4.82,4.82,0,0,1-.6-1l.76,1.79a4.71,4.71,0,0,1-.27-1.06l.27,2a4.35,4.35,0,0,1,0-1.08l-.27,2a6,6,0,0,1,.35-1.24l-.76,1.79a7.53,7.53,0,0,1,.89-1.49l-1.17,1.52a8.34,8.34,0,0,1,1.27-1.25l-1.52,1.18a7.66,7.66,0,0,1,1.54-.9L288,385a7.88,7.88,0,0,1,1.67-.43l-2,.27a11,11,0,0,1,2.69,0l-2-.27a19.12,19.12,0,0,1,4.48,1.35L291,385.2c.85.37,1.69.76,2.53,1.16a8,8,0,0,0,5.78.76,7.52,7.52,0,0,0,5.24-9.23,7.45,7.45,0,0,0-3.45-4.48Z" transform="translate(-40.79 -7.41)"/></g><g class="cls-3"><path class="cls-4" d="M312.34,379.56a17.91,17.91,0,0,0-11.66-8.49,20.65,20.65,0,0,0-8.25-.08,14.69,14.69,0,0,0-6.11,2.62,7.46,7.46,0,0,0-2.69,2.69,5.51,5.51,0,0,0-.89,2.79c-.29,2.15.26,4.85,2.06,6.3a25.23,25.23,0,0,0,18.71,5.93,25.64,25.64,0,0,0,7.92-2.14,11.81,11.81,0,0,0,6.25-7.2,11.93,11.93,0,0,0-1.05-8.78,13.79,13.79,0,0,0-12.43-7.37c-5.95.31-10.49,3.61-14.78,7.44-2.94,2.62-2.87,8,0,10.61a7.69,7.69,0,0,0,10.61,0c.89-.8,1.79-1.58,2.74-2.31l-1.52,1.17a18,18,0,0,1,3.56-2.16l-1.79.75a11,11,0,0,1,2.4-.69l-2,.27a7.52,7.52,0,0,1,2,0l-2-.27a7.53,7.53,0,0,1,1.21.34l-1.79-.76a8.39,8.39,0,0,1,1.54.88l-1.52-1.17a7.78,7.78,0,0,1,1.26,1.24L303,379.62a7.32,7.32,0,0,1,.76,1.25l-.76-1.79a5.25,5.25,0,0,1,.38,1.34l-.27-2a5.4,5.4,0,0,1,0,.9l.27-2a5.15,5.15,0,0,1-.22.88l.75-1.79a4.62,4.62,0,0,1-.47.84l1.17-1.52a5.17,5.17,0,0,1-.88.87l1.52-1.17a8.94,8.94,0,0,1-1.66.91l1.79-.76a17.59,17.59,0,0,1-3.85,1l2-.27a18.72,18.72,0,0,1-4.55,0l2,.27a19,19,0,0,1-4.69-1.25l1.79.75a17.91,17.91,0,0,1-3.68-2.11l1.51,1.17-.47-.38-1.52,11.78a10.5,10.5,0,0,1,2.1-1.23l-1.79.76a11.45,11.45,0,0,1,2.58-.7l-2,.27a12.53,12.53,0,0,1,3.18,0l-2-.27a12.85,12.85,0,0,1,2.84.77l-1.8-.75a11.47,11.47,0,0,1,2.54,1.46L298,385.71a10.7,10.7,0,0,1,1.72,1.71l-1.17-1.52a12.33,12.33,0,0,1,.8,1.23c1.94,3.42,6.9,4.86,10.27,2.69a7.66,7.66,0,0,0,2.69-10.26Z" transform="translate(-40.79 -7.41)"/></g><g class="cls-3"><path class="cls-4" d="M259.17,486.3a116.75,116.75,0,0,1,8.76-8.47c1.48-1.28,3-2.52,4.54-3.74.61-.48.44-.35-.52.4l.67-.51,1-.75c.84-.63,1.7-1.24,2.56-1.84a116.51,116.51,0,0,1,21.12-11.66l-1.79.76a22.41,22.41,0,0,1,4.86-1.75l-2,.27a3.28,3.28,0,0,1,.7,0l-2-.27a2.1,2.1,0,0,1,.65.14L296,458.1c.71.38.48.09-.7-.86-.94-1.17-1.23-1.41-.87-.74l-.76-1.79a2.3,2.3,0,0,1,.13.59l-.27-2a2.66,2.66,0,0,1,0,.63l.27-2a6,6,0,0,1-.39,1.31l.76-1.79a13.17,13.17,0,0,1-1.39,2.2l-.9,1.2c-.57.76,1-1.24.39-.5l-.66.84c-1.29,1.61-2.63,3.18-4,4.72-2.8,3.13-5.75,6.13-8.77,9.06-6.06,5.87-12.4,11.45-18.46,17.34-3.21,3.12-6.77,6.3-9.29,10-1.83,2.72-2.73,6.49-1.62,9.65a9.94,9.94,0,0,0,9.83,6.79c3.08-.13,5.74-1.44,8.43-2.83q2.88-1.47,5.67-3.09,5.7-3.27,11.06-7.09c4.35-3.1,8.52-6.43,12.56-9.92.88-.75,1.76-1.5,2.65-2.24l1.27-1c.19-.16.8-.63-.11.08s0,0,.22-.16a31.69,31.69,0,0,1,5.82-3.46l-1.79.76a18.81,18.81,0,0,1,4.4-1.28l-2,.27a16.19,16.19,0,0,1,3.48-.05L305.6,470a183.83,183.83,0,0,0-29,48.5q-2.85,7-5.07,14.29a7.49,7.49,0,0,0,2.69,7.88,7,7,0,0,0,3.55,1.48,8.33,8.33,0,0,0,4.78-.89A84.23,84.23,0,0,0,319,510.47c2.19-3.27.75-8.44-2.69-10.26a7.68,7.68,0,0,0-10.26,2.69c-.52.78-1,1.55-1.6,2.31-.27.38-.55.76-.83,1.13-1.06,1.41,1-1.2.08-.08q-1.62,2-3.36,4a76.37,76.37,0,0,1-8,7.62c-.49.42-2.91,2.21-.83.71-.76.55-1.49,1.12-2.26,1.67-1.47,1-3,2-4.51,3a78.12,78.12,0,0,1-9.8,5l11,8.47A172.16,172.16,0,0,1,292.1,520l-.76,1.79a174,174,0,0,1,11.34-22.17q3.21-5.28,6.78-10.32c1.17-1.65,2.37-3.27,3.6-4.88l-.38.49c.18-.23.35-.46.53-.68l.81-1c.72-.91,1.45-1.8,2.19-2.69,2-2.39,2.81-5.21,1.55-8.2s-3.79-4.3-6.85-4.61c-9.06-.9-16.83,4.92-23.32,10.45-1.45,1.23-2.87,2.49-4.34,3.7-.74.61-1.49,1.22-2.25,1.82l-.7.55c-.63.51.69-.53.64-.49-.46.37-.94.72-1.42,1.08-3.2,2.4-6.52,4.66-9.93,6.77a100.81,100.81,0,0,1-11.91,6.58l1.79-.75a9.23,9.23,0,0,1-2.05.59l2-.27a5.46,5.46,0,0,1-1,0l2,.26a2.61,2.61,0,0,1-.61-.16l1.79.75c-.46-.25-.38-.17.23.24a4,4,0,0,1,1.3,1.35l.75,1.79a2.47,2.47,0,0,1-.19-.6l.27,2a3.93,3.93,0,0,1,0-1l-.27,2a7.21,7.21,0,0,1,.31-1l-.76,1.79c0-.08.72-1.31.74-1.3s-1.07,1.27-.61.77c.17-.18.33-.38.5-.56.72-.79,1.46-1.57,2.2-2.34q2.24-2.32,4.54-4.56c3.07-3,6.23-5.92,9.38-8.84,6.29-5.81,12.6-11.62,18.3-18q2.13-2.39,4.12-4.89a40.09,40.09,0,0,0,4.49-6.12c1.78-3.49,2.25-7.46.12-10.94-2.42-4-7.43-5.21-11.7-3.89a70.39,70.39,0,0,0-7.14,2.93q-2.88,1.26-5.7,2.69a116.94,116.94,0,0,0-10.91,6.3,124.43,124.43,0,0,0-23,19.25c-2.68,2.87-3.06,7.81,0,10.61,2.9,2.67,7.74,3.07,10.6,0Z" transform="translate(-40.79 -7.41)"/></g></g><g id="Capa_6" data-name="Capa 6"><path class="cls-5" d="M340,333.45c.81-20.16,9.85-38.29,17.45-56.57A171.46,171.46,0,0,0,367,247.22a212.36,212.36,0,0,0,4.43-33.59,272.36,272.36,0,0,0-.84-38.64c-.15-1.59-2.65-1.6-2.5,0,2,22.76,1.65,45.84-2.82,68.3a166.84,166.84,0,0,1-9.11,30.23c-3.71,9.15-7.9,18.11-11.38,27.36-3.95,10.47-6.82,21.34-7.27,32.57-.07,1.61,2.43,1.61,2.5,0Z" transform="translate(-40.79 -7.41)"/><path class="cls-5" d="M419.51,268.21c-6.42-23.7-5.92-48.53-2.9-72.71.87-6.9,1.94-13.77,3.12-20.62.27-1.58-2.14-2.25-2.41-.67-4.19,24.35-7.14,49.28-4.19,73.95a144.15,144.15,0,0,0,4,20.71,1.25,1.25,0,0,0,2.41-.66Z" transform="translate(-40.79 -7.41)"/><path class="cls-5" d="M451.21,557.26c1.7-17,2.71-34.14,3.32-51.25s.82-34.24.93-51.36.22-34.3-.11-51.44-1.07-34.12-2.72-51.1c-1.5-15.41-8.48-29.29-15.41-42.88l-2.61-5.14c-.72-1.44-2.88-.18-2.16,1.26,6.83,13.61,14.55,27.19,17.11,42.4.68,4,.94,8.14,1.27,12.2q.51,6.41.88,12.81.74,12.62,1,25.24c.42,17,.37,34,.27,51s-.26,34-.78,51-1.38,33.91-2.9,50.81c-.19,2.14-.39,4.27-.61,6.41-.15,1.6,2.35,1.59,2.5,0Z" transform="translate(-40.79 -7.41)"/><path class="cls-5" d="M363.57,588.63c16.54,5.23,34.58,9.27,51.9,5.71a51.91,51.91,0,0,0,13.92-5c1.43-.75.17-2.91-1.26-2.15-15.44,8.16-33.77,6.72-50.22,2.83-4.61-1.09-9.17-2.4-13.68-3.82-1.54-.49-2.19,1.92-.66,2.41Z" transform="translate(-40.79 -7.41)"/><path class="cls-5" d="M169.19,260.36c4.34,8.9,16.52,11.46,24.95,7.15a15.53,15.53,0,0,0,5.94-5.38l-2,.26a14.11,14.11,0,0,0,24.46-12.81,1.25,1.25,0,0,0-2.41.66,11.62,11.62,0,0,1-20.28,10.38,1.27,1.27,0,0,0-2,.25c-5.94,9.14-21.85,7.92-26.57-1.77-.71-1.45-2.87-.18-2.16,1.26Z" transform="translate(-40.79 -7.41)"/><path class="cls-5" d="M367.54,164.44c-2.06-1.57-4.45-3.69-5.12-6.29-.76-2.93,1.77-4.55,4.15-5.45a69.32,69.32,0,0,1,18.69-3.9,165.36,165.36,0,0,1,19.28-.23c5.36.18,12.07-.21,16.48,3.42,2.88,2.38,4.26,9.12-.27,10.63-1.52.51-.87,2.93.67,2.41,4.88-1.63,5.67-7.62,3.7-11.8-2.69-5.68-10-6.67-15.56-7a188.63,188.63,0,0,0-22.93-.07c-7.3.5-14.93,1.61-21.71,4.48-3.18,1.35-5.69,3.95-5,7.63.64,3.51,3.68,6.23,6.37,8.29,1.28,1,2.53-1.2,1.27-2.16Z" transform="translate(-40.79 -7.41)"/><path class="cls-5" d="M378.5,159.52a99.91,99.91,0,0,0,33.14-.22c1.58-.27.91-2.68-.67-2.41a96.48,96.48,0,0,1-31.81.22c-1.57-.25-2.25,2.16-.66,2.41Z" transform="translate(-40.79 -7.41)"/></g><g id="Capa_7" data-name="Capa 7"><path class="cls-5" d="M217.94,574.42l-25.46-.62-12.73-.31a78.13,78.13,0,0,1-10.15-.62c-6.24-1-12.14-4-13.56-10.67-1.35-6.28,1.33-13.05,3.83-18.71,2.91-6.61,6-13.11,8.41-19.92a184.49,184.49,0,0,0,6.21-21.37,188.64,188.64,0,0,0,4.63-44.12,184.64,184.64,0,0,0-5.89-43.94q-.69-2.64-1.46-5.26a1.25,1.25,0,0,0-2.41.66,181.7,181.7,0,0,1,7.17,44.83,185.6,185.6,0,0,1-4,45,184,184,0,0,1-6.1,21.86c-2.46,7.06-5.55,13.79-8.58,20.61-2.62,5.88-5.28,12.53-4.54,19.11.72,6.38,4.93,11.13,10.94,13.19,6.69,2.29,14.26,1.79,21.22,2l26,.63,6.49.16a1.25,1.25,0,0,0,0-2.5Z" transform="translate(-40.79 -7.41)"/><path class="cls-5" d="M248.58,278.92c-3.1,4.1-6.38,10.46-2.92,15.32,2.35,3.31,7.46,5.12,10.66,1.94.72-.71.24-2.24-.88-2.13-6.79.67-11.36,6.59-12.47,13-1.32,7.63,2.4,14.58,7.92,19.65a53.29,53.29,0,0,0,11.62,7.81c1.42.74,2.69-1.41,1.26-2.15-6.34-3.3-12.77-7.5-16.35-13.88a16.27,16.27,0,0,1,.46-17.14,10.52,10.52,0,0,1,7.56-4.81l-.88-2.14c-2.25,2.24-6,.19-7.21-2.17-2.12-4,1-8.93,3.39-12.05,1-1.29-1.2-2.54-2.16-1.27Z" transform="translate(-40.79 -7.41)"/><path class="cls-5" d="M276,318.94c5.25-6.37,3.52-14.95,2.91-22.49a101.78,101.78,0,0,1,1.86-29.19c.33-1.57-2.08-2.25-2.41-.67a104.38,104.38,0,0,0-2.09,27.93c.25,4,.89,8,.92,12,0,3.74-.5,7.64-3,10.61-1,1.23.74,3,1.77,1.77Z" transform="translate(-40.79 -7.41)"/><path class="cls-5" d="M252.83,215.32A29.64,29.64,0,0,1,270,220.44c1.34.91,2.59-1.25,1.27-2.16a32,32,0,0,0-18.46-5.46,1.25,1.25,0,0,0,0,2.5Z" transform="translate(-40.79 -7.41)"/><path class="cls-5" d="M159.59,233.22c.5-6.65,5.82-11.71,11.79-14,7.46-2.86,15.46-1.31,22.5,2a88.54,88.54,0,0,1,11.78,6.91,1.26,1.26,0,0,0,1.83-.75,18.86,18.86,0,0,1,8-8.79,1.25,1.25,0,0,0-1.26-2.16,21.67,21.67,0,0,0-9.11,10.29l1.84-.75c-7.31-4.92-15.24-9.62-24.16-10.62-7.53-.84-15.54,1.61-20.83,7.16a17.32,17.32,0,0,0-4.84,10.71c-.13,1.6,2.37,1.59,2.5,0Z" transform="translate(-40.79 -7.41)"/><path class="cls-5" d="M277.39,272.33c10.83-5.51,12.57-18.12,11.11-29a69.9,69.9,0,0,0-1.85-9.08,1.25,1.25,0,0,0-2.41.66c2.51,9.27,4.24,21.06-1.43,29.54a17.46,17.46,0,0,1-6.68,5.76c-1.44.73-.17,2.88,1.26,2.16Z" transform="translate(-40.79 -7.41)"/><path class="cls-5" d="M145.56,237.33c-6-7.21.27-20.25,9.55-20.32.61,0,1.34-.58,1.25-1.25-1.32-9.89,9.73-18.83,19.12-15.36,1.51.55,2.16-1.86.66-2.41-10.78-4-23.81,6.33-22.28,17.77l1.25-1.25c-11.6.09-18.66,15.74-11.32,24.59,1,1.24,2.79-.54,1.77-1.77Z" transform="translate(-40.79 -7.41)"/><path class="cls-5" d="M206.44,198.87c5.44-9.18,21.22-8.19,25.67,1.4a1.26,1.26,0,0,0,1.71.45c8.83-6.17,22.44-2.32,26.78,7.51.64,1.47,2.8.2,2.15-1.26-4.85-11-20.35-15.29-30.19-8.41l1.71.45c-4.08-8.8-16.16-11.22-24.29-6.86a14.71,14.71,0,0,0-5.7,5.45,1.25,1.25,0,0,0,2.16,1.27Z" transform="translate(-40.79 -7.41)"/><path class="cls-5" d="M143.45,275.3a14.19,14.19,0,0,0,25.72,10.33H167c2.75,6.37,9.51,9.78,16.14,10.47,8.56.88,16.83-3,24.39-6.47,1.46-.68.19-2.83-1.26-2.16-7,3.22-14.53,6.75-22.43,6.19-6-.44-12.19-3.52-14.68-9.29-.41-.95-1.68-.67-2.16,0a11.71,11.71,0,0,1-21.15-8.4c.22-1.57-2.19-2.25-2.41-.67Z" transform="translate(-40.79 -7.41)"/><path class="cls-5" d="M174.47,213.3c6.24-8.45,18.73-11.44,28.14-6.81,1.43.71,2.7-1.44,1.26-2.16a25.84,25.84,0,0,0-31.56,7.7c-1,1.3,1.21,2.55,2.16,1.27Z" transform="translate(-40.79 -7.41)"/><path class="cls-5" d="M133.91,251.13c-5.58,9.73.58,23.78,11.6,26.12,1.57.33,2.24-2.08.66-2.41-9.42-2-14.92-14-10.1-22.44a1.25,1.25,0,0,0-2.16-1.27Z" transform="translate(-40.79 -7.41)"/><path class="cls-5" d="M221.54,280c11.53,3.21,24.24-2,31.23-11.45a26.25,26.25,0,0,0,4.26-8.94,1.25,1.25,0,0,0-2.41-.66c-3.53,13.52-18.94,22.39-32.41,18.63a1.26,1.26,0,0,0-.67,2.42Z" transform="translate(-40.79 -7.41)"/><path class="cls-5" d="M274,354.33a102.94,102.94,0,0,0,2.61-26.87c-.06-1.61-2.56-1.61-2.5,0a100.38,100.38,0,0,1-2.52,26.2c-.36,1.57,2.05,2.24,2.41.67Z" transform="translate(-40.79 -7.41)"/><path class="cls-5" d="M164.57,397a247.74,247.74,0,0,1-18.22-81.12q-.61-11.81-.09-23.62c.07-1.61-2.43-1.61-2.5,0a250,250,0,0,0,10.47,83.15q3.44,11.31,7.93,22.25c.6,1.47,3,.83,2.41-.66Z" transform="translate(-40.79 -7.41)"/></g><g id="Capa_5" data-name="Capa 5"><path class="cls-5" d="M359.18,417l.35,51.93.35,51.93.2,29.46a1.25,1.25,0,0,0,2.5,0l-.35-51.93-.35-51.93-.2-29.46a1.25,1.25,0,0,0-2.5,0Z" transform="translate(-40.79 -7.41)"/><path class="cls-5" d="M213.64,414.68l.35,51.93.35,51.93.19,29.46a1.25,1.25,0,0,0,2.5,0l-.35-51.93-.35-51.93-.19-29.46a1.25,1.25,0,0,0-2.5,0Z" transform="translate(-40.79 -7.41)"/><path class="cls-5" d="M238.2,577.93a146.25,146.25,0,0,0,43.09,10.54,156.09,156.09,0,0,0,44.83-2.34,139,139,0,0,0,24-7.07c1.48-.59.84-3-.66-2.41a143.28,143.28,0,0,1-42.79,9.59A153.5,153.5,0,0,1,262.34,583a139.84,139.84,0,0,1-23.47-7.46c-1.49-.62-2.13,1.8-.67,2.41Z" transform="translate(-40.79 -7.41)"/><path class="cls-5" d="M227.26,372.71A107.15,107.15,0,0,1,267,358.49a117.87,117.87,0,0,1,43.3,1.39,104.76,104.76,0,0,1,22.77,7.81c1.44.69,2.71-1.46,1.26-2.16a112.93,112.93,0,0,0-42.52-10.7,119.52,119.52,0,0,0-43.64,5.55A104.33,104.33,0,0,0,226,370.55c-1.37.84-.11,3,1.26,2.16Z" transform="translate(-40.79 -7.41)"/><path class="cls-5" d="M228.19,397c13.82,8.88,30,13.61,46.32,15a115.55,115.55,0,0,0,49.14-6.11,89.32,89.32,0,0,0,23.63-12.62c1.27-1,0-3.13-1.26-2.16-12.62,9.57-27.89,15.14-43.47,17.53a114.44,114.44,0,0,1-48.8-3,91.76,91.76,0,0,1-24.3-10.86c-1.35-.88-2.61,1.29-1.26,2.16Z" transform="translate(-40.79 -7.41)"/><path class="cls-5" d="M311,372.11c-5,.13-11,.19-15,3.65-3.11,2.69-4.24,7.86-.61,10.62,2.13,1.61,5,2,7.61,2.29a35.82,35.82,0,0,0,8.84-.08,34.15,34.15,0,0,0,8.33-2.15c2.17-.89,4.7-2.07,4.92-4.73s-1.87-5-3.94-6.36a17.86,17.86,0,0,0-8.76-2.84c-1.61-.11-1.6,2.39,0,2.5a15.63,15.63,0,0,1,6.3,1.78c1.58.85,3.54,2.21,3.87,4.12.39,2.17-2.71,3-4.26,3.58a33.9,33.9,0,0,1-6.35,1.58c-4.32.63-9.46.67-13.59-.9a3.73,3.73,0,0,1-2.78-3.43,5.66,5.66,0,0,1,1.94-4c3.41-3.16,9.2-3,13.52-3.14a1.25,1.25,0,0,0,0-2.5Z" transform="translate(-40.79 -7.41)"/><path class="cls-5" d="M311.84,384.44,309.91,373a1.24,1.24,0,0,0-1.53-.87,1.27,1.27,0,0,0-.88,1.53l1.93,11.44A1.25,1.25,0,0,0,311,386a1.27,1.27,0,0,0,.87-1.54Z" transform="translate(-40.79 -7.41)"/><path class="cls-5" d="M214.07,405.52c5.09-2.16,9.52-6.7,9.88-12.44a1.25,1.25,0,0,0-2.5,0A10.37,10.37,0,0,1,219,398.9a16.21,16.21,0,0,1-6.19,4.47,1.26,1.26,0,0,0-.45,1.71,1.28,1.28,0,0,0,1.71.44Z" transform="translate(-40.79 -7.41)"/><path class="cls-5" d="M350.2,393.83c-2.69,6.67,2,13.22,7.6,16.47a1.25,1.25,0,0,0,1.26-2.16c-4.75-2.74-8.72-8-6.45-13.64a1.27,1.27,0,0,0-.88-1.54,1.28,1.28,0,0,0-1.53.87Z" transform="translate(-40.79 -7.41)"/><path class="cls-5" d="M219.33,553.69a31.91,31.91,0,0,1,8.9,13.25c.51,1.52,2.93.87,2.41-.66a34.6,34.6,0,0,0-9.54-14.36c-1.18-1.09-3,.68-1.77,1.77Z" transform="translate(-40.79 -7.41)"/><path class="cls-5" d="M352.73,569.77c-1.5-1.86-3.5-4.12-3.48-6.66a4.19,4.19,0,0,1,3.19-4,1.25,1.25,0,0,0-.66-2.41,6.72,6.72,0,0,0-5,6.11c-.22,3.37,2.22,6.3,4.2,8.75a1.25,1.25,0,1,0,1.77-1.77Z" transform="translate(-40.79 -7.41)"/><path class="cls-5" d="M296.33,369.45a53,53,0,0,0-14.29,1.8c-3.91,1.07-8.53,2.5-11.2,5.75-2.47,3-2.35,7.14.87,9.5a16.57,16.57,0,0,0,5.4,2.3,64.43,64.43,0,0,0,7,1.5,66.73,66.73,0,0,0,16.16.56c1.59-.13,1.6-2.64,0-2.5a60.89,60.89,0,0,1-24-2.43c-1.5-.49-3.23-1.16-4.15-2.52a4,4,0,0,1,.47-4.6c2.17-2.88,6.38-4.09,9.69-5A50.26,50.26,0,0,1,296.33,372a1.25,1.25,0,0,0,0-2.5Z" transform="translate(-40.79 -7.41)"/><image class="cls-3" width="2550" height="3300" transform="scale(0.05)" xlink:href="../../Downloads/logo%20digitalizado%20final-01.png"/></g></svg>