<svg xmlns="http://www.w3.org/2000/svg" xmlns:xlink="http://www.w3.org/1999/xlink" viewBox="0 0 422.57 437.31"><defs><style>.cls-1{opacity:0.51;}.cls-2{fill:#3d7dbb;}.cls-3{opacity:0.65;}.cls-4{fill:#f5a13c;}.cls-5{fill:#1d1d1b;}.cls-6,.cls-7{fill:none;stroke:#1d1d1b;stroke-miterlimit:10;}.cls-6{stroke-width:2px;}.cls-7{stroke-width:0.5px;}</style></defs><g id="Capa_5" data-name="Capa 5"><g class="cls-1"><path class="cls-2" d="M328.91,302.15l1.44-.21-2.66.36c10.63-1.42,21.36-.46,32-.91,10.07-.42,19.78-2.25,28.85-6.75a43,43,0,0,0,11.12-7.93,37.7,37.7,0,0,0,8.51-13.34c1.92-4.93,2.48-10.37,3.26-15.57q1.36-9.12,2.45-18.28a495.22,495.22,0,0,0,3.34-64.88c-.13-9-.32-18.23-2.87-26.93-2.61-9-8.06-17.79-16.83-21.81a36.14,36.14,0,0,0-9-2.88c-3.24-.56-6.52-.91-9.79-1.32l-16.26-2L330,115.59l-8.13-1c-2.36-.29-5.48,1.33-7.07,2.93a10,10,0,0,0,0,14.14l2,1.57a9.94,9.94,0,0,0,5.05,1.36c20.46,2.56,40.95,5,61.39,7.69l-2.66-.35a35.5,35.5,0,0,1,9,2.18l-2.39-1a21,21,0,0,1,4.13,2.45l-2-1.56a21,21,0,0,1,3.56,3.61l-1.56-2a27.33,27.33,0,0,1,3.36,5.9l-1-2.39a48.16,48.16,0,0,1,3,11.94l-.36-2.66a124.88,124.88,0,0,1,.83,14.08q.18,9.1,0,18.22-.33,18.22-2,36.38-.94,10.31-2.33,20.55l.36-2.66q-.84,6.22-1.83,12.43a49.52,49.52,0,0,1-2.82,11.46l1-2.39a26.81,26.81,0,0,1-3.14,5.35l1.56-2a29.77,29.77,0,0,1-5.33,5.31l2-1.56a40,40,0,0,1-8.51,4.92l2.39-1a54.8,54.8,0,0,1-13.84,3.71l2.66-.36c-6.83.89-13.73.77-20.6.72a144.55,144.55,0,0,0-23.24,1.39c-2.31.36-4.85,2.67-6,4.59a10,10,0,0,0,3.58,13.69l2.39,1a10,10,0,0,0,5.32,0Z" transform="translate(-136.09 -114.12)"/></g></g><g id="Capa_4" data-name="Capa 4"><g class="cls-1"><path class="cls-2" d="M419.57,445.48a430,430,0,0,0,46.23,2.15c6.93-.05,13.93-.08,20.84-.78,7.13-.72,14.22-2,20.51-5.66a30.94,30.94,0,0,0,14.21-18.81c2-7.22,2-15,2.32-22.4q1.11-23.09,2.2-46.17c.44-9.11.39-18.51-4.08-26.74A28.39,28.39,0,0,0,512.28,317a21.27,21.27,0,0,0-13.57-3.43l-2.66.36a7.6,7.6,0,0,0-3.4,1.79,9.52,9.52,0,0,0-3.58,5.2,10.33,10.33,0,0,0,4.59,11.29,7.68,7.68,0,0,1,.81.55l-2-1.56a7.83,7.83,0,0,1,1.09,1.14l-1.56-2a9.16,9.16,0,0,1,.94,1.67l-1-2.39a14.08,14.08,0,0,1,.84,3.26l-.35-2.66c.52,4,.15,8.15,0,12.17q-.21,7.05-.59,14.11-.77,14.22-2.21,28.4c-.53,5.24-1.12,10.49-1.8,15.71l.35-2.65a45.75,45.75,0,0,1-2.76,11.53l1-2.39a20.5,20.5,0,0,1-2.57,4.47l1.56-2a15,15,0,0,1-2.66,2.63l2-1.57a14.73,14.73,0,0,1-3,1.72l2.39-1a20,20,0,0,1-4.81,1.24l2.66-.35a72.27,72.27,0,0,1-9.42.3l-10.42,0-21.1-.09c-13.18-.05-26.5-.71-39.55,1.45a49.17,49.17,0,0,0-19.94,7.73,10.5,10.5,0,0,0-4.59,6l-.36,2.66a10,10,0,0,0,1.37,5.05,24.49,24.49,0,0,0,9.67,10.32,35.22,35.22,0,0,0,12,4.34c9.43,1.66,19.12,1.24,28.61.25a181,181,0,0,0,19.24-3,10,10,0,1,0-5.32-19.28q-6,1.26-12,2.09l2.65-.36a156.71,156.71,0,0,1-15.76,1.31,81.73,81.73,0,0,1-12.9-.36l2.66.35a35,35,0,0,1-8.56-2.16l2.38,1a21.14,21.14,0,0,1-4.47-2.52l2,1.56a16.32,16.32,0,0,1-2.69-2.63l1.57,2a15.11,15.11,0,0,1-1.82-3l-3.59,13.69a36.65,36.65,0,0,1,6.69-3.69l-2.39,1a52.19,52.19,0,0,1,12.88-3.33l-2.65.35a130.22,130.22,0,0,1,17.33-.86c6.67,0,13.34.05,20,.08l20.35.09c7.2,0,14.47.45,21.59-.76a24.71,24.71,0,0,0,17.14-12.33c2.79-5,4.08-10.5,4.84-16.11,1.93-14.21,3.28-28.5,4.14-42.82q.69-11.37.94-22.77a49,49,0,0,0-.68-11.14,17.79,17.79,0,0,0-8.12-11.58l-5.05,18.63a12.4,12.4,0,0,1,3.22,0l-2.66-.36a13.71,13.71,0,0,1,3.08.87L500,333a16.5,16.5,0,0,1,3.42,2l-2-1.57a19.55,19.55,0,0,1,3.13,3.17l-1.57-2a19.65,19.65,0,0,1,2.42,4.16l-1-2.39a28.75,28.75,0,0,1,1.78,6.89l-.35-2.65a79.41,79.41,0,0,1,.11,13.62l-.72,15.15-1.43,30c-.24,5-.33,10.09-1,15.09l.36-2.66a33.56,33.56,0,0,1-2.19,8.53l1-2.39a21.77,21.77,0,0,1-2.6,4.45l1.57-2a21,21,0,0,1-3.52,3.47l2-1.56a25.21,25.21,0,0,1-5.17,2.95l2.38-1a41.83,41.83,0,0,1-10.22,2.61l2.66-.36c-8.31,1.11-16.84,1.05-25.21,1.07q-14.16,0-28.31-.85-8-.51-15.95-1.31c-2.4-.24-5.44,1.29-7.07,2.93a10,10,0,0,0,0,14.14,11.35,11.35,0,0,0,7.07,2.93Z" transform="translate(-136.09 -114.12)"/></g><g class="cls-1"><path class="cls-2" d="M399.52,470.49a11,11,0,0,0,5.51-9.73,12.22,12.22,0,0,0-5.94-10,11.72,11.72,0,0,0-11.7,0,14.77,14.77,0,0,0-5.58,5.86c-1.57,3-2.9,6.12-4.34,9.17L373,475.19l-8.8,18.65c-3.06,6.49-5.92,12.93-5.81,20.26.2,12.38,7.43,25,18.63,30.69a35,35,0,0,0,9.73,3.31c3.79.66,7.63,1,11.45,1.49,6.34.73,12.69,1.36,19.06,1.65,14.71.69,30-.39,43.84-5.75a12.39,12.39,0,0,0,4.41-2.57,10.16,10.16,0,0,0-2-15.71c-6.94-3.84-14.78-4.68-22.58-4.21-6.57.4-13.12,1.36-19.7.49l2.66.35c-3.84-.55-7.6-1.54-11.4-2.33-4.27-.88-8.61-1.21-12.93-1.77l2.66.36a22.65,22.65,0,0,1-5.45-1.35l2.39,1a13.53,13.53,0,0,1-2.68-1.55l2,1.57a14.24,14.24,0,0,1-2.19-2.2l1.56,2A17.76,17.76,0,0,1,395.8,516l1,2.39a44.48,44.48,0,0,1-2.59-11l.36,2.66a18.49,18.49,0,0,1-.12-4.46l-.36,2.66a11.5,11.5,0,0,1,.48-1.9l-1,2.39a7.65,7.65,0,0,1,.68-1.3l-1.56,2a6,6,0,0,1,1-1l-2,1.57a5.62,5.62,0,0,1,1-.58l-2.39,1a7.28,7.28,0,0,1,1.38-.4l-2.66.36a5.79,5.79,0,0,1,1.38,0l-2.66-.35a5.12,5.12,0,0,1,.77.2l-2.39-1a4,4,0,0,1,.68.37l-2-1.56a3.64,3.64,0,0,1,.57.54l-1.56-2a2.74,2.74,0,0,1,.29.46,10.39,10.39,0,0,0,6,4.6,10,10,0,0,0,11.29-14.69c-3.92-6.77-13.06-8.39-19.52-4.35a15.63,15.63,0,0,0-6.84,9.39,24.25,24.25,0,0,0-.24,9.41c1.29,9.61,3.92,20.21,13.22,25.2,5.57,3,11.62,3.09,17.72,3.91l-2.66-.36c4,.57,7.91,1.63,11.86,2.42a61.57,61.57,0,0,0,13.46,1.37c7.22-.16,14.44-1.59,21.66-.71l-2.66-.35a25.2,25.2,0,0,1,6.22,1.61l-2.39-1a22.73,22.73,0,0,1,2.22,1.08l2.39-18.28a80.93,80.93,0,0,1-18.19,4.61l2.66-.36c-16,2.15-32.41.48-48.36-1.62l2.66.36a33.91,33.91,0,0,1-8.6-2.1l2.39,1a24.44,24.44,0,0,1-4.95-2.93l2,1.56a26.18,26.18,0,0,1-4.54-4.57l1.56,2A27.93,27.93,0,0,1,379,518.3l1,2.39a26.54,26.54,0,0,1-1.79-6.54l.36,2.65a23.79,23.79,0,0,1,0-6.08l-.36,2.66a29.33,29.33,0,0,1,2.06-7l-1,2.39c3.14-7.4,6.82-14.61,10.25-21.88l5.19-11,2.54-5.39a30.59,30.59,0,0,1,2.54-5l-1.57,2a6,6,0,0,1,.7-.73l-2,1.57a2.85,2.85,0,0,1,.55-.35l-2.39,1a2.72,2.72,0,0,1,.63-.2l-2.65.36a1.4,1.4,0,0,1,.5,0l-2.66-.35.24.07-2.39-1a1.76,1.76,0,0,1,.44.26l-2-1.57a1.8,1.8,0,0,1,.36.37l-1.56-2a1.94,1.94,0,0,1,.27.43l-1-2.39a1.53,1.53,0,0,1,.14.46l-.35-2.66a1.3,1.3,0,0,1,0,.44l.36-2.66-.06.2,1-2.39-.11.18,1.57-2-.16.15,2-1.56-.21.12a10.39,10.39,0,0,0-4.6,6,10,10,0,0,0,14.69,11.29Z" transform="translate(-136.09 -114.12)"/></g><g class="cls-3"><path class="cls-4" d="M408.74,479.71l66.95,1,9.49.15c2.78,0,5.61-.08,8.38.23l-2-.26a10.47,10.47,0,0,1,2.59.65l-1.79-.75c.76.36,1.41,1.19-.19-.34q.78.79-.54-.81a4.33,4.33,0,0,1,.36.62l-.76-1.79a6.51,6.51,0,0,1,.43,1.49l-.27-2c.27,2.06.18,4.1.65,6.16s1.66,3.56,2.56,5.36l-.76-1.79a4.75,4.75,0,0,1,.3,1l-.27-2a2.74,2.74,0,0,1,0,.64l.26-2a4.15,4.15,0,0,1-.24.92l.76-1.79a4.94,4.94,0,0,1-.3.57c.05,0,1.32-1.7.42-.63-.44.52,1.32-.82.69-.55-.26.11-.51.28-.77.4l1.79-.76a6.89,6.89,0,0,1-1.33.36l2-.27a8.18,8.18,0,0,1-1.64,0l2,.27a15.46,15.46,0,0,1-3.77-1.13l1.79.75a73.27,73.27,0,0,0-14.44-5,92.9,92.9,0,0,0-15.42-1.76c-9.39-.32-18.77.47-28.16.59a113.74,113.74,0,0,1-16-.77l2,.26c-1.44-.19-2.87-.42-4.3-.7v14.47a19.88,19.88,0,0,1,3.47-.82l-2,.27a27.67,27.67,0,0,1,7.1.11l-2-.27c5.19.74,10.19,2.39,15.34,3.37a111,111,0,0,0,17.35,1.87c10.79.33,21.55-.73,32.28-1.76l18.77-1.81c3.06-.29,5.6-1.65,6.85-4.61a7.57,7.57,0,0,0-1.55-8.19c-.48-.52-1.22-1.84,0,.11-.22-.36-.5-.69-.72-1.06a17.6,17.6,0,0,1-1.26-2.44l.75,1.79a18,18,0,0,1-1.12-4.26l.26,2a18,18,0,0,1,0-4.4l-.27,2a16.75,16.75,0,0,1,.94-3.55,7.51,7.51,0,0,0-11-8.47,8.64,8.64,0,0,0-3.45,4.49c-3.18,8.28-.68,18.05,5.28,24.4l5.31-12.8c-10.4,1-20.8,2.12-31.21,2.93-10.15.79-20.38,1.12-30.5-.21l2,.27c-5.43-.74-10.65-2.23-16-3.39-6.1-1.33-12.56-2-18.6,0-3,1-5.66,3.85-5.51,7.24.14,3.12,2.2,6.59,5.51,7.23,15.44,3,30.94,1,46.52,1.08a101.64,101.64,0,0,1,12.7.78l-2-.27a58.86,58.86,0,0,1,14.46,3.8l-1.79-.76c2.46,1.05,4.89,2.43,7.52,3A13.91,13.91,0,0,0,503,496.83a11.71,11.71,0,0,0,5.7-8.48,10.78,10.78,0,0,0-1.19-6.47c-.46-.91-1.08-1.71-1.51-2.63l.75,1.79a7.91,7.91,0,0,1-.4-1.52l.27,2c-.22-1.86-.18-3.72-.54-5.58a11.59,11.59,0,0,0-3.34-6.12c-2.88-2.76-6.74-3.62-10.59-3.81-6.65-.33-13.34-.22-20-.32l-40.47-.62-23-.35c-3.92-.06-7.68,3.5-7.5,7.5a7.64,7.64,0,0,0,7.5,7.5Z" transform="translate(-136.09 -114.12)"/></g><image class="cls-3" width="2550" height="3300" transform="translate(87.49 10.12) scale(0.05)" xlink:href="../../Downloads/logo%20digitalizado%20final-01.png"/><g class="cls-3"><path class="cls-4" d="M151.61,137.6c-10.5,15.47-13.28,34.67-12.25,53a219.49,219.49,0,0,0,3.79,28.54c1.57,8.25,3.29,16.5,5.47,24.61,4.3,16,11.46,33,26.5,41.63,9.33,5.37,20.09,6.3,30.59,7.08l32.76,2.42L304,299.72l7.94.59c3.92.29,7.67-3.65,7.5-7.5a7.68,7.68,0,0,0-7.5-7.5l-91.82-6.79c-8.19-.61-16.46-.95-24.6-2l2,.27a51.39,51.39,0,0,1-12.75-3.2l1.79.76a34.82,34.82,0,0,1-4.14-2.08A14.94,14.94,0,0,1,179,270l1,.75-.53-.42-.77-.66c-.47-.41-.92-.83-1.37-1.26-1-.94-1.89-1.93-2.76-3l-.54-.65-.42-.53.76,1a8.56,8.56,0,0,1-1.2-1.66c-.79-1.13-1.52-2.3-2.22-3.49a68.05,68.05,0,0,1-3.74-7.56l.76,1.79a124.78,124.78,0,0,1-6-19.09c-1.7-7-3.19-14-4.51-21.07-.8-4.27-1.51-8.55-2.09-12.86l.27,2c-1.46-11-2.06-22.1-.61-33.09l-.27,2a73,73,0,0,1,4.92-18.43l-.75,1.8a62.26,62.26,0,0,1,5.67-10.39c2.21-3.25.73-8.46-2.69-10.26a7.68,7.68,0,0,0-10.26,2.69Z" transform="translate(-136.09 -114.12)"/></g><g class="cls-3"><path class="cls-4" d="M293.64,310.27a50.94,50.94,0,0,1-3.51,12.81l.75-1.79a49.32,49.32,0,0,1-3,5.94c-.49.84-1,1.66-1.55,2.47-.31.46-.63.92-.95,1.37s-1.67,1.8-.08.14c-1.44,1.5-2.64,3.17-4.18,4.59a14.32,14.32,0,0,0-1.24,1.08c1-.74,1.17-.88.54-.42l-.67.47a18.32,18.32,0,0,1-2.86,1.54l1.79-.75a15.09,15.09,0,0,1-3.3.91l2-.27a13.91,13.91,0,0,1-3.35,0l2,.26a11.3,11.3,0,0,1-2.47-.67l1.79.76c-.45-.2-.86-.44-1.3-.67q-.94-.63.63.54c-.19-.15-.36-.31-.53-.47-.68-.64-1.26-1.37-1.87-2.07a13.61,13.61,0,0,0-7-4.56,7.76,7.76,0,0,0-8.47,3.45c-3.1,4.84-2.7,10.82-.37,15.84,1.88,4.05,5.74,7.31,9.69,9.23a42.93,42.93,0,0,0,26.45,3.27,41.44,41.44,0,0,0,13.34-5,7.52,7.52,0,0,0,3.07-9.36c-1.39-3.28-5.28-5.52-8.85-4.35l-5.62,1.85a7.51,7.51,0,0,0,2,14.73q10,.36,20,.12c4.52-.12,9.26-.05,12.3-4a8.77,8.77,0,0,0,.67-9.72,8.61,8.61,0,0,0-9.54-4c-3.85.76-6.42,5.57-5.23,9.23a7.69,7.69,0,0,0,9.22,5.24l.25-.05h-4l.23,0-1.79-.75q-2.93-3.74-2.05-2l-.75-1.8.07.26-.27-2a1.63,1.63,0,0,1,0,.54l.26-2-.07.25.75-1.79q3.48-2.83,1.81-1.88l1.79-.76a5.36,5.36,0,0,1-.95.26l2-.27a104.25,104.25,0,0,1-12.12.3q-6.3,0-12.6-.22l2,14.73,5.62-1.84-5.78-13.71a38.35,38.35,0,0,1-4.05,2l1.79-.76a36.63,36.63,0,0,1-9.13,2.47l2-.27a37,37,0,0,1-9.46,0l2,.27a34.6,34.6,0,0,1-8.3-2.2l1.79.76a26.56,26.56,0,0,1-2.52-1.22l-1-.62-.65-.45c.94.74,1.18.93.74.56-.62-.55-1.17-1.29-1.81-1.8.75,1,.91,1.19.48.58l-.2-.31a11.1,11.1,0,0,1-.68-1.33l.75,1.79a11.32,11.32,0,0,1-.7-2.5l.27,2a10,10,0,0,1,0-2.56l-.27,2a9.06,9.06,0,0,1,.47-1.75l-.76,1.79a8.76,8.76,0,0,1,.69-1.28l-8.47,3.44a7.32,7.32,0,0,1,.94.29l-1.79-.75c.82.39,1.23,1.14-.15-.3.27.29.58.54.85.82.6.64,1.14,1.32,1.73,2a17.3,17.3,0,0,0,7.26,4.64c5.2,1.82,11.14.67,15.86-1.89a34.31,34.31,0,0,0,10.23-9.23,56,56,0,0,0,7.43-12.06,56.79,56.79,0,0,0,4.52-15.17c.28-2.09.35-3.88-.76-5.78a7.49,7.49,0,0,0-10.26-2.69c-1.52,1-3.19,2.6-3.45,4.48Z" transform="translate(-136.09 -114.12)"/></g><g class="cls-3"><path class="cls-4" d="M304.33,349.3,290,347c-4.35-.69-8.91-1.11-13-2.79l1.79.76a17,17,0,0,1-2-1,7,7,0,0,0-.78-.52q1.44,1.16.78.6c-.15-.12-.29-.25-.43-.38s-.45-.43-.66-.66c-1-1,.4.32.34.51a15.29,15.29,0,0,0-1.08-1.91l.75,1.79a9.69,9.69,0,0,1-.57-2.11l.27,2a6,6,0,0,1-.05-.73l-9.5,7.23c9.57,1.62,19.8,2.93,28.61-2.23,7.94-4.65,12.79-13.38,14.57-22.2a98.59,98.59,0,0,0,1.53-17.07,7.5,7.5,0,0,0-12.8-5.3,8.88,8.88,0,0,0-2.2,5.3l0,.43.26-2a54.41,54.41,0,0,1-3.42,13.53l.76-1.79a35,35,0,0,1-2.49,4.83c-.24.38-.49.76-.75,1.13s-1.22,1.39.27-.29c-.51.57-1,1.18-1.49,1.74s-1.07,1.09-1.63,1.6l-.87.75c-1.07.9,1.4-1,.31-.25a25.51,25.51,0,0,1-4.26,2.41l1.79-.76a19.58,19.58,0,0,1-4.69,1.31l2-.27c-2.79.37-5.6.08-8.4.25a19.62,19.62,0,0,0-9.75,2.7,15.45,15.45,0,0,0-6.73,8.68,12.7,12.7,0,0,0,2.93,11.67c2.2,2.6,5.48,4.17,8.59,5.36a30.92,30.92,0,0,0,8.36,1.7c5.42.46,11-.54,16.24-1.92,6-1.6,11.91-3.77,18.11-4.64l-2,.26,1.39-.16a8.1,8.1,0,0,0,5.3-2.19,7.67,7.67,0,0,0,2.2-5.31c-.17-3.71-3.32-7.94-7.5-7.5a84.73,84.73,0,0,0-15.19,3.25A90.41,90.41,0,0,1,281.77,346l2-.27a34,34,0,0,1-8.73.12l2,.27a23.27,23.27,0,0,1-5.52-1.45l1.79.76a33.72,33.72,0,0,1-3-1.61c-.73-.41,1.17,1.06.59.47a4.64,4.64,0,0,0-.56-.53c-.58-.45.78,1.27.46.62-.15-.28-.32-.54-.46-.83l.76,1.8a5.77,5.77,0,0,1-.36-1.4l.26,2a7,7,0,0,1,0-1l-.27,2a7.55,7.55,0,0,1,.35-1.32l-.75,1.79c.18-.41.52-.82.67-1.24-.83,1-1,1.25-.49.67.17-.18.34-.36.52-.53.58-.49.37-.34-.64.47q.31-.23.63-.42a12.1,12.1,0,0,1,1.35-.67l-1.79.76a13.09,13.09,0,0,1,2.89-.69l-2,.27c2.51-.28,5-.08,7.55-.18a27.15,27.15,0,0,0,7.54-1.23,30.69,30.69,0,0,0,12.54-8c7.36-7.78,10.09-18,11.44-28.33h-15a116.62,116.62,0,0,1-.72,11.82l.27-2a40.25,40.25,0,0,1-2.48,9.78l.75-1.8a29.25,29.25,0,0,1-1.89,3.75c-.33.54-.67,1.07-1,1.59s-1.13,1,.26-.32a8.29,8.29,0,0,0-.61.72c-.42.47-.85.92-1.3,1.35-.23.22-.46.43-.7.63-.57.49-1.3.66.35-.24-1.27.69-2.38,1.53-3.72,2.11l1.79-.76a22.31,22.31,0,0,1-5.26,1.39l2-.26a41.67,41.67,0,0,1-10.7-.27l2,.27c-1.57-.22-3.14-.47-4.7-.73a7.74,7.74,0,0,0-6.54,1.34,7.19,7.19,0,0,0-2.95,5.89,16.87,16.87,0,0,0,5.68,12A25.42,25.42,0,0,0,277.56,360c3.67.78,7.42,1.26,11.13,1.86l11.65,1.87a8.18,8.18,0,0,0,5.78-.76,7.51,7.51,0,0,0,2.69-10.26c-1-1.54-2.6-3.14-4.48-3.44Z" transform="translate(-136.09 -114.12)"/></g><g class="cls-3"><path class="cls-4" d="M300.72,324.44a21.87,21.87,0,0,0,20.79,15.72,7.51,7.51,0,0,0,7.36-6.51c.47-3.46-1.7-7.47-5.37-8.22a24.29,24.29,0,0,1-4.08-1.24l1.79.75a24.48,24.48,0,0,1-3.91-2.09,4.33,4.33,0,0,1-1-.71l1,.74-.56-.45c-.54-.46-1.07-.94-1.57-1.44s-1-1-1.45-1.58-.92-1.46.28.41c-.19-.3-.42-.58-.62-.87a24.87,24.87,0,0,1-2.22-4.05l.76,1.79a22.51,22.51,0,0,1-1.6-5.8l.27,2,0-.35-14.73,2q1.39,3.87,2.71,7.77a47.15,47.15,0,0,1,2.33,7.65l-.27-2a6,6,0,0,1,0,1.27l.27-2a3.64,3.64,0,0,1-.22.71l.76-1.8c-.77,1.54,1.09-1.12.29-.33,1.56-1.52,1-.76.21-.4l1.79-.75a9.9,9.9,0,0,1-2.22.56l2-.26c-3.83.48-7.82.31-11.68.41s-7.68,3.37-7.5,7.5c.18,4,3.3,7.61,7.5,7.5,3.45-.09,6.91-.09,10.35-.29,4.62-.27,9.17-1.64,11.83-5.72,2.81-4.33,1.37-9.06-.1-13.53q-1.69-5.18-3.55-10.3c-1.27-3.54-4.35-5.89-8.22-5.37a7.15,7.15,0,0,0-4.31,2.06c-1.25,1.37-2.43,3.38-2.2,5.31a33.53,33.53,0,0,0,3,10.59,31.38,31.38,0,0,0,21.07,16.77l2-14.73a15.34,15.34,0,0,1-1.79-.1l2,.27a14.68,14.68,0,0,1-3.44-.91l1.79.76a16.6,16.6,0,0,1-2.22-1.14c-.2-.13-.4-.26-.59-.4-.62-.44-.4-.27.66.53-.29-.3-.64-.54-.94-.83s-.57-.6-.86-.91c-.93-1,1.12,1.61.18.25a15.06,15.06,0,0,1-1.29-2.33l.76,1.79a14.5,14.5,0,0,1-.58-1.68c-1.07-3.78-5.36-6.5-9.23-5.24a7.63,7.63,0,0,0-5.24,9.22Z" transform="translate(-136.09 -114.12)"/></g><g class="cls-3"><path class="cls-4" d="M300.39,325.69l-11.32.7a103.12,103.12,0,0,0-10.81,1c-6.66,1.12-13.36,4.94-15.23,11.86-2.4,8.88,4.46,17.56,13,19.57,4.53,1.07,9,.63,13.49-.12,3.6-.59,7.19-1.34,10.76-2.11q12-2.58,23.77-6.11c3.75-1.12,6.5-5.31,5.24-9.23S324,334.8,320,336q-9,2.7-18.13,4.85c-6,1.41-12.1,2.82-18.22,3.65l2-.27a25,25,0,0,1-6.35.1l2,.26a14.57,14.57,0,0,1-3.31-.88l1.79.75a12.81,12.81,0,0,1-1.47-.77c-1.07-.68.15.3.46.41-.24-.09-.51-.44-.69-.61s-.35-.35-.51-.53c-.95-1.06.43.37.38.51a11,11,0,0,0-.87-1.57l.76,1.79a8.81,8.81,0,0,1-.54-2l.27,2a8.18,8.18,0,0,1,0-1.4l-.27,2a8.05,8.05,0,0,1,.49-1.87l-.76,1.79c.2-.45.49-.85.71-1.28-.79,1.55-1,1.25-.44.63.17-.17.37-.32.53-.5.44-.49-1.68,1.13-.7.54l.64-.4a14.51,14.51,0,0,1,1.53-.76l-1.79.76a23.63,23.63,0,0,1,5.73-1.45l-2,.27c2.92-.39,5.88-.47,8.82-.64l10.33-.64c3.9-.23,7.69-3.27,7.5-7.5-.18-3.85-3.31-7.75-7.5-7.5Z" transform="translate(-136.09 -114.12)"/></g><g class="cls-3"><path class="cls-4" d="M308,343.42a44.29,44.29,0,0,1-7.38,1.67l2-.27a46.62,46.62,0,0,1-11.92,0l2,.26a47,47,0,0,1-11.52-3.1l1.79.75a46.05,46.05,0,0,1-5.17-2.57c-.8-.47-1.59-1-2.36-1.48-.39-.26-.76-.54-1.14-.8-.65-.48-.44-.31.64.5-.53-.54-.36-.3.52.73l.75,1.79a2.31,2.31,0,0,1-.19-.56l.27,2a1.36,1.36,0,0,1,0-.45l-.27,2a1.12,1.12,0,0,1,.1-.4l-.76,1.79c.21-.4.09-.27-.37.41a4.19,4.19,0,0,1-1.64,1.48,5.84,5.84,0,0,0,.65-.35l-1.79.76a8.29,8.29,0,0,1,1.92-.47l-2,.26c1.64-.18,3.27,0,4.91-.11a25.41,25.41,0,0,0,8.39-2.25,27.8,27.8,0,0,0,10.69-9.06c5.62-7.51,6.78-17.78,5.89-26.87l-14.73,2c.26,1.18.48,2.37.65,3.56l-.27-2a33.6,33.6,0,0,1,.11,8.56l.26-2a24.74,24.74,0,0,1-1.54,5.91l.75-1.8a20.56,20.56,0,0,1-1.52,2.95l-.4.62c-.18.25-.88,1.18-.07.14s.19-.26,0,0-.4.46-.61.68-.68.71-1.05,1c-.22.2-.46.39-.69.59-.65.58,1.38-1,.65-.5a22.52,22.52,0,0,1-3,1.69l1.79-.76a17.28,17.28,0,0,1-4.31,1.1l2-.26c-5.05.62-10.72.34-15.08,3.4a13.2,13.2,0,0,0-5.89,10.75,14.72,14.72,0,0,0,4.8,10.48c9.9,9.36,25.11,6.53,36.86,3.05,6.09-1.81,12.14-3.87,18.46-4.73l-2,.27c.83-.11,1.66-.19,2.49-.26a8,8,0,0,0,5.3-2.19,7.66,7.66,0,0,0,2.2-5.31c-.17-3.8-3.31-7.82-7.5-7.5a85,85,0,0,0-18.25,3.84C296,344,290.62,345.73,285,346.48l2-.26a34.3,34.3,0,0,1-8.41.08l2,.27a23.09,23.09,0,0,1-5.43-1.35l1.8.76a13.67,13.67,0,0,1-1.71-.86,10.86,10.86,0,0,1-1-.63s1.58,1.33.47.34c-.24-.21-.46-.42-.68-.65s-.95-1.13-.13-.08.14.15,0-.13a10,10,0,0,1-.46-.93l.76,1.79a8.58,8.58,0,0,1-.37-1.29l.27,2a6.65,6.65,0,0,1,0-1.34l-.26,2a6.17,6.17,0,0,1,.45-1.63l-.76,1.79a7.09,7.09,0,0,0,.57-1c0,.25-1.37,1.69-.46.71.73-.77-1.6,1-.66.53.33-.17.64-.36,1-.51l-1.79.75a15.72,15.72,0,0,1,3.76-.95l-2,.27c3.77-.5,7.77-.36,11.4-1.6a24,24,0,0,0,11.12-7.7,28.46,28.46,0,0,0,6-13.24,44.18,44.18,0,0,0-.7-16.56c-.8-3.64-4.73-5.84-8.23-5.37s-6.86,3.65-6.5,7.37a46.87,46.87,0,0,1-.08,10.72l.27-2a31.47,31.47,0,0,1-1.95,7.39l.75-1.8a24,24,0,0,1-1.86,3.6c-.17.27-.35.53-.53.78-.36.52-1,.91.38-.46-.44.44-.81,1-1.25,1.42a18.51,18.51,0,0,1-1.36,1.3c-.19.17-.4.32-.58.49,1.53-1.42.94-.71.47-.38a20,20,0,0,1-3.41,1.92l1.79-.76a17.83,17.83,0,0,1-4.24,1.19l2-.27c-1.71.21-3.41,0-5.12.14-3.06.28-6.11,1.06-8.36,3.32a9.32,9.32,0,0,0,0,12.82,25.72,25.72,0,0,0,6,4.43,52.88,52.88,0,0,0,26.58,7.3A51.17,51.17,0,0,0,312,357.89c3.73-1.19,6.52-5.27,5.24-9.23-1.22-3.74-5.23-6.51-9.23-5.24Z" transform="translate(-136.09 -114.12)"/></g><g class="cls-3"><path class="cls-4" d="M158.72,145.49q17.33-3.26,34.8-5.61l-2,.27a679.77,679.77,0,0,1,89.82-6.07q12.74,0,25.46.45a7.56,7.56,0,0,0,7.5-7.5,7.66,7.66,0,0,0-7.5-7.5q-29.49-1.07-59,.41c-20.16,1-40.24,3-60.23,5.74q-16.49,2.26-32.86,5.34c-3.86.73-6.41,5.6-5.24,9.23,1.34,4.13,5.09,6,9.23,5.24Z" transform="translate(-136.09 -114.12)"/></g><g class="cls-3"><path class="cls-4" d="M189.09,445.94a9.76,9.76,0,0,1,1.64-.91l-1.79.75a10.57,10.57,0,0,1,2.7-.72l-2,.26a12.66,12.66,0,0,1,2.82,0l-2-.27a12.92,12.92,0,0,1,3.18.87l-1.79-.75a12.14,12.14,0,0,1,2.44,1.42l-1.52-1.18a11.13,11.13,0,0,1,1.82,1.81l-1.17-1.52a10.09,10.09,0,0,1,1.19,2l-.76-1.79a10.12,10.12,0,0,1,.64,2.29l-.27-2a10.8,10.8,0,0,1,0,2.84l.27-2a12.52,12.52,0,0,1-.82,3l.76-1.8a13.07,13.07,0,0,1-1.57,2.68l1.17-1.51a11.92,11.92,0,0,1-1.84,1.85l1.52-1.17a10.28,10.28,0,0,1-2.23,1.33l1.79-.75a9.81,9.81,0,0,1-2.07.59l2-.27a9.06,9.06,0,0,1-2.44,0l2,.27a8.52,8.52,0,0,1-2.1-.59l1.79.76a7.12,7.12,0,0,1-1.4-.84l1.51,1.18a6.77,6.77,0,0,1-1-1l1.17,1.52a5.92,5.92,0,0,1-.58-1l.76,1.79a6.61,6.61,0,0,1-.29-.89,7.56,7.56,0,0,0-9.22-5.23,7.64,7.64,0,0,0-5.24,9.22c1.5,6.21,8.08,10.19,14.27,9.83a17.75,17.75,0,0,0,13.9-8.35,18.39,18.39,0,0,0,2.26-14.9,17.22,17.22,0,0,0-4.21-7.11,19.32,19.32,0,0,0-7-4.37,12.84,12.84,0,0,0-2.73-.75,19.58,19.58,0,0,0-4.58-.35,17.47,17.47,0,0,0-8.6,2.71,8,8,0,0,0-3.45,4.48,7.67,7.67,0,0,0,.76,5.78,7.59,7.59,0,0,0,4.48,3.45,7.48,7.48,0,0,0,5.78-.76Z" transform="translate(-136.09 -114.12)"/></g><g class="cls-3"><path class="cls-4" d="M194.29,387.22a3.16,3.16,0,0,1,.2-.54l-.76,1.79c.17-.33.69-1-.16.06-.47.57-.58.72-.34.45a1.79,1.79,0,0,1,.28-.27c0,.1-1.66,1.06-.88.71.24-.12.47-.25.72-.36l-1.79.75a8.88,8.88,0,0,1,1.67-.42l-2,.26a14.14,14.14,0,0,1,3.44,0l-2-.27a57.86,57.86,0,0,1,7.78,1.95,77,77,0,0,1,8.59,2.54l-1.79-.76a10.8,10.8,0,0,1,1.08.53l.51.32c.47.32.23.13-.73-.56l.26.25c.51.56.34.34-.5-.67a5.52,5.52,0,0,0,.49,1l-.75-1.79a7.43,7.43,0,0,1,.27,1l-.27-2a6,6,0,0,1,0,1l.26-2a4.93,4.93,0,0,1-.27,1l.75-1.8-.16.32c-1.84,3.46-1,8.31,2.69,10.26,3.47,1.83,8.3,1,10.26-2.69,3.22-6.09.6-13.3-5.26-16.64-3.88-2.21-8.64-3-12.9-4.22-3.6-1-7.38-2.22-11.17-1.91a15.14,15.14,0,0,0-6.78,1.87,12,12,0,0,0-5.23,6.77,7.56,7.56,0,0,0,5.23,9.23,7.68,7.68,0,0,0,9.23-5.24Z" transform="translate(-136.09 -114.12)"/></g><g class="cls-3"><path class="cls-4" d="M393.1,411.11a22.69,22.69,0,0,1-.54-2.63l.27,2a25.22,25.22,0,0,1,.1-6.2l-.27,2c.68-4.71,2.27-9.2,3.45-13.8a84.72,84.72,0,0,0,2.34-15.92c.3-4.9.23-9.8.1-14.7-.06-2.37-.14-4.75-.2-7.13a45.92,45.92,0,0,1,.07-7.23l-.27,2a9.73,9.73,0,0,1,.56-2.05l-.76,1.79c.19-.42.44-.8.66-1.21.39-.73-1.32,1.47-.54.71l.52-.51c.22-.21.88-.71-.19.12s-.32.27,0,.1a11.23,11.23,0,0,1,1.34-.68l-1.79.76a18.6,18.6,0,0,1,4.33-1.1l-2,.27a81.59,81.59,0,0,1,9.12-.31,115.8,115.8,0,0,0,11.62-.74,130.69,130.69,0,0,0,24.53-5.08c3.74-1.18,6.52-5.28,5.24-9.23-1.22-3.75-5.22-6.5-9.23-5.24a121.45,121.45,0,0,1-19.93,4.49l2-.27a121,121,0,0,1-16.36,1.09c-4.32,0-8.93,0-13,1.54a16.92,16.92,0,0,0-7,4.4,16.62,16.62,0,0,0-3.95,10,70.17,70.17,0,0,0,.07,7.81c.08,2.69.17,5.39.22,8.08a123,123,0,0,1-.73,18.41l.27-2c-1.55,11.48-7.69,22.7-4.51,34.45,1,3.79,5.38,6.48,9.22,5.24a7.64,7.64,0,0,0,5.24-9.23Z" transform="translate(-136.09 -114.12)"/></g><g class="cls-1"><path class="cls-2" d="M191.06,474.66a14.39,14.39,0,0,1-3.47-.05l2.66.36a15.93,15.93,0,0,1-3.66-1l2.39,1a17.37,17.37,0,0,1-3.6-2.12l2,1.57a18.54,18.54,0,0,1-3-3l1.56,2a17.45,17.45,0,0,1-2.13-3.58l1,2.39a15.43,15.43,0,0,1-1-3.66l.35,2.66a15.42,15.42,0,0,1,0-3.84l-.36,2.66a47.31,47.31,0,0,1,2-7.46q1.17-3.58,2.05-7.26a115.42,115.42,0,0,0,2.67-16.85,107.61,107.61,0,0,0-2.16-32c-1.06-4.91-2.76-9.69-3.47-14.68l.36,2.66a22.66,22.66,0,0,1-.12-5.52l-.36,2.66a14.07,14.07,0,0,1,.88-3.37l-1,2.38a12.53,12.53,0,0,1,1.43-2.42l-1.56,2c.15-.19.31-.38.47-.56a10.62,10.62,0,0,0,2.93-7.07,10.18,10.18,0,0,0-2.93-7.07,10.05,10.05,0,0,0-7.07-2.93,9.92,9.92,0,0,0-7.07,2.93A21.84,21.84,0,0,0,165.22,389a35.05,35.05,0,0,0,1,11c.63,3,1.55,5.95,2.3,8.94a98.88,98.88,0,0,1,2,10.54l-.36-2.66a100.34,100.34,0,0,1,0,26l.36-2.66A97.5,97.5,0,0,1,168,452.48c-1.07,4-2.77,7.93-3.42,12a27.66,27.66,0,0,0,0,9.73,24,24,0,0,0,2.42,6.65,26.91,26.91,0,0,0,9.4,10,24.63,24.63,0,0,0,6.82,3,21.74,21.74,0,0,0,7.82.75c2.73-.29,5.07-.92,7.07-2.93a10,10,0,0,0,0-14.14c-1.83-1.69-4.48-3.21-7.07-2.93Z" transform="translate(-136.09 -114.12)"/></g></g><g id="Capa_1" data-name="Capa 1"><path class="cls-5" d="M291,306.24c-.14,7.32-.82,15.06-4.61,21.51-3.13,5.3-8.58,9.64-14.93,9.78-2.41.05-2.42,3.8,0,3.75,7.44-.17,13.9-4.86,17.77-11,4.48-7.1,5.36-15.84,5.52-24,0-2.41-3.7-2.41-3.75,0Z" transform="translate(-136.09 -114.12)"/><path class="cls-5" d="M140.33,144.23a169,169,0,0,0-3.71,50.94,175.85,175.85,0,0,0,11.6,50,190.14,190.14,0,0,0,13.19,27.07c1.22,2.08,4.46.19,3.23-1.89A181.84,181.84,0,0,1,145,222.84a167.51,167.51,0,0,1-4.91-49.67A163.55,163.55,0,0,1,144,145.23c.53-2.35-3.08-3.36-3.62-1Z" transform="translate(-136.09 -114.12)"/><path class="cls-5" d="M404.44,283.64a216.8,216.8,0,0,0,14.19-54.27,219.36,219.36,0,0,0-.07-56,227.68,227.68,0,0,0-6.39-31.56c-.64-2.32-4.26-1.33-3.61,1a220.26,220.26,0,0,1,8.05,55.38,213.24,213.24,0,0,1-15.79,84.48,1.89,1.89,0,0,0,1.31,2.31,1.93,1.93,0,0,0,2.31-1.31Z" transform="translate(-136.09 -114.12)"/><path class="cls-5" d="M163.68,144.23A169,169,0,0,0,160,195.17a175.85,175.85,0,0,0,11.6,50,190.09,190.09,0,0,0,13.18,27.07c1.23,2.08,4.47.19,3.24-1.89a181.16,181.16,0,0,1-19.67-47.55,167.85,167.85,0,0,1-4.92-49.67,164.56,164.56,0,0,1,3.9-27.94c.53-2.35-3.08-3.36-3.62-1Z" transform="translate(-136.09 -114.12)"/><path class="cls-5" d="M395.27,275a245.6,245.6,0,0,0,3.49-101.91,232.14,232.14,0,0,0-6.67-27.76c-.7-2.31-4.32-1.32-3.61,1a235,235,0,0,1,9.44,49.15,244.58,244.58,0,0,1-1,50.46A236.69,236.69,0,0,1,391.66,274c-.58,2.35,3,3.35,3.61,1Z" transform="translate(-136.09 -114.12)"/><path class="cls-5" d="M151.48,132.29a492.52,492.52,0,0,1,48.62-9.43c16.33-2.32,32.78-3.81,49.26-4.52s33.22-.61,49.8.29,32.89,2.59,49.18,5.1a491,491,0,0,1,48.49,10q2.93.76,5.84,1.56a1.88,1.88,0,0,0,1-3.62A490.65,490.65,0,0,0,355.12,121c-16.43-2.73-33-4.66-49.63-5.77s-33.35-1.42-50-.9-33.3,1.84-49.83,4-32.85,5.07-49,8.84l-6.12,1.47c-2.34.58-1.35,4.2,1,3.62Z" transform="translate(-136.09 -114.12)"/><path class="cls-5" d="M166,144.28a517.5,517.5,0,0,1,87.27-10.54,533.8,533.8,0,0,1,88.28,4.09q24.32,3.16,48.25,8.71c2.35.54,3.35-3.07,1-3.62a519.38,519.38,0,0,0-87.85-12.43,533.92,533.92,0,0,0-88.86,2.37q-24.7,2.73-49.08,7.8c-2.36.5-1.36,4.11,1,3.62Z" transform="translate(-136.09 -114.12)"/><path class="cls-5" d="M178.65,286.37c12,7,25.93,9.72,39.43,12.16A423.24,423.24,0,0,0,261,304a423.63,423.63,0,0,0,86.83-2.27,410.32,410.32,0,0,0,47.65-9c2.34-.59,1.35-4.2-1-3.61a411.74,411.74,0,0,1-84.55,12.07,419.79,419.79,0,0,1-85.27-5.33c-7.67-1.28-15.36-2.69-22.9-4.61a82.33,82.33,0,0,1-21.17-8.14c-2.09-1.21-4,2-1.89,3.24Z" transform="translate(-136.09 -114.12)"/><path class="cls-5" d="M185.42,273c12,6,25.46,8.08,38.55,10q20.47,3.06,41.18,4.28a469.77,469.77,0,0,0,83-2.42,457.1,457.1,0,0,0,45.64-7.72c2.36-.53,1.36-4.15-1-3.62A456,456,0,0,1,311.94,284a464.51,464.51,0,0,1-81.41-3.79c-7.53-1-15.06-2.17-22.49-3.75a86,86,0,0,1-20.72-6.71c-2.16-1.07-4.06,2.17-1.9,3.24Z" transform="translate(-136.09 -114.12)"/><path class="cls-5" d="M309.48,307.64c1.15,8.45,7.35,15.39,13.12,21.23,5.95,6,14.3,11.33,23.07,8.51,2.29-.74,1.31-4.36-1-3.62-7.79,2.51-14.9-2.86-20-8.16s-10.52-11.35-11.55-19a1.89,1.89,0,0,0-2.31-1.31,1.93,1.93,0,0,0-1.31,2.31Z" transform="translate(-136.09 -114.12)"/><path class="cls-5" d="M266.3,331.94c-4.83-1.83-10.06.89-12.76,5-3,4.47-2.16,10.3.7,14.61,7.06,10.64,21.83,10.57,33.21,10.4,13.68-.21,27.27-2.23,40.69-4.74q5.06-.94,10.09-2c3.21-.64,6.49-1.15,9.64-2.06,5.17-1.48,9.18-5,10.55-10.29a13.53,13.53,0,0,0-4.87-14.43,14.47,14.47,0,0,0-15.49-1c-2.1,1.2-.21,4.44,1.89,3.24a10.71,10.71,0,0,1,10.9.46,9.55,9.55,0,0,1,4.17,9.79,11.16,11.16,0,0,1-2.23,5.07,11.28,11.28,0,0,1-5.92,3.57c-2.68.77-5.46,1.22-8.19,1.76q-4.44.9-8.89,1.76a272.37,272.37,0,0,1-35.53,4.85,140.48,140.48,0,0,1-17.77,0c-5.11-.35-10.45-1.2-14.79-4.09-3.8-2.53-7.26-7.47-6.14-12.25,1-4.17,5.46-7.64,9.74-6,2.26.86,3.24-2.77,1-3.61Z" transform="translate(-136.09 -114.12)"/><path class="cls-5" d="M270.21,345.06a501.5,501.5,0,0,1,52.93-4.63c5-.19,10-.31,15-.36,2.41,0,2.42-3.78,0-3.75-17.92.2-35.85,1.21-53.66,3.18q-7.65.84-15.27,1.95a1.88,1.88,0,0,0-1.31,2.3,1.92,1.92,0,0,0,2.31,1.31Z" transform="translate(-136.09 -114.12)"/></g><g id="Capa_2" data-name="Capa 2"><path class="cls-5" d="M164.64,378.33a71.3,71.3,0,0,1,26.66-2,110.57,110.57,0,0,1,13.42,2.27c3.95.91,8.18,1.78,11.7,3.86s6.35,6.24,4.64,10.4c-.61,1.49,1.8,2.13,2.41.66,1.5-3.65.09-7.81-2.48-10.61-2.93-3.18-7.29-4.59-11.35-5.66a102.67,102.67,0,0,0-29.2-3.83A67.36,67.36,0,0,0,164,375.92a1.25,1.25,0,0,0,.66,2.41Z" transform="translate(-136.09 -114.12)"/><path class="cls-5" d="M159.33,392.7c1.9,4.1,2.63,8.62,3.33,13.05s1.44,9.14,2,13.73a128.4,128.4,0,0,1,1,27.07,69.56,69.56,0,0,1-3,15.19c-.48,1.54,1.93,2.2,2.41.67,5.72-18.12,3-37.36.14-55.72-.81-5.21-1.6-10.43-3.84-15.25-.67-1.46-2.83-.19-2.15,1.26Z" transform="translate(-136.09 -114.12)"/><path class="cls-5" d="M220.22,408a78,78,0,0,0-4.34,47.49,76.07,76.07,0,0,0,4.21,13c.63,1.48,2.78.21,2.16-1.26a75,75,0,0,1-3.93-45.37,72.51,72.51,0,0,1,4.06-12.62c.62-1.46-1.53-2.74-2.16-1.26Z" transform="translate(-136.09 -114.12)"/><path class="cls-5" d="M164.64,489.06a69.45,69.45,0,0,0,47.71,4.42c3.23-.87,8.49-2.13,8.43-6.38a1.25,1.25,0,0,0-2.5,0c0,1.52-1.63,2.35-2.86,2.83a41.73,41.73,0,0,1-5,1.47,64.92,64.92,0,0,1-10.91,1.75,67.55,67.55,0,0,1-21.84-1.95,66,66,0,0,1-11.79-4.3c-1.44-.69-2.71,1.46-1.26,2.16Z" transform="translate(-136.09 -114.12)"/><circle class="cls-6" cx="55.18" cy="339.67" r="11.42"/><circle class="cls-6" cx="55.18" cy="339.67" r="19.81"/><rect class="cls-7" x="64.3" y="272.11" width="9.8" height="5.04" rx="2.52"/><rect class="cls-7" x="36.89" y="292.94" width="9.8" height="5.04" rx="2.52"/><rect class="cls-7" x="50.28" y="292.94" width="9.8" height="5.04" rx="2.52"/><rect class="cls-7" x="50.28" y="285.02" width="9.8" height="5.04" rx="2.52"/><rect class="cls-7" x="63.42" y="285.02" width="9.8" height="5.04" rx="2.52"/><rect class="cls-7" x="35.85" y="285.02" width="9.8" height="5.04" rx="2.52"/><rect class="cls-7" x="50.28" y="300.32" width="9.8" height="5.04" rx="2.52"/><rect class="cls-7" x="50.28" y="307.91" width="9.8" height="5.04" rx="2.52"/><rect class="cls-7" x="36.89" y="300.32" width="9.8" height="5.04" rx="2.52"/><rect class="cls-7" x="63.42" y="292.94" width="9.8" height="5.04" rx="2.52"/><rect class="cls-7" x="63.42" y="301.04" width="9.8" height="5.04" rx="2.52"/><circle class="cls-6" cx="40.75" cy="272.87" r="5.08"/></g><g id="Capa_3" data-name="Capa 3"><path class="cls-5" d="M387.56,330.46q48.82-7.59,98.15-11.2,6.17-.45,12.33-.84c3.74-.23,7.67-.57,11.24.82,5.11,2,8.14,7.16,9.7,12.16,2.08,6.71,1.92,13.92,1.36,20.84-.65,8.17-2,16.26-2.82,24.4a333,333,0,0,0-1,55.06c.16,2.39,3.91,2.41,3.75,0a333.84,333.84,0,0,1,.53-50.4c.73-8.41,2-16.76,2.89-25.15.81-7.55,1.29-15.4-.37-22.88-1.24-5.61-3.82-11.35-8.41-15-6.17-4.88-14-3.8-21.34-3.31q-25.26,1.68-50.45,4.41t-50.24,6.5l-6.35,1a1.89,1.89,0,0,0-1.31,2.31,1.94,1.94,0,0,0,2.31,1.31Z" transform="translate(-136.09 -114.12)"/><path class="cls-5" d="M373.49,335.46c-3,6.21-3.05,13.1-2.24,19.83.89,7.35,2.14,14.65,2.91,22a344.82,344.82,0,0,1,1.72,46c-.11,3.79-.51,7.61-.33,11.4.16,3.45,1,6.83,3.43,9.39,1.67,1.75,4.32-.9,2.66-2.65-1.92-2-2.31-4.83-2.37-7.5-.06-3.22.23-6.45.33-9.66q.36-11,0-22.06a383.22,383.22,0,0,0-4.14-43.56c-1-7-2-14.73,1.26-21.34,1.06-2.16-2.18-4.06-3.24-1.89Z" transform="translate(-136.09 -114.12)"/><path class="cls-5" d="M397.84,455.67l46.73-1.83c15.33-.6,30.68-1,46-1.85a177.68,177.68,0,0,0,25.61-2.9c2.36-.47,1.36-4.08-1-3.61-14.87,3-30.17,3-45.27,3.62l-46.23,1.81-25.85,1c-2.4.09-2.42,3.85,0,3.75Z" transform="translate(-136.09 -114.12)"/><path class="cls-5" d="M392.38,436.75a375.64,375.64,0,0,0-5.27-73c-1-6.07-1.82-12.39.4-18.29.85-2.26-2.78-3.24-3.62-1-2,5.37-1.72,11.14-.95,16.73.84,6,2,11.88,2.76,17.86a353.21,353.21,0,0,1,2.95,36.61q.3,10.54,0,21.07c-.07,2.42,3.68,2.41,3.75,0Z" transform="translate(-136.09 -114.12)"/><path class="cls-5" d="M501.29,341.76q2.55,33,3.42,66,.24,9.45.36,18.89c0,2.42,3.78,2.42,3.75,0q-.39-33.06-2.46-66.07-.58-9.44-1.32-18.85c-.18-2.39-3.94-2.41-3.75,0Z" transform="translate(-136.09 -114.12)"/><path class="cls-5" d="M391.46,442.23q43.65-3.87,87.35-7.16,12.42-.94,24.83-1.83c2.4-.17,2.42-3.92,0-3.75q-43.71,3.13-87.37,6.84-12.4,1.05-24.81,2.15c-2.38.22-2.4,4,0,3.75Z" transform="translate(-136.09 -114.12)"/><path class="cls-5" d="M387.54,350.28l50.53-7.21,50.53-7.21c2.14-.3,4.28-.69,6.43-.83a9,9,0,0,1,5.31.84c1.58,1,2.61,4,.49,4.95a1.89,1.89,0,0,0-.67,2.57,1.94,1.94,0,0,0,2.57.67c2.75-1.18,3.5-4.56,2.72-7.22-1-3.31-3.9-5.06-7.2-5.48-4.06-.52-8.36.56-12.37,1.13l-13.56,1.94-55,7.84-30.82,4.39a1.89,1.89,0,0,0-1.31,2.31,1.93,1.93,0,0,0,2.31,1.31Z" transform="translate(-136.09 -114.12)"/><path class="cls-5" d="M383.12,451c-7.5,14.23-15,28.48-21.58,43.18q-2.82,6.33-5.4,12.77a1.87,1.87,0,0,0,1.31,2.3,1.91,1.91,0,0,0,2.3-1.3c7.57-18.95,17.11-37,26.61-55.06,1.13-2.13-2.11-4-3.24-1.89Z" transform="translate(-136.09 -114.12)"/><path class="cls-5" d="M552.26,506.45c-7-16.07-14.08-32.15-22.2-47.71q-3.45-6.62-7.18-13.06a1.88,1.88,0,0,0-3.24,1.89c8.78,15.15,16.22,31,23.33,47q3,6.87,6,13.76a1.9,1.9,0,0,0,2.57.68,1.92,1.92,0,0,0,.67-2.57Z" transform="translate(-136.09 -114.12)"/><path class="cls-5" d="M359.59,521.41c25.06,3.28,50.17,6.19,75.45,7.25,24.93,1,50,.35,74.7-3.2a288.15,288.15,0,0,0,40.87-8.88c2.31-.69,1.32-4.31-1-3.62-23.71,7-48.28,10.68-73,11.9-24.87,1.23-49.79.09-74.56-2.24-14.21-1.33-28.36-3.11-42.5-5a1.88,1.88,0,0,0-1.88,1.87,1.92,1.92,0,0,0,1.88,1.88Z" transform="translate(-136.09 -114.12)"/><path class="cls-5" d="M358.23,531c4.06,10.47,15.93,13.25,26,14,7,.51,14.05.38,21.05.41q11.94,0,23.88-.17c31.36-.54,62.68-2.28,94-4.31,4.17-.27,8.35-.49,12.52-.84a40.21,40.21,0,0,0,11.65-2.33c6.21-2.48,11.81-8.24,11.32-15.36-.17-2.4-3.92-2.42-3.75,0,.4,5.84-4.46,10.33-9.59,12.13a38.46,38.46,0,0,1-9.63,1.81c-3.67.3-7.35.51-11,.75-14.9,1-29.81,1.87-44.73,2.62-29.82,1.49-59.68,2.35-89.54,1.78-5.8-.11-11.64-.44-17.21-2.21-4.79-1.53-9.42-4.38-11.31-9.27a1.94,1.94,0,0,0-2.31-1.31,1.9,1.9,0,0,0-1.31,2.31Z" transform="translate(-136.09 -114.12)"/><path class="cls-5" d="M409.42,508.21l72.46-.55,20.49-.16-1.88-1.87c.08,3-2.66,5-5.34,5.73-3.64,1-7.69.5-11.41.46l-24.48-.3-25-.3c-7.93-.1-16,.16-23.89-.5a42.1,42.1,0,0,1-6.41-1c-1-.23-3.72-.58-4.06-1.77s1.23-2.24,2.15-2.39c2-.31,4,.94,5.7,1.84,2.12,1.16,4-2.08,1.9-3.23-3.49-1.91-8-3.77-11.41-.77-2.74,2.39-2.84,6.69.55,8.52a20.41,20.41,0,0,0,5.77,1.76,54.38,54.38,0,0,0,6.75.86c4.56.32,9.14.26,13.71.32l57.45.69c4.76.06,10.13.74,14.7-.89,3.84-1.37,7.16-4.73,7.05-9a1.91,1.91,0,0,0-1.87-1.88l-72.46.55-20.49.16c-2.41,0-2.42,3.76,0,3.75Z" transform="translate(-136.09 -114.12)"/><path class="cls-5" d="M392.81,469.57l89.09-3.48,25.39-1c2.4-.09,2.41-3.84,0-3.75l-89.1,3.48-25.38,1c-2.4.09-2.42,3.84,0,3.75Z" transform="translate(-136.09 -114.12)"/><path class="cls-5" d="M389.1,472.71A29.81,29.81,0,0,1,389,494a1.89,1.89,0,0,0,1.81,2.37l50.39.19,50.38.18,28.44.11a1.89,1.89,0,0,0,1.62-2.82,40.74,40.74,0,0,1-7.27-29.14,1.89,1.89,0,0,0-1.88-1.87,1.92,1.92,0,0,0-1.87,1.87,43.87,43.87,0,0,0,7.78,31l1.62-2.82-50.39-.19-50.38-.18-28.44-.11,1.81,2.38a33,33,0,0,0,.12-23.24c-.83-2.24-4.46-1.27-3.61,1Z" transform="translate(-136.09 -114.12)"/><path class="cls-5" d="M410.44,492.69a60.6,60.6,0,0,0,.77-25.47c-.42-2.37-4-1.37-3.61,1a56.29,56.29,0,0,1-.77,23.47c-.58,2.34,3,3.34,3.61,1Z" transform="translate(-136.09 -114.12)"/><path class="cls-5" d="M439.64,492.89l-2.33-24.46a1.92,1.92,0,0,0-1.87-1.88,1.9,1.9,0,0,0-1.88,1.88l2.33,24.46a1.93,1.93,0,0,0,1.88,1.88,1.88,1.88,0,0,0,1.87-1.88Z" transform="translate(-136.09 -114.12)"/><path class="cls-5" d="M460.49,493.33a72,72,0,0,0,.27-28.24c-.45-2.37-4.06-1.37-3.61,1a67.28,67.28,0,0,1-.27,26.26c-.5,2.35,3.12,3.36,3.61,1Z" transform="translate(-136.09 -114.12)"/><path class="cls-5" d="M484.16,492.19q-.74-12.94-.3-25.91c.08-2.42-3.67-2.42-3.75,0q-.44,12.95.3,25.91c.14,2.4,3.89,2.42,3.75,0Z" transform="translate(-136.09 -114.12)"/><path class="cls-5" d="M502.76,488.4c-1-.35-1.19-2.15-1.31-3a38.34,38.34,0,0,1-.31-6.06,41.51,41.51,0,0,1,2-11.85c.75-2.31-2.87-3.29-3.61-1A44.83,44.83,0,0,0,497.39,481c.08,3.77.07,9.49,4.38,11,2.28.78,3.27-2.84,1-3.62Z" transform="translate(-136.09 -114.12)"/><path class="cls-5" d="M393.56,475.59l88.14-.8,24.9-.22c2.41,0,2.42-3.77,0-3.75l-88.14.79-24.9.23c-2.41,0-2.42,3.77,0,3.75Z" transform="translate(-136.09 -114.12)"/><path class="cls-5" d="M393.57,483.43q44.9,1,89.77,3,12.71.57,25.42,1.23c2.41.13,2.4-3.62,0-3.75q-44.85-2.31-89.75-3.57-12.72-.36-25.44-.63c-2.41-.05-2.41,3.7,0,3.75Z" transform="translate(-136.09 -114.12)"/></g></svg>