<svg xmlns="http://www.w3.org/2000/svg" xmlns:xlink="http://www.w3.org/1999/xlink" viewBox="0 0 392.35 584.4"><defs><style>.cls-1{fill:#1d1d1b;}.cls-2{opacity:0.51;}.cls-3{fill:#3e7ebc;}.cls-4{opacity:0.65;}.cls-5{fill:#f6a23d;}</style></defs><g id="Capa_2" data-name="Capa 2"><path class="cls-1" d="M220.88,199.43c7.5,23.6,9.73,48.41,8.4,73.06-1.36,25.17-6.27,50-12.67,74.35-6.49,24.61-14.86,48.65-22,73.06-7,23.87-12.79,48.33-13.88,73.27-1,23.38,2.09,47.18,11.6,68.69,1.16,2.63,2.43,5.2,3.77,7.74,1.51,2.84,5.83.32,4.32-2.52-11-20.69-15.11-44.22-14.86-67.47.26-24.7,5.5-49,12.21-72.64,6.95-24.52,15.44-48.57,22.17-73.15,6.59-24.07,11.78-48.62,13.84-73.52,2-24.54.79-49.51-5.49-73.39-.78-3-1.63-5.89-2.56-8.81s-5.8-1.75-4.82,1.33Z" transform="translate(-28.88 -18.6)"/><path class="cls-1" d="M219.19,600.55a241.68,241.68,0,0,0,43.59,2.27q10.85-.44,21.6-1.86a54.54,54.54,0,0,0,15.44-4c5.32-2.41,9.7-6.36,11.72-11.93a2.52,2.52,0,0,0-1.75-3.07,2.55,2.55,0,0,0-3.07,1.74c-3.17,8.73-14.39,11.19-22.5,12.31a228.51,228.51,0,0,1-40.75,1.83q-11.52-.48-22.95-2.08a2.58,2.58,0,0,0-3.07,1.75,2.51,2.51,0,0,0,1.74,3.07Z" transform="translate(-28.88 -18.6)"/><path class="cls-1" d="M269.77,204c-2.93,22.72-.93,45.68,3.72,68,4.74,22.77,12.09,44.89,19.56,66.88s15.27,44.23,20.94,66.92a280.23,280.23,0,0,1,8.63,72.3,271.35,271.35,0,0,1-11.25,73.36q-1.32,4.44-2.8,8.83c-1,3.06,3.81,4.37,4.83,1.33a277.13,277.13,0,0,0,13.87-73.27,277.71,277.71,0,0,0-6-73.3c-5-23-12.48-45.41-20.07-67.69-7.51-22.08-15.21-44.15-20.68-66.85-5.36-22.22-8.44-45.1-6.65-68,.22-2.86.53-5.72.89-8.57.18-1.35-1.27-2.48-2.5-2.5a2.57,2.57,0,0,0-2.5,2.5Z" transform="translate(-28.88 -18.6)"/><path class="cls-1" d="M223.23,186.19c.54-4.73.05-9.46-.39-14.17-.43-4.54-.9-9.25,0-13.75,1.31-6.41,5.47-11.12,11.37-13.86a24.71,24.71,0,0,1,17.94-1c6.3,2.11,11.26,7.39,14.16,13.34a33.76,33.76,0,0,1,2.21,23c-.81,3.12,4,4.45,4.82,1.33,3.92-15.15-1.84-34.31-16.83-41.28-13.21-6.13-31.47-1.05-37.24,13-4.39,10.7.21,22.33-1.05,33.39a2.52,2.52,0,0,0,2.5,2.5,2.55,2.55,0,0,0,2.5-2.5Z" transform="translate(-28.88 -18.6)"/><path class="cls-1" d="M344.69,334a200.05,200.05,0,0,0,10.64,123.32c3.34,7.93,7.05,15.68,10.57,23.53a190.08,190.08,0,0,1,9,23.41,123.59,123.59,0,0,1,4.64,25.31c1.42,17.57-.16,35.21-2.05,52.68l-.72,6.47a2.52,2.52,0,0,0,2.5,2.5,2.56,2.56,0,0,0,2.5-2.5c1.94-17.41,3.86-34.92,3.17-52.46a143.38,143.38,0,0,0-3.29-26,147.32,147.32,0,0,0-8-24.08c-6.5-15.47-14.34-30.34-19.53-46.35a196.46,196.46,0,0,1-5.89-98.42c.4-2,.84-4.05,1.3-6.06.73-3.14-4.09-4.47-4.82-1.33Z" transform="translate(-28.88 -18.6)"/><path class="cls-1" d="M349.1,334.72l50.82-.31c3.15,0,6.9-.48,9.44,1.74,2,1.73,3,4.33,3.63,6.8a67.87,67.87,0,0,1,1.56,9.39q.66,5.51,1.07,11a235.06,235.06,0,0,1-10.2,87.55,230.67,230.67,0,0,1-17.08,40.6c-.89,1.66-1.81,3.31-2.74,5-1.6,2.79,2.72,5.32,4.32,2.52a237.87,237.87,0,0,0,18.78-42,241.76,241.76,0,0,0,10.39-44.84,238.25,238.25,0,0,0,1.74-45.54,172.73,172.73,0,0,0-2.45-22.46c-1.17-6.1-4.09-12.82-10.77-14.32-4.07-.92-8.54-.43-12.67-.4l-13,.08-26.4.16-6.48,0c-3.22,0-3.22,5,0,5Z" transform="translate(-28.88 -18.6)"/><path class="cls-1" d="M364.09,586.82a39.5,39.5,0,0,1-21.62,3.73c-1.7-.18-2.74,1.73-2.41,3.16,1,4.23,5.79,4.71,9.36,4.63l15.17-.34,30.6-.69,17.41-.39c3.21-.08,3.22-5.08,0-5l-57.21,1.29c-2.57.06-5.17.23-7.74.15a5.94,5.94,0,0,1-2.14-.36,5.28,5.28,0,0,1-.54-.29c.13.09,0-.1-.09-.33l-2.41,3.17a44.41,44.41,0,0,0,24.15-4.41,2.5,2.5,0,0,0-2.53-4.32Z" transform="translate(-28.88 -18.6)"/><path class="cls-1" d="M339.71,318.05l2.7,1.35a2,2,0,0,0,.93.3,1.89,1.89,0,0,0,1-.05,1.78,1.78,0,0,0,.85-.44,1.87,1.87,0,0,0,.64-.7,2.56,2.56,0,0,0,.26-1.93,2.52,2.52,0,0,0-1.15-1.5l-2.71-1.35a1.78,1.78,0,0,0-.92-.29,2.59,2.59,0,0,0-2.5,1.19,2.5,2.5,0,0,0,.9,3.42Z" transform="translate(-28.88 -18.6)"/><path class="cls-1" d="M369.55,299.68v12.16a2.5,2.5,0,0,0,5,0V299.68a2.5,2.5,0,0,0-5,0Z" transform="translate(-28.88 -18.6)"/><path class="cls-1" d="M401.56,311.17c.2-.68.42-1.35.67-2,0-.06.3-.71.07-.18l.17-.39c.15-.32.3-.64.46-1,.32-.62.67-1.24,1-1.84.19-.3.38-.59.59-.88l.36-.52c0-.05.39-.51.19-.26s.2-.25.2-.24l.34-.41c.23-.27.46-.53.7-.79.48-.51,1-1,1.51-1.48l.81-.69.41-.33c-.28.22-.08.07.09-.05q.9-.66,1.86-1.23a2.5,2.5,0,0,0-2.53-4.31,26.31,26.31,0,0,0-11.76,15.24,2.5,2.5,0,1,0,4.82,1.33Z" transform="translate(-28.88 -18.6)"/><g class="cls-2"><path class="cls-3" d="M348.42,337.42A133.49,133.49,0,0,0,343.48,402c3.42,20.83,11.89,40.39,20.23,59.63q7.2,16.62,14.43,33.23c.93,2.14,3.83,4,6,4.6a10.23,10.23,0,0,0,7.71-1,10.12,10.12,0,0,0,4.59-6l.36-2.66a9.93,9.93,0,0,0-1.36-5c-6.15-14.16-12.4-28.28-18.4-42.5l1,2.39C371,428,364.65,411,362.22,393l.35,2.66a123.57,123.57,0,0,1,.05-32.49l-.36,2.66a123.45,123.45,0,0,1,5.45-23.07,10,10,0,0,0-19.29-5.32Z" transform="translate(-28.88 -18.6)"/></g><g class="cls-4"><path class="cls-5" d="M299.91,549.1a211.07,211.07,0,0,0,20.6-69.75A214.46,214.46,0,0,0,316.8,408a206.14,206.14,0,0,0-12.87-38.81c-1.06-2.4-4.74-3.15-6.84-1.8-2.48,1.6-2.93,4.28-1.79,6.84.28.65.57,1.29.85,1.94.16.39.33.77.49,1.16-.38-.91-.09-.21,0,0q.89,2.14,1.73,4.3c1.07,2.76,2.08,5.53,3,8.33q2.78,8.21,4.82,16.61t3.39,16.95c.22,1.39.42,2.79.62,4.18-.17-1.24.1.85.14,1.18q.16,1.26.3,2.52c.33,2.93.59,5.88.8,8.82a212.36,212.36,0,0,1-.45,34.58c-.14,1.4-.28,2.8-.44,4.2-.09.7-.17,1.4-.26,2.1-.05.42-.1.83-.16,1.25.12-.89,0-.09-.05.35q-.61,4.38-1.41,8.75-1.56,8.5-3.83,16.86c-1.69,6.24-3.68,12.41-6,18.46-.59,1.58-1.21,3.15-1.84,4.71-.11.26-.22.52-.32.78s-.64,1.54-.4,1-.25.58-.24.57l-.51,1.16c-1.35,3.1-2.79,6.15-4.29,9.18-1.17,2.33-.7,5.52,1.79,6.84,2.26,1.19,5.59.7,6.84-1.8Z" transform="translate(-28.88 -18.6)"/></g><g class="cls-2"><path class="cls-3" d="M234.07,177.56l-4.21,1.6,12.3,7a46.61,46.61,0,0,1-1.87-8.16l.36,2.66a47.56,47.56,0,0,1,0-12.33l-.36,2.65a45.59,45.59,0,0,1,3.08-11.34l-1,2.39a20.36,20.36,0,0,1,2.41-4.23l-1.57,2a12.11,12.11,0,0,1,2.06-2.05l-2,1.57a10.13,10.13,0,0,1,1.55-.91l-2.38,1a7.27,7.27,0,0,1,1.57-.47l-2.65.35a6.61,6.61,0,0,1,1.54,0l-2.66-.36a7.38,7.38,0,0,1,1.8.49l-2.39-1a8,8,0,0,1,1.33.77l-2-1.57a7,7,0,0,1,1.06,1l-1.56-2a6.41,6.41,0,0,1,.57,1l-1-2.39a5.81,5.81,0,0,1,.28,1.09l-.36-2.66a5.15,5.15,0,0,1,0,.88l.36-2.66-.06.3a10.79,10.79,0,0,0,1,7.7,10,10,0,0,0,13.68,3.59c2.08-1.34,4.13-3.45,4.6-6,.69-3.76.49-7.69-1.79-10.94A17,17,0,0,0,246.9,140c-6.11-2-13.18.36-17.35,5.12a36.24,36.24,0,0,0-7.28,14.51,56.12,56.12,0,0,0-2,15.09,55.13,55.13,0,0,0,2.62,16.77,10.4,10.4,0,0,0,4.6,6c2.25,1.19,5.22,1.95,7.7,1l4.22-1.6a10.85,10.85,0,0,0,6-4.6,10,10,0,0,0-3.59-13.68c-2.25-1.19-5.23-1.95-7.71-1Z" transform="translate(-28.88 -18.6)"/></g><g class="cls-2"><path class="cls-3" d="M235.83,203.31a65.47,65.47,0,0,1,15.62-4.19l-2.66.36a64.88,64.88,0,0,1,17,0l-2.65-.36c.74.1,1.48.22,2.22.34,2.72.46,5.24.44,7.71-1a10,10,0,0,0,3.58-13.68c-1.32-2.06-3.45-4.17-6-4.59-13.48-2.28-27.47-1.34-40.21,3.86-2.52,1-4.56,2.16-6,4.59a10.24,10.24,0,0,0-1,7.71,10.06,10.06,0,0,0,4.6,6c2.21,1.18,5.27,2,7.7,1Z" transform="translate(-28.88 -18.6)"/></g></g><g id="Capa_1" data-name="Capa 1"><image class="cls-4" width="2550" height="3300" transform="scale(0.05)" xlink:href="../../Downloads/logo%20digitalizado%20final-01.png"/></g></svg>