<svg xmlns="http://www.w3.org/2000/svg" xmlns:xlink="http://www.w3.org/1999/xlink" viewBox="0 0 652.47 602.88"><defs><style>.cls-1{opacity:0.51;}.cls-2{fill:#3e7ebc;}.cls-3{opacity:0.65;}.cls-4{fill:#f6a23d;}.cls-5{fill:#1d1d1b;}</style></defs><g id="Capa_4" data-name="Capa 4"><g class="cls-1"><path class="cls-2" d="M267.57,495.81,317.82,458l14.36-10.81L318.5,433.47q-2.43,3.58-5.08,7l1.57-2a141.36,141.36,0,0,1-25,25l2-1.57a141.28,141.28,0,0,1-12.19,8.43c-4.08,2.51-8.54,4.5-12.45,7.27-5.57,3.94-10.18,9.32-11.3,16.27a32,32,0,0,0-.31,9.31,70.53,70.53,0,0,0,1.77,9.34c1.57,5.86,3.34,11.58,4.16,17.61l-.36-2.65a80.52,80.52,0,0,1,0,20.75l.36-2.66c-.38,2.76-.94,5.49-1.19,8.27a18.68,18.68,0,0,0,2,9.82c2.36,4.88,7.21,7.61,12.06,9.44,3.26,1.22,6.74,1.88,10.08,2.83q5.73,1.62,11.36,3.58c4.23,1.47,8.42,3.09,12.55,4.83l-2.39-1a207,207,0,0,1,38.11,21.14c2,1.42,5.41,1.64,7.7,1a10.18,10.18,0,0,0,6-4.6,10.08,10.08,0,0,0,1-7.7,11.29,11.29,0,0,0-4.6-6,214.4,214.4,0,0,0-59.12-29c-2.8-.88-5.63-1.7-8.47-2.45a65.92,65.92,0,0,1-7.55-2.21l2.39,1a14.35,14.35,0,0,1-3.21-1.82l2,1.57A10.35,10.35,0,0,1,279,552.9l1.56,2a8.24,8.24,0,0,1-1-1.7l1,2.39a9.68,9.68,0,0,1-.44-1.66l.36,2.66a15.06,15.06,0,0,1,.09-3.91l-.36,2.66A133.54,133.54,0,0,0,282,540.18a93.08,93.08,0,0,0-1-15.64A90,90,0,0,0,278.2,512a82.91,82.91,0,0,1-2.79-11.49l.36,2.66a25.31,25.31,0,0,1-.1-6.27l-.36,2.66a16.46,16.46,0,0,1,1.09-4l-1,2.38a15.34,15.34,0,0,1,1.78-3l-1.56,2a18.4,18.4,0,0,1,3.09-3l-2,1.57c3.87-2.93,8.41-4.92,12.55-7.43a139.64,139.64,0,0,0,12.08-8.23,151.48,151.48,0,0,0,23-21.27,162.3,162.3,0,0,0,11.47-14.92l1-2.39a7.63,7.63,0,0,0,.17-4,9.48,9.48,0,0,0-2.75-5.74,11.81,11.81,0,0,0-4.41-2.57c-2.13-.69-5.85-.39-7.7,1l-50.26,37.84-14.36,10.81c-2.16,1.63-3.84,3.26-4.59,6a10.2,10.2,0,0,0,1,7.7,10,10,0,0,0,6,4.6c2.45.55,5.61.57,7.71-1Z" transform="translate(-18.59 -6.34)"/></g><g class="cls-1"><path class="cls-2" d="M328.46,487a47.18,47.18,0,0,1-2.68-9.31l-.21-1.25c-.22-1.39.11,1.06,0-.34-.09-.84-.17-1.68-.22-2.53-.1-1.61-.11-3.23-.05-4.85q0-1.15.15-2.31c0-.42.08-.84.12-1.26.15-1.41-.18,1.05,0-.35.25-1.6.56-3.18,1-4.75A46,46,0,0,1,328,455.4l.45-1.18c.39-1-.34.7.16-.36.35-.77.71-1.54,1.09-2.29,1.18-2.33.69-5.53-1.8-6.84-2.27-1.2-5.57-.7-6.84,1.79a52.82,52.82,0,0,0-2.21,43.11c1,2.42,3.38,4.39,6.15,3.5,2.34-.76,4.54-3.56,3.49-6.15Z" transform="translate(-18.59 -6.34)"/></g><g class="cls-1"><path class="cls-2" d="M329.88,486.84a49.28,49.28,0,0,1-2.76-9.13c-.15-.78-.27-1.56-.4-2.35-.11-.61.08.81,0-.17-.05-.44-.09-.87-.13-1.3-.15-1.58-.22-3.18-.22-4.77s.08-3.18.23-4.77c0-.36.08-.72.12-1.08.05-.61-.14.81,0-.17s.27-1.72.44-2.57a49.91,49.91,0,0,1,2.78-9.11c1-2.43-1.07-5.6-3.49-6.15-2.91-.67-5.08.89-6.15,3.49a54.66,54.66,0,0,0-.06,40.74c1,2.41,3.37,4.39,6.15,3.49,2.33-.75,4.55-3.56,3.5-6.15Z" transform="translate(-18.59 -6.34)"/></g><g class="cls-1"><path class="cls-2" d="M270.57,498.69a257.48,257.48,0,0,0,50.25,2.49,442.37,442.37,0,0,0,50-5.47c8.68-1.38,17.71-2.33,24.76-8.07,2-1.66,1.85-5.37,0-7.07-2.16-2-4.9-1.77-7.07,0-1,.84.85-.49-.29.2-.34.21-.67.44-1,.65-.7.41-1.42.77-2.16,1.11,1.11-.51-.12,0-.31.1-.38.15-.77.28-1.16.4-.91.3-1.84.55-2.77.78-3.6.87-7.3,1.4-11,2q-5.78.94-11.57,1.77l-2.9.4c-.07,0-1.66.23-.6.09l-1.45.19q-3.15.4-6.3.77a326.39,326.39,0,0,1-47.6,2.33c-4.52-.14-9.05-.41-13.56-.8-2.25-.2-4.51-.43-6.76-.7l-1.44-.18-1.08-.14c-1.13-.15-2.25-.32-3.37-.49-2.58-.39-5.51.65-6.15,3.49-.55,2.39.72,5.73,3.49,6.16Z" transform="translate(-18.59 -6.34)"/></g><g class="cls-1"><path class="cls-2" d="M274.53,509.72c15.38,2.25,30.85,3.88,46.38,4.77,7.36.43,14.87,1,22.22.16,7.83-.95,15.43-3.2,23.18-4.59q3.12-.56,6.27-1l1-.14,1-.14c-.52.07-.48.07.13,0l3.39-.41c4.21-.47,8.44-.79,12.67-1,2.6-.12,5.12-2.21,5-5-.12-2.6-2.21-5.13-5-5a212.16,212.16,0,0,0-23.19,2.42c-7.38,1.18-14.57,3.12-21.9,4.48-.95.17-1.9.33-2.86.47.94-.13-.11,0-.34,0l-1.19.11c-1.91.17-3.82.22-5.73.22-3.72,0-7.43-.2-11.14-.39Q313,504.11,301.76,503q-6.37-.6-12.73-1.37-3.16-.37-6.35-.8c-1-.14-.35-.05-.13,0l-1.95-.27-3.41-.49a5.5,5.5,0,0,0-3.86.51,5.07,5.07,0,0,0-2.29,3c-.54,2.37.72,5.75,3.49,6.15Z" transform="translate(-18.59 -6.34)"/></g><g class="cls-1"><path class="cls-2" d="M276.07,527.34c14.65,4.77,30.25,6,45.59,5.83,15.73-.14,31.49-1.32,47.13-3q13.93-1.5,27.79-3.66c2.59-.4,4.25-3.79,3.49-6.15-.91-2.82-3.37-3.92-6.15-3.49-2,.3-3.91.6-5.87.88l-2.93.42-1,.13c-.18,0-2.09.28-1.12.16q-5.88.78-11.77,1.44-11.79,1.3-23.63,2.13c-15,1-30.15,1.81-45.15.44l-3.25-.33-1.38-.17c-.29,0-1.42-.19-.52-.06-2.15-.31-4.3-.66-6.43-1.07a103.85,103.85,0,0,1-12.16-3.15,5,5,0,0,0-6.15,3.49,5.1,5.1,0,0,0,3.49,6.15Z" transform="translate(-18.59 -6.34)"/></g><g class="cls-1"><path class="cls-2" d="M277.49,529.92a378.43,378.43,0,0,0,90.06-.71c8.63-1.11,17.22-2.46,25.76-4.13a5,5,0,0,0,3.49-6.15,5.13,5.13,0,0,0-6.15-3.49q-5.47,1.06-11,2-2.62.44-5.27.83l-2.88.42-1.44.21-.6.08q-11.07,1.49-22.2,2.29a377.63,377.63,0,0,1-44.63.64q-12.6-.55-25.15-2c-2.61-.29-5.12,2.51-5,5,.13,3,2.2,4.69,5,5Z" transform="translate(-18.59 -6.34)"/></g><g class="cls-1"><path class="cls-2" d="M273.17,507.08c14.51,6.4,30.08,9.47,45.89,10.11,16.23.65,32.45-1.31,48.41-4.14,9.11-1.61,18.17-3.54,27.22-5.49a5,5,0,0,0,3.49-6.15,5.11,5.11,0,0,0-6.15-3.49c-7.86,1.69-15.72,3.37-23.63,4.84-3.9.72-7.82,1.4-11.75,2l-2.89.43-1.45.2a5.44,5.44,0,0,1-.6.08q-3.13.4-6.27.74a187.52,187.52,0,0,1-23,1.08c-3.64-.07-7.28-.26-10.9-.59-1.81-.17-3.62-.36-5.42-.61,1.16.16-.33,0-.47-.07l-1.34-.2c-1-.17-2.09-.34-3.13-.53a115.85,115.85,0,0,1-11.88-2.83c-2-.6-4-1.26-6-2-1-.36-2-.74-3-1.13l-1.26-.52c1,.41-.72-.31-.88-.39-2.39-1.05-5.49-.78-6.84,1.8-1.15,2.17-.76,5.71,1.79,6.84Z" transform="translate(-18.59 -6.34)"/></g><g class="cls-1"><path class="cls-2" d="M268.06,490.75c14.2,8.56,30.72,11.8,47.1,12.54a236,236,0,0,0,24.23-.32c8.63-.49,17.27-1.1,25.86-2.09a149.57,149.57,0,0,0,30.29-6.19c2.48-.82,4.35-3.48,3.49-6.15-.8-2.46-3.49-4.37-6.15-3.49a115.92,115.92,0,0,1-12.69,3.43q-3.22.67-6.47,1.21c-1,.17-2,.33-3,.48l-1.64.23-.26,0-.74.1c-8.47,1.08-17,1.7-25.5,2.24-7.92.5-15.86.83-23.8.64-3.87-.1-7.74-.31-11.59-.7-1-.1-1.95-.21-2.92-.33-.42-.05-1.24-.11-.33,0-.55,0-1.11-.16-1.66-.24-1.92-.3-3.83-.64-5.73-1.05A86,86,0,0,1,284,487.47L282.7,487c-.28-.11-1.7-.71-.72-.28-1-.44-2-.89-3-1.37q-3-1.46-5.86-3.18a5,5,0,1,0-5.05,8.63Z" transform="translate(-18.59 -6.34)"/></g><g class="cls-1"><path class="cls-2" d="M323.24,542.23a140.42,140.42,0,0,0,12.91,48.83,133.71,133.71,0,0,0,6.61,12.32,5,5,0,0,0,8.63-5q-3.11-5.13-5.74-10.51c-.87-1.8-1.71-3.61-2.5-5.45l-.27-.61c0,.08.3.71.08.17l-.6-1.43c-.38-1-.76-1.93-1.13-2.9a133.87,133.87,0,0,1-6.36-22.84c-.2-1.09-.39-2.19-.57-3.28-.08-.51-.16-1-.23-1.54,0-.29-.08-.58-.13-.88-.12-.78.1.8,0,0-.28-2.27-.52-4.55-.7-6.84-.21-2.6-2.16-5.13-5-5-2.54.11-5.22,2.21-5,5Z" transform="translate(-18.59 -6.34)"/></g><g class="cls-1"><path class="cls-2" d="M326.79,537.94a185.16,185.16,0,0,0,1.61,25.45c.54,4.42,1.15,8.84,1.76,13.26a56.86,56.86,0,0,0,2.43,11.7,47.34,47.34,0,0,0,6.94,12.16c1.57,2.09,4.39,3.37,6.84,1.8,2.06-1.33,3.48-4.61,1.8-6.85-1.13-1.49-2.22-3-3.22-4.59-.48-.75-.94-1.52-1.37-2.31-.21-.39-.42-.79-.61-1.19s-.68-1.47-.33-.63a44.15,44.15,0,0,1-2.6-11.11c-.29-2-.56-4-.84-6,0-.32-.09-.65-.13-1-.08-.6,0,0,0,.11-.06-.49-.13-1-.19-1.46-.14-1.06-.27-2.11-.4-3.17-.51-4.06-.95-8.13-1.25-12.21-.35-4.65-.53-9.31-.45-14a5,5,0,0,0-10,0Z" transform="translate(-18.59 -6.34)"/></g><g class="cls-1"><path class="cls-2" d="M323.38,542c1.36,17.33,3,35.06,10.5,51a65,65,0,0,0,8,12.7c1.63,2.06,5.39,1.83,7.07,0,2-2.18,1.74-4.87,0-7.07-.13-.17-.58-.75,0,.06-.13-.16-.25-.32-.37-.49-.28-.37-.55-.75-.82-1.13-.62-.87-1.21-1.76-1.78-2.66q-1.57-2.54-2.91-5.21c-.41-.82-.81-1.66-1.18-2.51-.12-.25-.88-1.66-.29-.63a12.67,12.67,0,0,1-.59-1.48q-1.08-2.81-2-5.67A106.75,106.75,0,0,1,336.27,567c-.38-2-.7-4-1-6.06l-.12-.81c0-.1-.11-.79,0-.15s-.1-.75-.12-1c-.14-1.09-.27-2.17-.39-3.26-.51-4.61-.89-9.22-1.25-13.84-.21-2.6-2.16-5.12-5-5-2.54.12-5.22,2.21-5,5Z" transform="translate(-18.59 -6.34)"/></g><g class="cls-1"><path class="cls-2" d="M255,565.55a120.91,120.91,0,0,0,26.83,18.13c10.46,5.12,21.66,8.66,32.61,12.55l18.87,6.69a5,5,0,0,0,6.15-3.49,5.12,5.12,0,0,0-3.49-6.16q-16.26-5.76-32.53-11.53c-2.71-1-5.4-1.94-8.07-3l-1.78-.71-.88-.36c-.92-.37-.33-.13-.13-.05-1.25-.52-2.49-1.08-3.72-1.65a115.94,115.94,0,0,1-13.46-7.42q-3.69-2.37-7.21-5l-.7-.53c.85.64-.3-.24-.37-.3l-1.71-1.38c-1.13-.93-2.24-1.89-3.34-2.86-1.95-1.73-5.17-2.07-7.07,0-1.74,1.9-2.09,5.22,0,7.07Z" transform="translate(-18.59 -6.34)"/></g><g class="cls-3"><path class="cls-4" d="M174,320.65a1.31,1.31,0,0,1,.12.47l-.26-2v.21l.27-2,0,.2.76-1.79-.08.18a4.55,4.55,0,0,1,1.48-1.63c1.05-.81.49-.38.11-.22l1.79-.76a5.34,5.34,0,0,1-.81.21l2-.27a6,6,0,0,1-1.46,0l2,.27a7,7,0,0,1-1.47-.46l1.79.75a17.28,17.28,0,0,1-2.51-1.34c-.21-.13-.4-.27-.6-.41q-.92-.67.66.51c-.33-.34-.74-.62-1.08-.95s-.66-.7-1-1.05c-.86-.91,1.15,1.68.09.12a13.11,13.11,0,0,1-1.3-2.42l.75,1.8a12.1,12.1,0,0,1-.68-2.56l.26,2a10.23,10.23,0,0,1,0-2.28l-.27,2a10.65,10.65,0,0,1,.51-1.94l-.75,1.79c1.12-2.67,3.36-4.64,4.64-7.23a34,34,0,0,0,3.1-11.21c.78-6.22.67-12.58.89-18.84l.35-10.33c.06-1.6.18-3.2.16-4.8a10,10,0,0,0-4.55-8.78c-4-2.43-8.66-1-12.91-.29l-10.24,1.69-22.92,3.78a7.53,7.53,0,0,0-4.48,3.45,7.68,7.68,0,0,0-.76,5.78,7.57,7.57,0,0,0,3.45,4.48,8.61,8.61,0,0,0,5.78.76c12.63-2.09,25.24-4.32,37.89-6.25l-2,.26a6.94,6.94,0,0,1,1.44,0l-2-.27a2.41,2.41,0,0,1,.65.18L171,260.7c-1.77-2.26-2.35-2.82-1.76-1.69l-.75-1.79a3.5,3.5,0,0,1,.17.71l-.27-2a80.15,80.15,0,0,1-.24,8.76l-.31,9.1c-.19,5.6-.12,11.3-.82,16.87l.27-2a26.9,26.9,0,0,1-1.58,6.31l.75-1.79c-1.77,4.19-5.47,7.11-6.35,11.75a17.82,17.82,0,0,0,3.1,13.94,24.35,24.35,0,0,0,11.85,8.94,11.87,11.87,0,0,0,9.1-.89c3.5-2,5.74-6.3,4.3-10.27a8.05,8.05,0,0,0-3.44-4.49,7.63,7.63,0,0,0-5.78-.75c-3.62,1.17-6.67,5.27-5.24,9.22Z" transform="translate(-18.59 -6.34)"/></g><g class="cls-3"><path class="cls-4" d="M174.87,319.71c.89-1.08,1.08-1.36.57-.83-.4.34-.3.27.29-.21,1.13-.89.08-.15-.26,0l1.79-.76a7.46,7.46,0,0,1-1.45.41l2-.27a7.81,7.81,0,0,1-2.16,0l2,.27a8.69,8.69,0,0,1-1.81-.51l1.79.76a11.79,11.79,0,0,1-1.11-.59c-1.05-.58,1.62,1.38.32.19-.51-.58-.35-.36.46.66-.14-.2-.27-.4-.4-.61a10.11,10.11,0,0,1-.65-1.32l.76,1.8a12.53,12.53,0,0,1-.72-2.88l.27,2a15.85,15.85,0,0,1,.05-3.77l-.27,2a30.07,30.07,0,0,1,2.18-7l-.76,1.79A92.93,92.93,0,0,0,182.25,299a73.8,73.8,0,0,0,2.09-12.44,108.91,108.91,0,0,0-.7-22.68c-.56-4.78-1.26-9.54-2-14.31a7.46,7.46,0,0,0-3.45-4.48,8,8,0,0,0-5.78-.75l-38.08,9.48,4,14.46a260.55,260.55,0,0,1,34-7.62,7.54,7.54,0,0,0,4.48-3.44,7.5,7.5,0,0,0-2.69-10.27,8.67,8.67,0,0,0-5.78-.75,258.43,258.43,0,0,0-34,7.62c-3.76,1.11-6.51,5.32-5.24,9.22a7.64,7.64,0,0,0,9.22,5.24l38.09-9.48-9.23-5.24c.43,2.83.85,5.66,1.24,8.49l-.27-2c1.31,9.79,2.15,19.74.83,29.58l.27-2a57.58,57.58,0,0,1-4,14.52l.76-1.79c-1.62,3.79-3.56,7.6-4.17,11.72-.7,4.67-.42,9.38,2,13.58a15,15,0,0,0,11.79,7.42,12.45,12.45,0,0,0,5.32-.56,13.84,13.84,0,0,0,6.85-5.21c1.1-1.43,1.21-4.13.76-5.78a7.67,7.67,0,0,0-3.45-4.48,7.59,7.59,0,0,0-5.78-.76,8.9,8.9,0,0,0-4.48,3.45Z" transform="translate(-18.59 -6.34)"/></g><g class="cls-1"><path class="cls-2" d="M145.52,326.75c-6.64,7-10.07,16.08-12.34,25.34s-4.1,18.49-5.72,27.81a551.67,551.67,0,0,0-7,59.42c-1.22,19.14-1.5,38.33-1,57.5s1.66,38.52,3.4,57.72c.21,2.32.43,4.63.66,7a38.52,38.52,0,0,0,1.31,8.13,19.59,19.59,0,0,0,5.23,8.62,25.42,25.42,0,0,0,8.7,5A64,64,0,0,0,152,586a115.4,115.4,0,0,0,16.61,1.22q3.62,0,7.23-.32a10.63,10.63,0,0,0,7.07-2.93,10,10,0,0,0,0-14.14c-1.87-1.72-4.45-3.14-7.07-2.93a102.74,102.74,0,0,1-21.18-.54l2.66.36c-4.77-.65-9.84-1.34-14.31-3.23l2.39,1a14.88,14.88,0,0,1-2.63-1.5l2,1.56a10.34,10.34,0,0,1-1.61-1.56l1.56,2a10.48,10.48,0,0,1-1.2-2l1,2.38a18.5,18.5,0,0,1-1.15-4.59l.36,2.66c-1.3-10.36-2-20.85-2.65-31.26q-1.06-15.87-1.54-31.78c-.6-21.17-.32-42.37,1.11-63.51q1.2-17.73,3.55-35.37l-.36,2.66c1.37-10.16,3-20.28,5-30.34q1.48-7.47,3.23-14.9a81,81,0,0,1,3.76-12.38l-1,2.39a36.39,36.39,0,0,1,4.54-8l-1.56,2c.58-.74,1.19-1.45,1.84-2.14a10.44,10.44,0,0,0,2.93-7.07,10.18,10.18,0,0,0-2.93-7.07c-3.9-3.58-10.31-4.07-14.14,0Z" transform="translate(-18.59 -6.34)"/></g><g class="cls-1"><path class="cls-2" d="M442.8,426.17a22.84,22.84,0,0,1-3.15,3l2-1.57a24,24,0,0,1-5.05,2.93l2.39-1a26.63,26.63,0,0,1-6.56,1.76l2.65-.35a28.51,28.51,0,0,1-7.15,0l2.65.36a27.77,27.77,0,0,1-6.88-1.84l2.39,1a24.51,24.51,0,0,1-5.31-3.1l2,1.57a22.84,22.84,0,0,1-3.71-3.71l1.56,2a27.27,27.27,0,0,1-3.41-5.93l1,2.39a36,36,0,0,1-2.23-8.63l.36,2.66c-.93-7.27-.17-14.6.64-21.84l3-26.95q3-26.82,6-53.65c1.08-9.74,2-19.5,3.35-29.21l-.36,2.65c1.41-10.43,3.43-20.83,7.52-30.58l-1,2.39a79.3,79.3,0,0,1,10.12-17.26l-1.57,2a79.6,79.6,0,0,1,10.3-10.94,10,10,0,0,0-7.07-17.07,11,11,0,0,0-7.07,2.92c-14.25,12.53-23.63,29.62-27.85,48C410.16,278,409.08,288,408,298s-2.25,20.11-3.37,30.17Q401.26,358,397.92,388c-2,17.83-5.31,38.91,8.58,53.14,6.07,6.22,14.45,9.35,23,10a35.62,35.62,0,0,0,11.76-1.23,31.31,31.31,0,0,0,10.51-5,32,32,0,0,0,5.17-4.55,10.58,10.58,0,0,0,2.93-7.07,10.18,10.18,0,0,0-2.93-7.07,10.07,10.07,0,0,0-7.07-2.93c-2.54.12-5.34.94-7.07,2.93Z" transform="translate(-18.59 -6.34)"/></g><g class="cls-1"><path class="cls-2" d="M455.92,221.47a39.2,39.2,0,0,1,.07-9.86l-.36,2.66a42.1,42.1,0,0,1,.82-4.2,10.47,10.47,0,0,0-1-7.71,11.25,11.25,0,0,0-6-4.59,10.13,10.13,0,0,0-7.71,1,10.24,10.24,0,0,0-4.59,6,46.66,46.66,0,0,0-1.25,16.72,7.49,7.49,0,0,0,.86,3.85,9,9,0,0,0,5.28,5.29,7.55,7.55,0,0,0,3.86.86,10.1,10.1,0,0,0,7.07-2.93l1.56-2a10,10,0,0,0,1.37-5.05Z" transform="translate(-18.59 -6.34)"/></g><g class="cls-1"><path class="cls-2" d="M454.46,228.68a34.25,34.25,0,0,0,3-8.72,34.86,34.86,0,0,0,.57-9.28,10.28,10.28,0,0,0-10-10,10.13,10.13,0,0,0-7.07,2.93c-1.7,1.84-3.19,4.48-2.93,7.07a25.75,25.75,0,0,1-.09,5.82l.36-2.66a25.8,25.8,0,0,1-1.78,6.5l1-2.39c-.09.21-.19.43-.29.64a9.66,9.66,0,0,0,.79,11.1,7.56,7.56,0,0,0,2.8,2.58,10.1,10.1,0,0,0,7.71,1l2.39-1a10.09,10.09,0,0,0,3.58-3.59Z" transform="translate(-18.59 -6.34)"/></g><g class="cls-3"><path class="cls-4" d="M412.73,510a23.49,23.49,0,0,0,4.93.88,14.18,14.18,0,0,0,3.19,0,23.81,23.81,0,0,0,4.83-.91,23.43,23.43,0,0,0,4.6-2.06,7.78,7.78,0,0,0,3.45-4.48,7.68,7.68,0,0,0-.76-5.78,7.54,7.54,0,0,0-4.48-3.44,7.77,7.77,0,0,0-5.78.75,16.47,16.47,0,0,1-1.72.89l1.79-.76a14.66,14.66,0,0,1-3.73,1l2-.26a15.66,15.66,0,0,1-3.87,0l2,.26a14.71,14.71,0,0,1-2.45-.55,7.5,7.5,0,0,0-9.23,5.24,7.59,7.59,0,0,0,.76,5.77,8.09,8.09,0,0,0,4.48,3.45Z" transform="translate(-18.59 -6.34)"/></g><g class="cls-3"><path class="cls-4" d="M430.22,493.59l3.91-36.65a7.5,7.5,0,0,0-2.2-5.3,7.5,7.5,0,0,0-10.61,0,8.6,8.6,0,0,0-2.19,5.3l-3.91,36.65A7.51,7.51,0,0,0,428,498.9a8.61,8.61,0,0,0,2.19-5.31Z" transform="translate(-18.59 -6.34)"/></g></g><g id="Capa_2" data-name="Capa 2"><path class="cls-5" d="M132.52,354.27c-6.46,26.41-9.71,53.51-10.89,80.65-1.17,26.92-.36,53.87,1,80.76.79,15.17,1.76,30.34,2.67,45.5.09,1.6,2.59,1.61,2.5,0-1.61-26.84-3.42-53.69-4-80.58s-.05-53.92,3.1-80.69a372.64,372.64,0,0,1,8-45,1.25,1.25,0,0,0-2.41-.66Z" transform="translate(-18.59 -6.34)"/><path class="cls-5" d="M228.5,394.63q1,27.27,1.67,54.56.69,27.12,1.08,54.25.23,15.31.37,30.62a1.25,1.25,0,0,0,2.5,0q-.26-27.13-.77-54.29T232,425.45q-.47-15.4-1-30.82c-.06-1.61-2.56-1.61-2.5,0Z" transform="translate(-18.59 -6.34)"/><path class="cls-5" d="M130.35,573.54A98.11,98.11,0,0,0,169.19,586a89.4,89.4,0,0,0,39.72-4.84,81.1,81.1,0,0,0,20-10.72c1.28-.95,0-3.12-1.26-2.16A81.22,81.22,0,0,1,191.56,583a91.94,91.94,0,0,1-39.06-2.77,95.61,95.61,0,0,1-20.89-8.86,1.25,1.25,0,0,0-1.26,2.16Z" transform="translate(-18.59 -6.34)"/><path class="cls-5" d="M173.36,283.08a50.45,50.45,0,0,0-2.42-21.33c-.51-1.51-2.93-.86-2.41.67a48.6,48.6,0,0,1,2.33,20.66c-.17,1.6,2.33,1.59,2.5,0Z" transform="translate(-18.59 -6.34)"/><path class="cls-5" d="M182.57,285.94a138.4,138.4,0,0,1-.6-28.34c.13-1.6-2.37-1.59-2.5,0a138.4,138.4,0,0,0,.6,28.34c.19,1.57,2.69,1.59,2.5,0Z" transform="translate(-18.59 -6.34)"/><path class="cls-5" d="M164.87,258.47a22.74,22.74,0,0,1,6,11.4c.94,4.59.7,9.35.5,14-.07,1.61,2.43,1.6,2.5,0,.22-5,.41-10.15-.69-15.1a25,25,0,0,0-6.52-12.07c-1.12-1.15-2.89.62-1.76,1.77Z" transform="translate(-18.59 -6.34)"/><path class="cls-5" d="M180.38,255.52a366.34,366.34,0,0,0-42.44,4.76c-1.58.27-.91,2.68.66,2.41A362,362,0,0,1,180.38,258c1.6-.09,1.61-2.59,0-2.5Z" transform="translate(-18.59 -6.34)"/><path class="cls-5" d="M138.37,259.79c-1.28-1.47-2.85-3-4.93-3.07a3.69,3.69,0,0,0-3.9,3.3,1.25,1.25,0,0,0,2.5,0c0-.28-.08.27,0,0,0-.06,0-.13.05-.19s-.13.23,0,.05l.12-.2s-.21.23,0,0l.14-.14.06-.06h0c-.08.07-.08.07,0,0l.06-.05.22-.12c.19-.11-.17.05,0,0s.29-.1.44-.13.28-.08.09,0,0,0,.08,0h.34c.11,0,.11,0,0,0s-.11,0,0,0l.13,0,.23.06.25.09c-.25-.08,0,0,.09,0l.45.26.26.18c.19.13-.06-.06,0,0a21.15,21.15,0,0,1,1.62,1.66,1.27,1.27,0,0,0,1.77,0,1.29,1.29,0,0,0,0-1.77Z" transform="translate(-18.59 -6.34)"/><path class="cls-5" d="M131.33,258.58c10.66-3,21.48-5.43,32.32-7.73L180,247.4l3.86-.81a11.29,11.29,0,0,1,3.86-.49c1.94.27,2.76,2,3.13,3.73a14.88,14.88,0,0,1,.25,3.12,5.74,5.74,0,0,1-.07,1.66c-.21.62-.88.64-1.45.74a36.57,36.57,0,0,1-9.63.45c-1.6-.12-1.59,2.38,0,2.5a40.35,40.35,0,0,0,9.57-.41,5.57,5.57,0,0,0,3.13-1.15,4.34,4.34,0,0,0,.94-3.14c.14-3.89-.72-9.2-5.37-9.95a10.6,10.6,0,0,0-3.84.28l-4.81,1-9.43,2c-6.22,1.31-12.45,2.61-18.65,4-7,1.58-14,3.29-20.86,5.24a1.25,1.25,0,0,0,.67,2.41Z" transform="translate(-18.59 -6.34)"/><path class="cls-5" d="M131.07,262.05l6.54,1.24a1.25,1.25,0,0,0,.67-2.41l-6.55-1.24a1.28,1.28,0,0,0-1.54.88,1.26,1.26,0,0,0,.88,1.53Z" transform="translate(-18.59 -6.34)"/><path class="cls-5" d="M140.47,343.75a30.75,30.75,0,0,1,15.79-18.46c1.44-.71.18-2.86-1.26-2.16a33.19,33.19,0,0,0-16.94,20c-.48,1.54,1.94,2.2,2.41.66Z" transform="translate(-18.59 -6.34)"/><path class="cls-5" d="M166.31,327.51a36.23,36.23,0,0,0,26.93-3.13c1.41-.78.15-2.94-1.26-2.16a33.66,33.66,0,0,1-25,2.88,1.25,1.25,0,0,0-.66,2.41Z" transform="translate(-18.59 -6.34)"/><path class="cls-5" d="M201.09,322.27a56,56,0,0,1,24.44,35.9,53,53,0,0,1,1,12.5c-.06,1.61,2.44,1.61,2.5,0a58.44,58.44,0,0,0-16.45-42.23,56.07,56.07,0,0,0-10.24-8.32c-1.36-.87-2.62,1.29-1.26,2.15Z" transform="translate(-18.59 -6.34)"/></g><g id="Capa_3" data-name="Capa 3"><path class="cls-5" d="M652.51,7.35c-4.9-3.09-10,1.52-12.51,5.54a67.13,67.13,0,0,0-7,15.8c-1.64,5.46-2.33,11.53,1.63,16.19,3.41,4,9.12,5.87,14,7.34a69.43,69.43,0,0,0,20,2.93c3.22,0,3.23-5,0-5a63.92,63.92,0,0,1-15.09-1.77c-4.4-1.06-9.1-2.4-12.94-4.88a8.33,8.33,0,0,1-3.54-4.08,11.8,11.8,0,0,1-.09-6.24,54.57,54.57,0,0,1,5-13.64,26.27,26.27,0,0,1,3.83-6.16c1.12-1.18,2.75-2.6,4.14-1.72,2.73,1.73,5.24-2.6,2.53-4.31Z" transform="translate(-18.59 -6.34)"/><path class="cls-5" d="M396,427a37.18,37.18,0,0,0,22.44,18.55c9.57,3,20.08,2.88,29.79.55,5.67-1.36,11.15-3.85,13.74-9.44,1-2.18-2.23-4.08-3.24-1.89-2,4.38-6.07,6.34-10.54,7.47a57.73,57.73,0,0,1-13.65,1.82c-9,.1-18.18-2-25.56-7.32a31.87,31.87,0,0,1-9.74-11.63c-1.09-2.16-4.32-.26-3.24,1.89Z" transform="translate(-18.59 -6.34)"/><path class="cls-5" d="M398.93,401.34q5.43-28.23,9.64-56.67t6.92-57.09c1-10.47,1.69-21,4.6-31.2.67-2.33-2.95-3.32-3.62-1-2.58,9-3.46,18.36-4.31,27.65q-1.29,14.19-2.94,28.35-3.36,28.56-8.14,56.92-2.68,16.05-5.77,32.05c-.45,2.35,3.16,3.36,3.62,1Z" transform="translate(-18.59 -6.34)"/><path class="cls-5" d="M478.71,274.88c-1.8,18-4.25,36-6.83,53.9s-5.28,35.82-7.56,53.78c-1.28,10.05-2.42,20.13-3.34,30.23-.22,2.4,3.53,2.38,3.75,0,1.63-18,4-35.82,6.52-53.67s5.27-35.87,7.65-53.84c1.33-10.11,2.55-20.24,3.56-30.4a1.87,1.87,0,0,0-1.87-1.87,1.92,1.92,0,0,0-1.88,1.87Z" transform="translate(-18.59 -6.34)"/><path class="cls-5" d="M446.27,223.78a42.16,42.16,0,0,0,1.33-17.48,1.88,1.88,0,0,0-2.3-1.31A1.92,1.92,0,0,0,444,207.3a37.87,37.87,0,0,1-1.33,15.48c-.68,2.32,2.94,3.31,3.61,1Z" transform="translate(-18.59 -6.34)"/><path class="cls-5" d="M447.05,202.68c4.47,2.75,9.81,2.39,14.29-.13a1.88,1.88,0,1,0-1.9-3.24A11.4,11.4,0,0,1,454,200.9a9.15,9.15,0,0,1-5.06-1.45,1.87,1.87,0,1,0-1.9,3.23Z" transform="translate(-18.59 -6.34)"/><path class="cls-5" d="M460.07,199.7c-2.86,8.63-3.29,18.84.43,27.28a1.89,1.89,0,0,0,2.57.67,1.91,1.91,0,0,0,.67-2.56c-3.3-7.48-2.56-16.81-.05-24.39.76-2.29-2.86-3.28-3.62-1Z" transform="translate(-18.59 -6.34)"/><path class="cls-5" d="M416.88,271l13.66,2.62a1.93,1.93,0,0,0,2.31-1.31,1.9,1.9,0,0,0-1.31-2.31l-13.66-2.62a1.93,1.93,0,0,0-2.31,1.31,1.9,1.9,0,0,0,1.31,2.31Z" transform="translate(-18.59 -6.34)"/><path class="cls-5" d="M415.27,286.41l5.13,1a2,2,0,0,0,1.44-.19,1.88,1.88,0,0,0,.67-2.57,1.83,1.83,0,0,0-1.12-.86l-5.12-1a2,2,0,0,0-1.45.19,1.87,1.87,0,0,0-.67,2.56,1.84,1.84,0,0,0,1.12.87Z" transform="translate(-18.59 -6.34)"/><path class="cls-5" d="M412.81,306.56l4,.77a2.09,2.09,0,0,0,1.45-.19,1.88,1.88,0,0,0,.67-2.57,1.86,1.86,0,0,0-1.12-.86l-4-.76a2,2,0,0,0-1.44.19,1.87,1.87,0,0,0-.86,1.12,1.9,1.9,0,0,0,.18,1.44,1.88,1.88,0,0,0,1.13.86Z" transform="translate(-18.59 -6.34)"/><path class="cls-5" d="M410.06,321.76l10.82,2.07a1.87,1.87,0,1,0,1-3.61l-10.81-2.08a1.93,1.93,0,0,0-2.31,1.31,1.9,1.9,0,0,0,1.31,2.31Z" transform="translate(-18.59 -6.34)"/><path class="cls-5" d="M409.64,340.34l2.28.44a2.17,2.17,0,0,0,1.45-.19,2.14,2.14,0,0,0,.86-1.12A1.9,1.9,0,0,0,414,338a1.84,1.84,0,0,0-1.12-.87l-2.28-.43a1.47,1.47,0,0,0-.75,0,1.32,1.32,0,0,0-.69.23,1.29,1.29,0,0,0-.53.48,1.27,1.27,0,0,0-.33.64,1.86,1.86,0,0,0,1.3,2.3Z" transform="translate(-18.59 -6.34)"/><path class="cls-5" d="M404.45,356.05l2.28.43a2.07,2.07,0,0,0,1.44-.18,1.39,1.39,0,0,0,.53-.49,1.36,1.36,0,0,0,.33-.64,1.86,1.86,0,0,0-.19-1.44,1.83,1.83,0,0,0-1.12-.86l-2.27-.44a2.17,2.17,0,0,0-1.45.19,1.53,1.53,0,0,0-.53.48,1.51,1.51,0,0,0-.33.64,1.89,1.89,0,0,0,.19,1.45,1.83,1.83,0,0,0,1.12.86Z" transform="translate(-18.59 -6.34)"/><path class="cls-5" d="M404.15,370.73l15.38,2.95a1.92,1.92,0,0,0,2.3-1.31,1.9,1.9,0,0,0-1.31-2.31l-15.37-2.95a1.94,1.94,0,0,0-2.31,1.31,1.9,1.9,0,0,0,1.31,2.31Z" transform="translate(-18.59 -6.34)"/><path class="cls-5" d="M400.89,388.77l3.42.65a2,2,0,0,0,1.44-.19,1.87,1.87,0,0,0,.67-2.56,1.83,1.83,0,0,0-1.12-.86l-3.41-.66a2.09,2.09,0,0,0-1.45.19,1.89,1.89,0,0,0-.86,1.12,1.93,1.93,0,0,0,.19,1.45,1.86,1.86,0,0,0,1.12.86Z" transform="translate(-18.59 -6.34)"/><path class="cls-5" d="M399.4,400.27l2.28.44a1.37,1.37,0,0,0,.75,0,1.31,1.31,0,0,0,.69-.22,2,2,0,0,0,.86-1.12,1.93,1.93,0,0,0-.18-1.45,1.88,1.88,0,0,0-1.13-.86l-2.27-.44a1.59,1.59,0,0,0-.75,0,1.48,1.48,0,0,0-.7.22,1.36,1.36,0,0,0-.52.49,1.39,1.39,0,0,0-.34.63,1.93,1.93,0,0,0,.19,1.45,1.86,1.86,0,0,0,1.12.86Z" transform="translate(-18.59 -6.34)"/><path class="cls-5" d="M402,412.55l11.89,2.28a1.92,1.92,0,0,0,2.31-1.31,1.89,1.89,0,0,0-1.31-2.3L403,408.94a1.87,1.87,0,1,0-1,3.61Z" transform="translate(-18.59 -6.34)"/><path class="cls-5" d="M456.71,199.53l5.61-68.18,1.6-19.41c.19-2.41-3.56-2.4-3.75,0l-5.61,68.18L453,199.53c-.19,2.41,3.56,2.4,3.75,0Z" transform="translate(-18.59 -6.34)"/><path class="cls-5" d="M418.71,453.27l-4.39,43.24a1.88,1.88,0,0,0,3.75,0l4.39-43.24a1.89,1.89,0,0,0-1.87-1.87,1.92,1.92,0,0,0-1.88,1.87Z" transform="translate(-18.59 -6.34)"/><path class="cls-5" d="M435.64,458.08l-4.19,41.32a1.88,1.88,0,0,0,1.87,1.87,1.92,1.92,0,0,0,1.88-1.87l4.19-41.32a1.88,1.88,0,0,0-3.75,0Z" transform="translate(-18.59 -6.34)"/><path class="cls-5" d="M412.72,512.18c8.58,1.58,17.32,2.71,26,1.72a11.45,11.45,0,0,0,8.26-5.38c1.72-2.85,2.05-6.92-.24-9.55-2.67-3.08-7.1-3.75-10.9-2.91-2.35.53-1.35,4.14,1,3.62,2.69-.6,7.34,0,7.75,3.4.35,3-2.07,5.73-4.76,6.73a19.65,19.65,0,0,1-6.16.69c-2.18.06-4.36,0-6.53-.12a115.11,115.11,0,0,1-13.46-1.81c-2.36-.44-3.37,3.18-1,3.61Z" transform="translate(-18.59 -6.34)"/><path class="cls-5" d="M421,247.08a23.15,23.15,0,0,1,13.69-16.85,1.93,1.93,0,0,0,1.31-2.3,1.88,1.88,0,0,0-2.31-1.31,26.94,26.94,0,0,0-16.31,19.46,1.92,1.92,0,0,0,1.31,2.31,1.9,1.9,0,0,0,2.31-1.31Z" transform="translate(-18.59 -6.34)"/><path class="cls-5" d="M468.43,232.74a31.49,31.49,0,0,1,10.75,26.75c-.23,2.4,3.52,2.38,3.75,0a35,35,0,0,0-11.85-29.4c-1.82-1.57-4.48,1.07-2.65,2.65Z" transform="translate(-18.59 -6.34)"/><path class="cls-5" d="M162.91,318.83a38.68,38.68,0,0,0,0-15.82c-.33-1.57-2.74-.9-2.41.67a35.67,35.67,0,0,1,0,14.48c-.33,1.57,2.08,2.24,2.41.67Z" transform="translate(-18.59 -6.34)"/><path class="cls-5" d="M163.45,299.73A138,138,0,0,1,189,297a1.25,1.25,0,0,0,0-2.5,140.75,140.75,0,0,0-26.21,2.78c-1.58.32-.91,2.73.66,2.41Z" transform="translate(-18.59 -6.34)"/><path class="cls-5" d="M189.72,296.18a154.39,154.39,0,0,0,4.13,21.11,1.25,1.25,0,0,0,2.41-.66,149.69,149.69,0,0,1-4-20.45c-.19-1.57-2.7-1.59-2.5,0Z" transform="translate(-18.59 -6.34)"/><path class="cls-5" d="M167.21,292.56V286.8a1.25,1.25,0,0,0-2.5,0v5.76a1.25,1.25,0,0,0,2.5,0Z" transform="translate(-18.59 -6.34)"/><path class="cls-5" d="M166.7,288.57a81.67,81.67,0,0,0,17.59-2.73,1.25,1.25,0,0,0-.66-2.41,78.87,78.87,0,0,1-16.93,2.64c-1.6.08-1.61,2.58,0,2.5Z" transform="translate(-18.59 -6.34)"/><path class="cls-5" d="M184.89,286.08a18.62,18.62,0,0,0,2.27,10.74c.77,1.4,2.93.14,2.15-1.27a16.24,16.24,0,0,1-1.92-9.47,1.26,1.26,0,0,0-1.25-1.25,1.28,1.28,0,0,0-1.25,1.25Z" transform="translate(-18.59 -6.34)"/></g><g id="Capa_1" data-name="Capa 1"><path class="cls-5" d="M254,479.88,315,442.46l17.4-10.66c1.37-.84.11-3-1.26-2.16l-61.1,37.43-17.39,10.65c-1.37.84-.12,3,1.26,2.16Z" transform="translate(-18.59 -6.34)"/><path class="cls-5" d="M263,485.91l51.53-31.58,14.49-8.87c1.36-.84.11-3-1.27-2.16l-51.53,31.58-14.48,8.87c-1.37.84-.12,3,1.26,2.16Z" transform="translate(-18.59 -6.34)"/><path class="cls-5" d="M253.47,568.12l73.52,32L347.54,609c1.46.63,2.73-1.52,1.26-2.16l-73.52-32L254.73,566c-1.46-.63-2.73,1.52-1.26,2.16Z" transform="translate(-18.59 -6.34)"/><path class="cls-5" d="M263.73,560.08l65.61,28.51,18.52,8c1.46.63,2.73-1.52,1.26-2.16L283.51,566,265,557.92c-1.46-.64-2.74,1.52-1.26,2.16Z" transform="translate(-18.59 -6.34)"/><path class="cls-5" d="M338.71,432l55,34.6,15.66,9.84c1.36.86,2.62-1.3,1.26-2.15l-55-34.6L340,429.84c-1.37-.86-2.62,1.3-1.26,2.16Z" transform="translate(-18.59 -6.34)"/><path class="cls-5" d="M330.82,445.32l51.61,31.32,14.65,8.89a1.25,1.25,0,0,0,1.26-2.16l-51.6-31.32-14.66-8.89c-1.37-.84-2.63,1.32-1.26,2.16Z" transform="translate(-18.59 -6.34)"/><path class="cls-5" d="M423.81,553.78l-59.46,41.36-16.81,11.7c-1.31.91-.07,3.08,1.26,2.16l59.46-41.37,16.81-11.69c1.31-.92.06-3.08-1.26-2.16Z" transform="translate(-18.59 -6.34)"/><path class="cls-5" d="M406.28,545.83l-45.63,38-13,10.85c-1.24,1,.54,2.79,1.76,1.77l45.64-38,13-10.85c1.24-1-.54-2.79-1.77-1.77Z" transform="translate(-18.59 -6.34)"/><path class="cls-5" d="M249.81,480l4.38,18.35c1.42,5.94,2.92,11.88,3.91,17.92a73,73,0,0,1-2,33,70.78,70.78,0,0,1-7.66,17c-.85,1.38,1.32,2.63,2.16,1.27a74.36,74.36,0,0,0,10.66-31.48c1.24-12.09-1.22-23.8-4-35.49q-2.53-10.62-5.08-21.24c-.37-1.57-2.78-.9-2.41.66Z" transform="translate(-18.59 -6.34)"/><path class="cls-5" d="M265,488.72c2.29,9.58,5,19.17,6.63,28.89a59.16,59.16,0,0,1-1.45,26.91A57.56,57.56,0,0,1,264,558.38c-.85,1.38,1.31,2.63,2.16,1.27a60.67,60.67,0,0,0,8.66-25.6c1-9.8-1-19.31-3.26-28.8l-4.11-17.19c-.37-1.57-2.78-.91-2.41.66Z" transform="translate(-18.59 -6.34)"/><path class="cls-5" d="M411.43,476.82a100.55,100.55,0,0,0,3.76,63.06,87.52,87.52,0,0,0,8.17,15.61c.88,1.33,3.05.08,2.16-1.26-11.45-17.26-16.19-38.63-14.67-59.18a94.23,94.23,0,0,1,3-17.57,1.25,1.25,0,0,0-2.41-.66Z" transform="translate(-18.59 -6.34)"/><path class="cls-5" d="M396.5,484.12a80.82,80.82,0,0,0,3.05,50.73,70.66,70.66,0,0,0,6.53,12.49c.89,1.34,3.05.09,2.16-1.26-9.11-13.76-12.91-30.74-11.73-47.12a76.45,76.45,0,0,1,2.4-14.17,1.25,1.25,0,0,0-2.41-.67Z" transform="translate(-18.59 -6.34)"/><path class="cls-5" d="M267.79,486.33c14.15,7.4,30.12,10.45,46,10.83,17.46.42,34.81-2.34,52-5.27,9.31-1.6,18.8-3,27.59-6.61,1.47-.6.83-3-.66-2.41C385.09,486,377,487.43,369,488.81c-8.51,1.47-17,2.93-25.59,4-16.35,2.1-33.08,2.9-49.36-.19a90.18,90.18,0,0,1-24.95-8.48c-1.43-.74-2.69,1.41-1.26,2.16Z" transform="translate(-18.59 -6.34)"/><path class="cls-5" d="M269.33,501c14.16,7.4,30.13,10.45,46,10.83,17.46.42,34.81-2.34,52-5.27,9.32-1.59,18.81-3,27.6-6.61,1.47-.6.83-3-.66-2.41-7.59,3.13-15.69,4.56-23.73,5.94-8.51,1.47-17,2.93-25.59,4-16.35,2.1-33.08,2.9-49.36-.19a89.86,89.86,0,0,1-24.95-8.48c-1.43-.74-2.69,1.41-1.27,2.16Z" transform="translate(-18.59 -6.34)"/><path class="cls-5" d="M271.84,521.42c14.15,7.39,30.12,10.45,46,10.83,17.46.41,34.81-2.35,52-5.28,9.32-1.59,18.8-3,27.59-6.6,1.47-.61.83-3-.66-2.41-7.59,3.13-15.68,4.55-23.73,5.94-8.51,1.46-17,2.93-25.59,4-16.35,2.1-33.08,2.9-49.36-.2a90.16,90.16,0,0,1-24.95-8.47c-1.43-.75-2.69,1.41-1.26,2.16Z" transform="translate(-18.59 -6.34)"/><path class="cls-5" d="M413.71,476.56c15.15-9.18,31.19-18.94,49.16-21,15.22-1.73,32.14,2.2,41.71,15,8.62,11.55,10.05,27.41,5.78,40.92-4.65,14.72-16.23,26.34-29.27,34.06a91.52,91.52,0,0,1-22,9.4c-8.45,2.34-17.55,3.42-26.17,1.35a35.9,35.9,0,0,1-6.15-2.08c-1.46-.65-2.73,1.5-1.27,2.16,16.51,7.37,35.89,2.07,51.29-5.64,14.35-7.17,27.43-18.42,34-33.33,6-13.57,6.11-30.1-1-43.3a38.9,38.9,0,0,0-16.11-16,51,51,0,0,0-23.76-5.5c-18.63,0-35.65,8.72-51.28,18-2.07,1.23-4.13,2.48-6.2,3.73a1.25,1.25,0,0,0,1.27,2.15Z" transform="translate(-18.59 -6.34)"/><path class="cls-5" d="M413.62,480c14.45-8.32,29.63-17,46.5-19,14.39-1.67,30.51,1.49,40.18,13.11,8.55,10.26,10.15,25,6.12,37.5-4.45,13.76-15.75,24.32-28.07,31.25a89.81,89.81,0,0,1-21.47,8.64c-8,2.08-16.65,3-24.82,1.11a36.06,36.06,0,0,1-5.83-1.89c-1.47-.62-2.74,1.53-1.26,2.16,15.81,6.73,34.2,2,49.09-5,13.62-6.43,26.4-16.64,32.81-30.59,5.77-12.54,5.74-28-1.34-40-7.92-13.48-23.44-19.26-38.5-19.17-17.61.1-33.81,8-48.83,16.43-1.95,1.1-3.9,2.22-5.85,3.34a1.25,1.25,0,0,0,1.27,2.16Z" transform="translate(-18.59 -6.34)"/><path class="cls-5" d="M251.2,566.05l-30.38-6.11c-7.9-1.6-15.81-3.18-23.57-5.35-14.36-4-29-10.18-38.49-22.14-10.22-12.83-12.3-31.41-5.41-46.28a46.9,46.9,0,0,1,36.34-26.25c18.52-2.22,36,6.71,51.49,15.81,2,1.16,3.95,2.35,5.91,3.53a1.25,1.25,0,0,0,1.26-2.16c-16-9.67-33.45-20-52.74-20a49.77,49.77,0,0,0-41.22,22.1c-9.34,14.15-10,33.28-2,48.18,7.58,14.09,22,22.34,36.68,27.33a197,197,0,0,0,23.45,6.11c10.06,2.1,20.14,4.07,30.21,6.1l7.78,1.56c1.57.32,2.24-2.09.66-2.41Z" transform="translate(-18.59 -6.34)"/><path class="cls-5" d="M251.35,560.38,223.43,555c-7.46-1.44-14.92-2.85-22.27-4.78-13.41-3.52-27.31-8.83-36.57-19.63a38.79,38.79,0,0,1-5.14-42.2c6.53-12.84,20.27-21.47,34.5-22.84,17.12-1.64,33.26,6.13,47.79,14.26,1.87,1,3.72,2.1,5.57,3.17a1.25,1.25,0,0,0,1.26-2.16c-15-8.63-31.19-17.65-49-18-15.23-.28-30.34,6.82-39.26,19.28A41.25,41.25,0,0,0,158.29,526c7.4,12.9,21.21,20.12,34.91,24.51A198,198,0,0,0,215.33,556c9.35,1.85,18.71,3.61,28.07,5.41l7.29,1.4c1.57.3,2.24-2.1.66-2.41Z" transform="translate(-18.59 -6.34)"/><path class="cls-5" d="M345.05,587.38a102.58,102.58,0,0,1-16.7-46c-.17-1.58-2.67-1.6-2.5,0a105.25,105.25,0,0,0,17,47.26c.89,1.33,3.06.08,2.16-1.26Z" transform="translate(-18.59 -6.34)"/><path class="cls-5" d="M326.63,444.59a101.46,101.46,0,0,0-4.89,40.08c.12,1.59,2.62,1.6,2.5,0a99.47,99.47,0,0,1,4.81-39.42c.51-1.53-1.91-2.18-2.42-.66Z" transform="translate(-18.59 -6.34)"/></g><g id="Capa_5" data-name="Capa 5"><image class="cls-3" width="2550" height="3300" transform="translate(0 2.5) scale(0.05)" xlink:href="../../Downloads/logo%20digitalizado%20final-01.png"/></g></svg>