<svg xmlns="http://www.w3.org/2000/svg" xmlns:xlink="http://www.w3.org/1999/xlink" viewBox="0 0 426.04 680.78"><defs><style>.cls-1{opacity:0.51;}.cls-2{fill:#3d7dbb;}.cls-3{opacity:0.65;}.cls-4{fill:#f5a13b;}.cls-5{fill:none;stroke:#1d1d1b;stroke-miterlimit:10;stroke-width:3px;}.cls-6{fill:#1d1d1b;}</style></defs><g id="Capa_4" data-name="Capa 4"><g class="cls-1"><path class="cls-2" d="M286.55,541.11c8.14-15.48,16.55-32.35,16-50.31-.29-9.56-3.28-18.35-7.69-26.76-3.79-7.24-8.22-14.15-12.08-21.37q-6.71-12.56-12.23-25.68l1,2.39c-4.84-11.51-9.59-23.42-11.34-35.85l.36,2.66a53.8,53.8,0,0,1-.11-14.34l-.36,2.65a42.67,42.67,0,0,1,2.8-10.16l-1,2.39c4.45-10.49,12.15-19.09,17.94-28.8,3-5,5.67-10.5,6.74-16.24a34.27,34.27,0,0,0,.68-9.84A38.81,38.81,0,0,0,284,299.52c-3.23-7.25-9-13-13.85-19.22l1.56,2A75.14,75.14,0,0,1,262.25,266l1,2.39c-5.92-14.07-8.24-29.29-10.42-44.3-.34-2.3-2.69-4.85-4.6-6a10,10,0,0,0-13.68,3.59,11.67,11.67,0,0,0-1,7.7c2.95,20.26,6.39,41.42,17.9,58.85,3.42,5.18,7.6,9.78,11.4,14.66l-1.56-2a42.8,42.8,0,0,1,5.6,9.13l-1-2.39a26.47,26.47,0,0,1,1.66,6.05l-.36-2.66a25.81,25.81,0,0,1,0,6.63l.35-2.65a33.11,33.11,0,0,1-2.36,8.25l1-2.39c-3.51,8.17-9.14,15.19-14.07,22.52a84.72,84.72,0,0,0-6.78,11.66A56.21,56.21,0,0,0,240.22,374c-1.09,12.23,2.25,24.71,6.36,36.12A326.83,326.83,0,0,0,261.53,445q4.53,9.11,9.66,17.89c3.22,5.54,6.6,11,9.12,16.91l-1-2.39a47.07,47.07,0,0,1,3.26,11.62l-.36-2.66a49.14,49.14,0,0,1-.1,12.65l.35-2.66a81.16,81.16,0,0,1-5.89,20l1-2.38c-2.48,5.81-5.35,11.43-8.29,17-2.44,4.63-1.33,11.08,3.59,13.68,4.61,2.44,11.08,1.36,13.68-3.58Z" transform="translate(-26.64 -7.35)"/></g><g class="cls-3"><path class="cls-4" d="M289.06,605.32q9.1-8.31,18.84-15.88c1.08-.84-1.16.88-.07,0l1.08-.83,2.56-1.92q2.46-1.83,5-3.63,5-3.57,10.17-7,5.82-3.82,11.81-7.37l-11-8.47c-.18.48-.37.95-.57,1.42l.76-1.79a54.89,54.89,0,0,1-3.83,7.33c-.66,1.05-1.36,2.09-2.08,3.11-.36.51-.74,1-1.11,1.51-.83,1.12,1-1.24.37-.48-.27.35-.54.69-.82,1a116.89,116.89,0,0,1-11.19,11.72c-4,3.76-8.16,7.36-12.21,11.07a106,106,0,0,0-11.9,12.17c-5,6.31-9.05,13.75-8.53,22.06.31,4.83,4.55,8.58,9.5,7.24,10.29-2.79,19.89-7.75,28.95-13.28s18.06-11.57,27.05-17.4l16-10.34-9.09-11.78-21.85,26.86c-6.95,8.55-15.12,17.38-17.42,28.54-1.43,6.93-.9,14.15,2.67,20.38a7.59,7.59,0,0,0,11.78,1.51q11.76-11.15,24.47-21.22l1.59-1.25c.42-.33,2.28-1.72.44-.35,1.08-.8,2.14-1.64,3.22-2.46q3.24-2.43,6.52-4.8,6.59-4.73,13.37-9.16,7.73-5,15.7-9.68l-11-4.48a10.83,10.83,0,0,1,.24,1.16l-.27-2a10.15,10.15,0,0,1,0,1.91l.26-2a11.72,11.72,0,0,1-.71,2.61l.76-1.79a23.06,23.06,0,0,1-2.48,4.27c-.24.34-.5.68-.75,1-.92,1.25,1.11-1.41.16-.2s-1.82,2.32-2.7,3.51a73.39,73.39,0,0,0-5.72,9,83.2,83.2,0,0,0-8.07,21.23A87.55,87.55,0,0,0,357,658.54c-.42,4.9-.26,9.94,3.47,13.65,3.41,3.39,8.67,4,13.1,2.55,4.07-1.3,7.15-3.63,10.43-6.28L405.57,651a7.53,7.53,0,0,0,2.2-5.31,7.51,7.51,0,0,0-7.5-7.5,8.65,8.65,0,0,0-5.31,2.2l-14.24,11.55-6.92,5.62a12.44,12.44,0,0,1-1.93,1.56c.05,0,1.57-1.14.75-.58l-.69.48a19.31,19.31,0,0,1-2.86,1.56l1.79-.76a12.12,12.12,0,0,1-3.12.9l2-.27a7.32,7.32,0,0,1-1.75,0l2,.27a5.69,5.69,0,0,1-1.05-.3l1.79.76-.48-.25c-1-.44,1.3,1.17.75.58s.91,1.5.62.82c-.13-.29-.32-.57-.45-.87l.76,1.79a9.87,9.87,0,0,1-.3-1.19l.27,2a36.62,36.62,0,0,1,.49-8.86l-.26,2a76.83,76.83,0,0,1,5.37-19.63l-.76,1.79a75.78,75.78,0,0,1,9-15.62c.29-.39,1.07-1.3-.27.33l.63-.8c.77-1,1.55-2,2.31-3a27.34,27.34,0,0,0,2.37-3.67,17.61,17.61,0,0,0,1.85-12.74,7.57,7.57,0,0,0-11-4.48A371.72,371.72,0,0,0,327,638.24q-7,6-13.7,12.36L325,652.12c-.34-.59-.65-1.19-.93-1.81l.76,1.79a20.08,20.08,0,0,1-1.36-5.05l.27,2a24.58,24.58,0,0,1,.08-6.12l-.27,2a29.87,29.87,0,0,1,2-7.16l-.76,1.79a43.15,43.15,0,0,1,3.28-6.1q.83-1.28,1.71-2.52l1-1.41c.31-.42,1.68-2,.15-.22,3.13-3.62,6-7.47,9.05-11.19l19.2-23.6a7.89,7.89,0,0,0,2.19-5.3,7.63,7.63,0,0,0-1.61-4.54c-2.18-2.83-6.51-4-9.67-1.94l-24.05,15.59c-7.56,4.9-15.05,9.94-22.84,14.46a120.66,120.66,0,0,1-13.17,6.7l1.79-.76a79.2,79.2,0,0,1-10.12,3.52l9.49,7.23a19.06,19.06,0,0,1,.11-3.62l-.27,2a22.64,22.64,0,0,1,1.51-5.39l-.76,1.8a27.74,27.74,0,0,1,4.21-7.09c-.06.07-1.17,1.47-.4.53.18-.22.35-.44.53-.65.45-.54.9-1.07,1.36-1.59.9-1,1.83-2,2.78-2.94,3.53-3.58,7.26-7,11-10.3,7.74-6.94,15.38-13.87,21.72-22.14a64.14,64.14,0,0,0,8.8-15.76,7.22,7.22,0,0,0,0-4,7.62,7.62,0,0,0-11-4.48,321.18,321.18,0,0,0-41.73,29.57q-5.44,4.53-10.66,9.3a7.56,7.56,0,0,0,0,10.61,7.67,7.67,0,0,0,10.6,0Z" transform="translate(-26.64 -7.35)"/></g></g><g id="Capa_2" data-name="Capa 2"><path class="cls-5" d="M288.74,248.14c-22.1-34.45-51.57-34.35-51.57-34.35" transform="translate(-26.64 -7.35)"/><path class="cls-5" d="M283.54,367.46l34.6-26.07s-40.89,51.68-39.09,74.6,31-33.7,31-33.7" transform="translate(-26.64 -7.35)"/><path class="cls-5" d="M242.31,197.9" transform="translate(-26.64 -7.35)"/><path class="cls-5" d="M223.82,198.39" transform="translate(-26.64 -7.35)"/><path class="cls-5" d="M178.1,571.43" transform="translate(-26.64 -7.35)"/><path class="cls-6" d="M243.45,179.29a105.24,105.24,0,0,0-12.67,56.77,114.22,114.22,0,0,0,17.68,55.42A100.74,100.74,0,0,0,270.61,316v-1.76c-21.4,19.08-32.63,48.69-29.85,77.17,1.53,15.77,7.79,30.26,15.32,44,8.08,14.78,17.54,29,23.31,44.87,5.57,15.36,8.18,33,1.45,48.41-5.68,13-17.84,22.66-31.56,26A44.38,44.38,0,0,1,210,544.86c-11-9.44-17.55-23.9-15.35-38.46,1.08-7.21,4.37-14.33,10.12-19a25.7,25.7,0,0,1,19.09-5.5c6.35.82,12.06,4.47,14.66,10.42a19.68,19.68,0,0,1-.33,16.59,14.27,14.27,0,0,1-5.73,5.94,1.25,1.25,0,0,0,1.26,2.16c10.62-6,11.5-21.65,4.12-30.5-9.09-10.89-27-8.62-36.4.51-11,10.63-12,28.3-6.28,41.77a49.67,49.67,0,0,0,31,27.78c14.08,4.24,29.54,1,41.33-7.61,12.82-9.37,19.64-24,19.86-39.74.52-36.91-27.77-64.35-39.45-97.36a90.24,90.24,0,0,1,16.55-87.81,84.87,84.87,0,0,1,7.93-8.05,1.25,1.25,0,0,0,0-1.76,102.87,102.87,0,0,1-32.76-46.51,111.6,111.6,0,0,1-4.84-56.64,98.31,98.31,0,0,1,10.83-30.55c.78-1.41-1.38-2.67-2.16-1.26Z" transform="translate(-26.64 -7.35)"/><path class="cls-6" d="M216.62,204a79.43,79.43,0,0,0,41.72-11.32,81.12,81.12,0,0,0,30.12-31,55,55,0,0,0,6.51-19.7c.73-6.4.08-13.32-3.24-19a19.12,19.12,0,0,0-15.57-9.54,20.62,20.62,0,0,0-16.94,7.4c-4.6,5.82-5.52,15.33,1.23,19.95,2.72,1.87,6.51,2.47,9.47.8a8.58,8.58,0,0,0,4.21-7.6,7,7,0,0,0-1.57-4.12c-1-1.26-2.75.52-1.77,1.77,1.69,2.15.69,5.41-1.17,7.1-2.29,2.08-5.73,1.48-8.05-.21-6-4.38-3.52-13.41,1.13-17.8a18.42,18.42,0,0,1,15.81-4.51,17.14,17.14,0,0,1,12.37,10.66c4.61,11.45.39,24.76-5.38,35a78.66,78.66,0,0,1-27,27.85,77.64,77.64,0,0,1-36.93,11.76c-1.65.08-3.29.1-4.94.07a1.25,1.25,0,0,0,0,2.5Z" transform="translate(-26.64 -7.35)"/><path class="cls-6" d="M285.22,167.93c1.73,9.16,7.83,16.88,15.56,21.87,8.89,5.76,19.7,7.49,30.12,6.46a77.76,77.76,0,0,0,19-4.51c1.5-.55.85-3-.66-2.41-10.18,3.73-21.31,5.89-32.12,4.07a38.37,38.37,0,0,1-23.25-13,29.15,29.15,0,0,1-6.26-13.18c-.29-1.58-2.7-.91-2.41.67Z" transform="translate(-26.64 -7.35)"/><path class="cls-6" d="M291,238.62a47.45,47.45,0,0,1,40.72-17.57c1.61.14,1.6-2.37,0-2.5a49.76,49.76,0,0,0-42.48,18.3c-1,1.25.76,3,1.76,1.77Z" transform="translate(-26.64 -7.35)"/><path class="cls-6" d="M302.2,541.57c4.57-9,9.21-18,13.83-27.05.73-1.43-1.43-2.7-2.16-1.27-4.62,9-9.26,18-13.83,27-.72,1.44,1.44,2.7,2.16,1.27Z" transform="translate(-26.64 -7.35)"/><path class="cls-6" d="M298.57,311.62c13.83,1.3,25.72,9,33.9,20s13,24.65,15.06,38.24c2.88,18.72.22,37.78-4.72,55.92s-12.14,35.71-18.87,53.31c-6.82,17.8-13.23,35.9-16.26,54.78-.37,2.28-.68,4.57-.95,6.86-.19,1.6,2.31,1.59,2.5,0,2.29-19.43,8.5-38.12,15.36-56.36,6.79-18,14.27-35.83,19.63-54.35,5.27-18.22,8.46-37.35,6.32-56.33-1.61-14.27-6-28.6-14-40.62C328.9,321.62,317.7,312.64,304,309.9a52.19,52.19,0,0,0-5.43-.78c-1.6-.15-1.59,2.35,0,2.5Z" transform="translate(-26.64 -7.35)"/><path class="cls-6" d="M306.16,304.22A80.37,80.37,0,0,0,330.36,274a85.47,85.47,0,0,0,8.07-38.15,77.59,77.59,0,0,0-3.62-21.69c-.49-1.53-2.9-.88-2.41.66a77.79,77.79,0,0,1,2.26,37.51,83.31,83.31,0,0,1-14.77,34.46,75,75,0,0,1-15,15.25c-1.27,1,0,3.13,1.26,2.15Z" transform="translate(-26.64 -7.35)"/></g><g id="Capa_3" data-name="Capa 3"><path class="cls-6" d="M267.89,545q26.34.15,52.68-1t52.57-3.54q14.78-1.35,29.52-3.11c1.58-.19,1.6-2.69,0-2.5q-26.16,3.12-52.45,5t-52.64,2.42q-14.83.33-29.68.24a1.25,1.25,0,0,0,0,2.5Z" transform="translate(-26.64 -7.35)"/><path class="cls-6" d="M263.52,550q-13.06,46.8-24.21,94.12-3.1,13.2-6.06,26.44c-.35,1.57,2.06,2.24,2.41.67q10.59-47.43,23.12-94.39,3.5-13.11,7.15-26.18a1.25,1.25,0,0,0-2.41-.66Z" transform="translate(-26.64 -7.35)"/><path class="cls-6" d="M402.4,541.72,421,588l18.68,46.51,10.51,26.15c.59,1.47,3,.83,2.41-.66L434,613.71,415.32,567.2l-10.5-26.15c-.6-1.47-3-.83-2.42.67Z" transform="translate(-26.64 -7.35)"/><path class="cls-6" d="M238.79,677.8c28.44,6.6,57.68,8.48,86.78,9.44,13.63.45,27.28.91,40.92.89A247.16,247.16,0,0,0,405,685.51c14.17-2.25,28.06-6.47,40.57-13.62a1.25,1.25,0,0,0-1.26-2.16c-22.4,12.8-48.6,15.61-73.95,15.88-13.32.14-26.66-.32-40-.72-14.37-.43-28.74-1-43.07-2.25a339.45,339.45,0,0,1-47.89-7.25c-1.57-.36-2.23,2.05-.67,2.41Z" transform="translate(-26.64 -7.35)"/><path class="cls-6" d="M284.62,536.18c-2.09-12.75.69-25.92,6.37-37.41,5.28-10.69,13.18-20.5,23.86-26.17a31.63,31.63,0,0,1,16.34-3.94,27.28,27.28,0,0,1,14.25,5.06c8.44,5.95,13.54,15.83,16.79,25.38a127.12,127.12,0,0,1,4.82,20.29,168.72,168.72,0,0,1,2.2,24.17,1.25,1.25,0,0,0,2.5,0c-.29-14.22-2.08-28.78-6.24-42.42-3.13-10.24-8.08-20.77-16.46-27.77a30.49,30.49,0,0,0-14.15-6.78,31.58,31.58,0,0,0-17.21,2c-11.52,4.62-20.54,14.17-26.63,24.78-7.51,13.1-11.32,28.48-8.85,43.52.26,1.58,2.67.91,2.41-.66Z" transform="translate(-26.64 -7.35)"/><path class="cls-6" d="M371.84,549.67c-7.33,1.93-9.63,13.13-2.83,17.15a10.47,10.47,0,0,0,10.27-.11,8.58,8.58,0,0,0,4-9.6c-1-4.21-4.87-7.78-9.32-7.73a1.25,1.25,0,0,0,0,2.5c5.85-.07,9.75,8.33,4.83,12.15a8,8,0,0,1-7.7,1.05,6.12,6.12,0,0,1-3.68-6.25c.17-3,2.1-6,5.07-6.75a1.25,1.25,0,0,0-.66-2.41Z" transform="translate(-26.64 -7.35)"/><path class="cls-6" d="M286,628.37a64.46,64.46,0,0,0,41.11-31,60.83,60.83,0,0,0,5.67-13.71,1.25,1.25,0,0,0-2.41-.66,62,62,0,0,1-31.52,38.1A58.59,58.59,0,0,1,285.33,626c-1.56.36-.9,2.77.67,2.41Z" transform="translate(-26.64 -7.35)"/><path class="cls-6" d="M308,641.62a168.44,168.44,0,0,0,42.07-35.94q5-6,9.5-12.45c.92-1.32-1.25-2.57-2.16-1.26a165.51,165.51,0,0,1-37.91,39q-6.18,4.54-12.76,8.51a1.25,1.25,0,0,0,1.26,2.15Z" transform="translate(-26.64 -7.35)"/><path class="cls-6" d="M349.27,648.35a292.43,292.43,0,0,0,30.44-41.68,1.25,1.25,0,0,0-2.16-1.26,288.62,288.62,0,0,1-30.05,41.17c-1.05,1.21.71,3,1.77,1.77Z" transform="translate(-26.64 -7.35)"/><path class="cls-6" d="M285.45,557.79c-7.33,1.93-9.62,13.13-2.82,17.14a10.45,10.45,0,0,0,10.26-.11,8.57,8.57,0,0,0,4-9.59c-1-4.21-4.87-7.79-9.33-7.73a1.25,1.25,0,0,0,0,2.5c5.86-.07,9.76,8.33,4.83,12.14a8,8,0,0,1-7.7,1.05,6.13,6.13,0,0,1-3.68-6.25c.18-3,2.11-6,5.08-6.74a1.25,1.25,0,0,0-.67-2.41Z" transform="translate(-26.64 -7.35)"/></g><g id="Capa_5" data-name="Capa 5"><image class="cls-3" width="2550" height="3300" transform="scale(0.05)" xlink:href="../../Downloads/logo%20digitalizado%20final-01.png"/></g></svg>